{"glyphs":{"0":{"ha":1153,"x_min":125,"x_max":1028,"o":"m 575 1069 q 914 924 800 1069 q 1028 511 1028 779 q 911 112 1028 251 q 575 -28 794 -28 q 240 112 356 -28 q 125 511 125 251 q 239 924 125 779 q 575 1069 353 1069 m 575 1035 q 375 914 431 1035 q 319 510 319 793 q 376 124 319 242 q 575 7 433 7 q 775 124 717 7 q 833 510 833 242 q 776 914 833 793 q 575 1035 719 1035 z "},"1":{"ha":736,"x_min":125,"x_max":611,"o":"m 611 35 l 611 0 l 125 0 l 125 35 l 279 35 l 279 722 q 219 689 253 700 q 147 678 186 678 l 147 715 q 293 792 236 715 q 383 1069 350 868 l 457 1069 l 457 35 l 611 35 z "},"2":{"ha":1153,"x_min":153,"x_max":1004,"o":"m 153 0 q 183 161 161 99 q 241 267 206 224 q 324 341 276 310 q 431 407 372 372 q 585 506 522 463 q 687 594 649 550 q 742 687 725 638 q 758 800 758 736 q 699 980 758 926 q 518 1032 639 1033 q 313 924 390 1031 q 236 596 236 818 l 236 551 l 194 551 l 194 1042 l 229 1042 l 229 838 q 343 1010 265 950 q 540 1069 421 1069 q 710 1053 633 1069 q 840 1003 786 1038 q 923 917 893 969 q 953 794 953 865 q 908 627 953 688 q 793 528 864 567 q 631 457 722 489 q 449 374 540 425 q 366 326 403 347 q 301 278 329 304 q 372 308 331 297 q 461 319 413 319 q 557 287 504 319 q 663 215 610 254 q 764 144 715 176 q 849 111 813 111 q 938 159 908 111 q 968 317 968 207 l 968 482 l 1004 482 l 1004 322 q 951 69 1004 165 q 775 -28 897 -28 q 644 13 715 -28 q 507 101 574 53 q 385 190 440 150 q 303 231 329 231 q 257 213 276 231 q 221 153 238 196 q 204 85 211 122 q 193 0 197 47 l 153 0 z "},"3":{"ha":1153,"x_min":183,"x_max":972,"o":"m 200 572 l 200 1042 l 964 1042 l 964 1010 l 549 682 q 588 692 568 688 q 629 696 608 696 q 763 674 700 697 q 872 606 826 650 q 945 499 918 563 q 972 354 972 435 q 861 71 972 169 q 560 -28 750 -28 q 380 -1 453 -28 q 264 77 307 26 q 202 201 221 128 q 183 367 183 275 l 221 367 q 235 223 221 289 q 283 110 249 157 q 378 38 318 64 q 533 11 439 11 q 717 92 657 11 q 778 332 778 174 q 770 490 778 426 q 745 592 763 554 q 699 644 728 629 q 625 660 669 660 q 517 640 561 660 q 407 569 472 619 l 311 493 l 292 519 l 739 879 l 324 879 q 256 855 278 879 q 235 774 235 831 l 235 572 l 200 572 z "},"4":{"ha":1006,"x_min":83,"x_max":894,"o":"m 343 0 l 343 35 l 529 35 l 529 292 l 83 292 l 83 329 l 635 1042 l 829 1042 l 829 1004 l 292 329 l 529 329 l 529 375 l 681 539 l 707 539 l 707 329 l 894 329 l 894 292 l 707 292 l 707 35 l 893 35 l 893 0 l 343 0 z "},"5":{"ha":1153,"x_min":167,"x_max":986,"o":"m 204 363 q 296 96 204 182 q 547 10 388 10 q 736 94 681 10 q 792 357 792 179 q 738 628 792 543 q 554 713 683 713 q 317 640 392 713 q 232 432 243 567 l 194 432 l 236 1028 l 236 1042 l 894 1042 l 894 715 l 860 715 l 860 774 q 838 855 860 831 q 771 879 817 879 l 264 879 l 244 607 q 362 713 285 675 q 556 750 439 750 q 882 649 778 750 q 986 358 986 547 q 878 72 986 171 q 547 -28 769 -28 q 267 72 368 -28 q 167 363 167 172 l 204 363 z "},"6":{"ha":1153,"x_min":161,"x_max":993,"o":"m 161 531 q 270 946 161 822 q 611 1069 379 1069 q 849 971 767 1069 q 931 696 931 872 l 893 696 q 823 944 893 857 q 613 1032 753 1032 q 433 920 485 1032 q 381 565 381 808 l 381 518 q 400 557 386 533 q 440 602 414 581 q 508 639 467 624 q 608 654 550 654 q 897 566 801 654 q 993 314 993 478 q 897 61 993 150 q 608 -28 801 -28 q 446 -3 526 -28 q 302 83 365 21 q 200 253 239 144 q 161 531 161 363 m 610 10 q 701 24 665 10 q 759 74 738 39 q 790 168 781 108 q 799 318 799 228 q 791 468 799 410 q 763 559 783 526 q 705 604 742 592 q 611 617 668 617 q 448 563 515 617 q 381 357 381 510 l 381 336 q 390 207 381 267 q 425 103 400 147 q 495 35 450 60 q 610 10 540 10 z "},"7":{"ha":1017,"x_min":139,"x_max":947,"o":"m 139 489 l 139 1042 l 947 1042 l 947 1011 l 840 865 q 681 628 740 729 q 590 442 621 526 q 549 278 558 357 q 539 107 539 199 l 539 35 l 694 35 l 694 0 l 219 0 l 219 35 l 361 35 l 361 107 q 388 283 361 201 q 468 450 414 364 q 607 639 522 536 q 808 879 692 742 l 351 879 q 214 839 254 879 q 174 710 174 799 l 174 489 l 139 489 z "},"8":{"ha":1153,"x_min":165,"x_max":1006,"o":"m 940 790 q 890 627 940 679 q 760 556 840 575 q 883 491 835 525 q 958 419 931 457 q 995 339 985 381 q 1006 250 1006 297 q 972 128 1006 181 q 881 42 939 76 q 747 -10 824 7 q 586 -28 671 -28 q 417 -9 494 -28 q 283 47 339 10 q 197 141 228 85 q 165 271 165 197 q 222 430 165 374 q 363 506 278 486 q 220 625 263 556 q 178 790 178 694 q 213 911 178 858 q 304 999 249 964 q 430 1051 360 1033 q 569 1069 500 1069 q 710 1053 643 1069 q 828 1003 778 1036 q 910 916 879 969 q 940 790 940 863 m 617 604 q 665 590 642 597 q 708 575 688 583 q 858 641 813 593 q 903 790 903 689 q 876 892 903 847 q 807 968 850 938 q 707 1015 764 999 q 590 1032 650 1032 q 412 990 471 1032 q 353 847 353 947 q 363 763 353 799 q 401 699 372 726 q 481 650 429 672 q 617 604 533 628 m 204 276 q 233 155 204 206 q 313 72 263 104 q 432 25 363 40 q 581 10 501 10 q 770 56 715 10 q 825 183 825 103 q 814 272 825 235 q 770 338 803 308 q 678 392 738 367 q 522 446 618 418 q 464 464 492 454 q 413 483 436 474 q 263 422 321 468 q 204 276 204 376 z "},"9":{"ha":1153,"x_min":175,"x_max":993,"o":"m 993 511 q 881 96 993 219 q 529 -28 768 -28 q 271 71 360 -28 q 182 346 182 169 l 219 346 q 297 97 219 185 q 528 10 374 10 q 718 122 663 10 q 774 476 774 233 l 774 524 q 754 485 768 508 q 715 440 740 461 q 650 403 690 418 q 553 388 610 388 q 269 476 364 388 q 175 728 175 564 q 269 981 175 892 q 553 1069 364 1069 q 713 1045 633 1069 q 853 959 792 1021 q 954 788 915 897 q 993 511 993 679 m 551 1032 q 463 1017 499 1032 q 407 968 428 1003 q 378 874 386 933 q 369 724 369 814 q 377 574 369 632 q 405 483 385 515 q 460 438 425 450 q 550 425 494 425 q 708 478 642 425 q 774 685 774 532 l 774 706 q 765 835 774 775 q 731 938 756 894 q 663 1007 706 982 q 551 1032 619 1032 z "}," ":{"ha":208,"x_min":0,"x_max":0,"o":""}," ":{"ha":417,"x_min":0,"x_max":0,"o":""},"A":{"ha":1153,"x_min":69,"x_max":1083,"o":"m 383 0 l 69 0 l 69 35 l 182 35 l 467 1007 l 292 1007 l 292 1042 l 669 1042 l 969 35 l 1083 35 l 1083 0 l 636 0 l 636 35 l 793 35 l 706 326 l 308 326 l 224 35 l 383 35 l 383 0 m 319 364 l 694 364 l 506 999 l 319 364 z "},"À":{"ha":1153,"x_min":69,"x_max":1083,"o":"m 383 0 l 69 0 l 69 35 l 182 35 l 467 1007 l 292 1007 l 292 1042 l 669 1042 l 969 35 l 1083 35 l 1083 0 l 636 0 l 636 35 l 793 35 l 706 326 l 308 326 l 224 35 l 383 35 l 383 0 m 319 364 l 694 364 l 506 999 l 319 364 m 268 1274 q 399 1218 335 1242 q 538 1178 464 1194 q 703 1150 611 1161 q 914 1132 794 1139 l 914 1111 q 701 1113 794 1111 q 534 1121 608 1114 q 396 1143 460 1128 q 268 1186 332 1158 l 268 1274 z "},"Á":{"ha":1153,"x_min":69,"x_max":1083,"o":"m 383 0 l 69 0 l 69 35 l 182 35 l 467 1007 l 292 1007 l 292 1042 l 669 1042 l 969 35 l 1083 35 l 1083 0 l 636 0 l 636 35 l 793 35 l 706 326 l 308 326 l 224 35 l 383 35 l 383 0 m 319 364 l 694 364 l 506 999 l 319 364 m 882 1274 l 882 1186 q 754 1143 818 1158 q 616 1121 690 1128 q 449 1113 542 1114 q 236 1111 356 1111 l 236 1132 q 447 1150 356 1139 q 613 1178 539 1161 q 751 1218 686 1194 q 882 1274 815 1242 z "},"Â":{"ha":1153,"x_min":69,"x_max":1083,"o":"m 383 0 l 69 0 l 69 35 l 182 35 l 467 1007 l 292 1007 l 292 1042 l 669 1042 l 969 35 l 1083 35 l 1083 0 l 636 0 l 636 35 l 793 35 l 706 326 l 308 326 l 224 35 l 383 35 l 383 0 m 319 364 l 694 364 l 506 999 l 319 364 m 575 1301 q 651 1235 615 1264 q 723 1188 686 1207 q 803 1154 760 1168 q 901 1132 846 1140 l 901 1111 q 720 1142 790 1121 q 575 1221 650 1164 q 430 1142 500 1164 q 249 1111 360 1121 l 249 1132 q 347 1154 304 1140 q 427 1188 390 1168 q 499 1235 464 1207 q 575 1301 535 1264 z "},"Ã":{"ha":1153,"x_min":69,"x_max":1083,"o":"m 383 0 l 69 0 l 69 35 l 182 35 l 467 1007 l 292 1007 l 292 1042 l 669 1042 l 969 35 l 1083 35 l 1083 0 l 636 0 l 636 35 l 793 35 l 706 326 l 308 326 l 224 35 l 383 35 l 383 0 m 319 364 l 694 364 l 506 999 l 319 364 m 432 1244 q 508 1233 468 1244 q 585 1208 547 1222 q 659 1183 624 1194 q 722 1172 694 1172 q 777 1189 747 1172 q 807 1244 807 1206 l 839 1244 q 808 1146 839 1181 q 710 1111 778 1111 q 640 1122 676 1111 q 566 1147 603 1133 q 492 1172 529 1161 q 419 1183 454 1183 q 365 1167 394 1183 q 335 1111 335 1150 l 303 1111 q 333 1210 303 1175 q 432 1244 364 1244 z "},"Ä":{"ha":1153,"x_min":69,"x_max":1083,"o":"m 383 0 l 69 0 l 69 35 l 182 35 l 467 1007 l 292 1007 l 292 1042 l 669 1042 l 969 35 l 1083 35 l 1083 0 l 636 0 l 636 35 l 793 35 l 706 326 l 308 326 l 224 35 l 383 35 l 383 0 m 319 364 l 694 364 l 506 999 l 319 364 m 382 1111 q 299 1123 326 1111 q 272 1157 272 1135 q 299 1194 272 1181 q 382 1208 326 1208 q 465 1194 438 1208 q 492 1157 492 1181 q 465 1123 492 1135 q 382 1111 438 1111 m 760 1111 q 677 1123 704 1111 q 650 1157 650 1135 q 677 1194 650 1181 q 760 1208 704 1208 q 842 1194 815 1208 q 869 1157 869 1181 q 842 1123 869 1135 q 760 1111 815 1111 z "},"Ă":{"ha":1153,"x_min":69,"x_max":1083,"o":"m 383 0 l 69 0 l 69 35 l 182 35 l 467 1007 l 292 1007 l 292 1042 l 669 1042 l 969 35 l 1083 35 l 1083 0 l 636 0 l 636 35 l 793 35 l 706 326 l 308 326 l 224 35 l 383 35 l 383 0 m 319 364 l 694 364 l 506 999 l 319 364 m 849 1254 q 837 1190 849 1217 q 794 1145 825 1163 q 710 1119 764 1128 q 572 1111 656 1111 q 435 1119 489 1111 q 350 1145 381 1128 q 308 1190 319 1163 q 296 1254 296 1217 l 333 1254 q 342 1216 333 1233 q 375 1187 350 1199 q 447 1169 400 1175 q 571 1163 494 1163 q 696 1169 649 1163 q 769 1187 743 1175 q 803 1216 794 1199 q 811 1254 811 1233 l 849 1254 z "},"Ā":{"ha":1153,"x_min":69,"x_max":1083,"o":"m 383 0 l 69 0 l 69 35 l 182 35 l 467 1007 l 292 1007 l 292 1042 l 669 1042 l 969 35 l 1083 35 l 1083 0 l 636 0 l 636 35 l 793 35 l 706 326 l 308 326 l 224 35 l 383 35 l 383 0 m 319 364 l 694 364 l 506 999 l 319 364 m 871 1146 l 279 1146 l 279 1190 l 871 1190 l 871 1146 z "},"Å":{"ha":1153,"x_min":69,"x_max":1083,"o":"m 383 0 l 69 0 l 69 35 l 182 35 l 467 1007 l 292 1007 l 292 1042 l 669 1042 l 969 35 l 1083 35 l 1083 0 l 636 0 l 636 35 l 793 35 l 706 326 l 308 326 l 224 35 l 383 35 l 383 0 m 319 364 l 694 364 l 506 999 l 319 364 m 849 1185 q 837 1151 849 1165 q 794 1128 825 1138 q 710 1115 764 1119 q 572 1111 656 1111 q 435 1115 489 1111 q 350 1128 381 1119 q 308 1151 319 1138 q 296 1185 296 1165 q 308 1218 296 1204 q 350 1241 319 1232 q 435 1254 381 1250 q 572 1258 489 1258 q 710 1254 656 1258 q 794 1241 764 1250 q 837 1218 825 1232 q 849 1185 849 1204 m 333 1185 q 342 1169 333 1176 q 375 1158 350 1163 q 447 1151 400 1154 q 571 1149 494 1149 q 696 1151 649 1149 q 769 1158 743 1154 q 803 1169 794 1163 q 811 1185 811 1176 q 803 1200 811 1193 q 769 1211 794 1207 q 696 1218 743 1215 q 571 1221 649 1221 q 447 1218 494 1221 q 375 1211 400 1215 q 342 1200 350 1207 q 333 1185 333 1193 z "},"B":{"ha":1153,"x_min":125,"x_max":1042,"o":"m 125 1007 l 125 1042 l 601 1042 q 738 1026 672 1042 q 851 978 803 1010 q 929 897 900 946 q 958 781 958 847 q 897 637 958 694 q 743 550 835 579 q 856 522 801 542 q 951 467 910 501 q 1017 385 992 433 q 1042 275 1042 338 q 1013 153 1042 206 q 935 67 983 101 q 821 17 886 33 q 685 0 756 0 l 125 0 l 125 35 l 269 35 l 269 1007 l 125 1007 m 517 1004 l 447 1004 l 447 554 l 517 554 q 710 603 657 554 q 764 782 764 651 q 710 956 764 907 q 517 1004 656 1004 m 847 274 q 792 462 847 407 q 600 517 738 517 l 447 517 l 447 38 l 600 38 q 792 90 738 38 q 847 274 847 142 z "},"C":{"ha":1069,"x_min":125,"x_max":944,"o":"m 944 1 l 910 1 l 910 203 q 785 31 869 90 q 578 -28 700 -28 q 236 111 347 -28 q 125 511 125 250 q 233 924 125 779 q 569 1069 340 1069 q 765 1008 686 1069 q 882 833 844 947 l 882 1042 l 917 1042 l 917 585 l 882 585 q 805 916 882 800 q 571 1032 728 1032 q 373 913 426 1032 q 319 510 319 793 q 375 128 319 243 q 578 13 431 13 q 820 115 731 13 q 910 432 910 218 l 944 432 l 944 1 z "},"Ć":{"ha":1069,"x_min":125,"x_max":944,"o":"m 944 1 l 910 1 l 910 203 q 785 31 869 90 q 578 -28 700 -28 q 236 111 347 -28 q 125 511 125 250 q 233 924 125 779 q 569 1069 340 1069 q 765 1008 686 1069 q 882 833 844 947 l 882 1042 l 917 1042 l 917 585 l 882 585 q 805 916 882 800 q 571 1032 728 1032 q 373 913 426 1032 q 319 510 319 793 q 375 128 319 243 q 578 13 431 13 q 820 115 731 13 q 910 432 910 218 l 944 432 l 944 1 m 882 1274 l 882 1186 q 754 1143 818 1158 q 616 1121 690 1128 q 449 1113 542 1114 q 236 1111 356 1111 l 236 1132 q 447 1150 356 1139 q 613 1178 539 1161 q 751 1218 686 1194 q 882 1274 815 1242 z "},"Ĉ":{"ha":1069,"x_min":125,"x_max":944,"o":"m 944 1 l 910 1 l 910 203 q 785 31 869 90 q 578 -28 700 -28 q 236 111 347 -28 q 125 511 125 250 q 233 924 125 779 q 569 1069 340 1069 q 765 1008 686 1069 q 882 833 844 947 l 882 1042 l 917 1042 l 917 585 l 882 585 q 805 916 882 800 q 571 1032 728 1032 q 373 913 426 1032 q 319 510 319 793 q 375 128 319 243 q 578 13 431 13 q 820 115 731 13 q 910 432 910 218 l 944 432 l 944 1 m 575 1301 q 651 1235 615 1264 q 723 1188 686 1207 q 803 1154 760 1168 q 901 1132 846 1140 l 901 1111 q 720 1142 790 1121 q 575 1221 650 1164 q 430 1142 500 1164 q 249 1111 360 1121 l 249 1132 q 347 1154 304 1140 q 427 1188 390 1168 q 499 1235 464 1207 q 575 1301 535 1264 z "},"Ç":{"ha":1069,"x_min":125,"x_max":944,"o":"m 944 1 l 910 1 l 910 203 q 785 31 869 90 q 578 -28 700 -28 q 236 111 347 -28 q 125 511 125 250 q 233 924 125 779 q 569 1069 340 1069 q 765 1008 686 1069 q 882 833 844 947 l 882 1042 l 917 1042 l 917 585 l 882 585 q 805 916 882 800 q 571 1032 728 1032 q 373 913 426 1032 q 319 510 319 793 q 375 128 319 243 q 578 13 431 13 q 820 115 731 13 q 910 432 910 218 l 944 432 l 944 1 m 864 -135 q 852 -168 864 -154 q 810 -191 840 -182 q 725 -204 779 -200 q 588 -208 671 -208 q 409 -200 481 -208 q 274 -164 338 -192 l 292 -128 q 419 -162 351 -154 q 586 -171 486 -171 q 711 -168 664 -171 q 784 -161 758 -165 q 818 -150 810 -157 q 826 -135 826 -143 q 817 -122 826 -128 q 783 -110 808 -115 q 712 -103 758 -106 q 590 -100 665 -100 q 467 -101 514 -100 q 376 -121 419 -103 l 363 -94 l 581 3 l 592 -22 l 482 -71 q 540 -67 513 -68 q 590 -65 568 -65 q 808 -81 751 -65 q 864 -135 864 -97 z "},"Č":{"ha":1069,"x_min":125,"x_max":944,"o":"m 944 1 l 910 1 l 910 203 q 785 31 869 90 q 578 -28 700 -28 q 236 111 347 -28 q 125 511 125 250 q 233 924 125 779 q 569 1069 340 1069 q 765 1008 686 1069 q 882 833 844 947 l 882 1042 l 917 1042 l 917 585 l 882 585 q 805 916 882 800 q 571 1032 728 1032 q 373 913 426 1032 q 319 510 319 793 q 375 128 319 243 q 578 13 431 13 q 820 115 731 13 q 910 432 910 218 l 944 432 l 944 1 m 575 1083 q 499 1149 535 1121 q 427 1197 464 1178 q 347 1231 390 1217 q 249 1253 304 1244 l 249 1274 q 430 1242 360 1264 q 575 1164 500 1221 q 720 1242 650 1221 q 901 1274 790 1264 l 901 1253 q 803 1231 846 1244 q 723 1197 760 1217 q 651 1149 686 1178 q 575 1083 615 1121 z "},"Ċ":{"ha":1069,"x_min":125,"x_max":944,"o":"m 944 1 l 910 1 l 910 203 q 785 31 869 90 q 578 -28 700 -28 q 236 111 347 -28 q 125 511 125 250 q 233 924 125 779 q 569 1069 340 1069 q 765 1008 686 1069 q 882 833 844 947 l 882 1042 l 917 1042 l 917 585 l 882 585 q 805 916 882 800 q 571 1032 728 1032 q 373 913 426 1032 q 319 510 319 793 q 375 128 319 243 q 578 13 431 13 q 820 115 731 13 q 910 432 910 218 l 944 432 l 944 1 m 574 1111 q 491 1123 518 1111 q 464 1157 464 1135 q 491 1194 464 1181 q 574 1208 518 1208 q 656 1194 629 1208 q 683 1157 683 1181 q 656 1123 683 1135 q 574 1111 629 1111 z "},"D":{"ha":1181,"x_min":125,"x_max":1056,"o":"m 125 1006 l 125 1042 l 557 1042 q 756 1013 664 1042 q 914 921 847 983 q 1018 759 981 858 q 1056 521 1056 660 q 1018 283 1056 382 q 915 121 981 183 q 758 29 849 58 q 561 0 667 0 l 125 0 l 125 35 l 283 35 l 283 1006 l 125 1006 m 531 1003 l 461 1003 l 461 39 l 533 39 q 686 56 624 39 q 788 124 749 74 q 844 270 826 175 q 861 519 861 365 q 843 769 861 674 q 786 917 825 865 q 684 985 747 968 q 531 1003 621 1003 z "},"E":{"ha":1125,"x_min":125,"x_max":972,"o":"m 661 281 l 661 510 l 447 510 l 447 38 l 692 38 q 815 48 767 38 q 890 84 863 58 q 927 155 917 110 q 938 269 938 200 l 938 401 l 972 401 l 972 0 l 125 0 l 125 35 l 269 35 l 269 1007 l 125 1007 l 125 1042 l 946 1042 l 946 640 l 911 640 l 911 786 q 902 895 911 853 q 869 962 893 938 q 803 995 846 986 q 693 1004 761 1004 l 447 1004 l 447 547 l 661 547 l 661 757 l 696 757 l 696 281 l 661 281 z "},"È":{"ha":1125,"x_min":125,"x_max":972,"o":"m 661 281 l 661 510 l 447 510 l 447 38 l 692 38 q 815 48 767 38 q 890 84 863 58 q 927 155 917 110 q 938 269 938 200 l 938 401 l 972 401 l 972 0 l 125 0 l 125 35 l 269 35 l 269 1007 l 125 1007 l 125 1042 l 946 1042 l 946 640 l 911 640 l 911 786 q 902 895 911 853 q 869 962 893 938 q 803 995 846 986 q 693 1004 761 1004 l 447 1004 l 447 547 l 661 547 l 661 757 l 696 757 l 696 281 l 661 281 m 296 1274 q 427 1218 363 1242 q 565 1178 492 1194 q 731 1150 639 1161 q 942 1132 822 1139 l 942 1111 q 729 1113 822 1111 q 562 1121 636 1114 q 424 1143 488 1128 q 296 1186 360 1158 l 296 1274 z "},"É":{"ha":1125,"x_min":125,"x_max":972,"o":"m 661 281 l 661 510 l 447 510 l 447 38 l 692 38 q 815 48 767 38 q 890 84 863 58 q 927 155 917 110 q 938 269 938 200 l 938 401 l 972 401 l 972 0 l 125 0 l 125 35 l 269 35 l 269 1007 l 125 1007 l 125 1042 l 946 1042 l 946 640 l 911 640 l 911 786 q 902 895 911 853 q 869 962 893 938 q 803 995 846 986 q 693 1004 761 1004 l 447 1004 l 447 547 l 661 547 l 661 757 l 696 757 l 696 281 l 661 281 m 910 1274 l 910 1186 q 782 1143 846 1158 q 644 1121 718 1128 q 476 1113 569 1114 q 264 1111 383 1111 l 264 1132 q 475 1150 383 1139 q 640 1178 567 1161 q 778 1218 714 1194 q 910 1274 843 1242 z "},"Ê":{"ha":1125,"x_min":125,"x_max":972,"o":"m 661 281 l 661 510 l 447 510 l 447 38 l 692 38 q 815 48 767 38 q 890 84 863 58 q 927 155 917 110 q 938 269 938 200 l 938 401 l 972 401 l 972 0 l 125 0 l 125 35 l 269 35 l 269 1007 l 125 1007 l 125 1042 l 946 1042 l 946 640 l 911 640 l 911 786 q 902 895 911 853 q 869 962 893 938 q 803 995 846 986 q 693 1004 761 1004 l 447 1004 l 447 547 l 661 547 l 661 757 l 696 757 l 696 281 l 661 281 m 603 1301 q 678 1235 643 1264 q 751 1188 714 1207 q 831 1154 788 1168 q 929 1132 874 1140 l 929 1111 q 748 1142 818 1121 q 603 1221 678 1164 q 458 1142 528 1164 q 276 1111 388 1121 l 276 1132 q 375 1154 332 1140 q 455 1188 418 1168 q 527 1235 492 1207 q 603 1301 563 1264 z "},"Ë":{"ha":1125,"x_min":125,"x_max":972,"o":"m 661 281 l 661 510 l 447 510 l 447 38 l 692 38 q 815 48 767 38 q 890 84 863 58 q 927 155 917 110 q 938 269 938 200 l 938 401 l 972 401 l 972 0 l 125 0 l 125 35 l 269 35 l 269 1007 l 125 1007 l 125 1042 l 946 1042 l 946 640 l 911 640 l 911 786 q 902 895 911 853 q 869 962 893 938 q 803 995 846 986 q 693 1004 761 1004 l 447 1004 l 447 547 l 661 547 l 661 757 l 696 757 l 696 281 l 661 281 m 410 1111 q 327 1123 354 1111 q 300 1157 300 1135 q 327 1194 300 1181 q 410 1208 354 1208 q 492 1194 465 1208 q 519 1157 519 1181 q 492 1123 519 1135 q 410 1111 465 1111 m 788 1111 q 705 1123 732 1111 q 678 1157 678 1135 q 705 1194 678 1181 q 788 1208 732 1208 q 870 1194 843 1208 q 897 1157 897 1181 q 870 1123 897 1135 q 788 1111 843 1111 z "},"Ĕ":{"ha":1125,"x_min":125,"x_max":972,"o":"m 661 281 l 661 510 l 447 510 l 447 38 l 692 38 q 815 48 767 38 q 890 84 863 58 q 927 155 917 110 q 938 269 938 200 l 938 401 l 972 401 l 972 0 l 125 0 l 125 35 l 269 35 l 269 1007 l 125 1007 l 125 1042 l 946 1042 l 946 640 l 911 640 l 911 786 q 902 895 911 853 q 869 962 893 938 q 803 995 846 986 q 693 1004 761 1004 l 447 1004 l 447 547 l 661 547 l 661 757 l 696 757 l 696 281 l 661 281 m 876 1254 q 865 1190 876 1217 q 822 1145 853 1163 q 738 1119 792 1128 q 600 1111 683 1111 q 463 1119 517 1111 q 378 1145 408 1128 q 335 1190 347 1163 q 324 1254 324 1217 l 361 1254 q 369 1216 361 1233 q 403 1187 378 1199 q 475 1169 428 1175 q 599 1163 522 1163 q 724 1169 676 1163 q 797 1187 771 1175 q 831 1216 822 1199 q 839 1254 839 1233 l 876 1254 z "},"Ě":{"ha":1125,"x_min":125,"x_max":972,"o":"m 661 281 l 661 510 l 447 510 l 447 38 l 692 38 q 815 48 767 38 q 890 84 863 58 q 927 155 917 110 q 938 269 938 200 l 938 401 l 972 401 l 972 0 l 125 0 l 125 35 l 269 35 l 269 1007 l 125 1007 l 125 1042 l 946 1042 l 946 640 l 911 640 l 911 786 q 902 895 911 853 q 869 962 893 938 q 803 995 846 986 q 693 1004 761 1004 l 447 1004 l 447 547 l 661 547 l 661 757 l 696 757 l 696 281 l 661 281 m 603 1083 q 527 1149 563 1121 q 455 1197 492 1178 q 375 1231 418 1217 q 276 1253 332 1244 l 276 1274 q 458 1242 388 1264 q 603 1164 528 1221 q 748 1242 678 1221 q 929 1274 818 1264 l 929 1253 q 831 1231 874 1244 q 751 1197 788 1217 q 678 1149 714 1178 q 603 1083 643 1121 z "},"Ē":{"ha":1125,"x_min":125,"x_max":972,"o":"m 661 281 l 661 510 l 447 510 l 447 38 l 692 38 q 815 48 767 38 q 890 84 863 58 q 927 155 917 110 q 938 269 938 200 l 938 401 l 972 401 l 972 0 l 125 0 l 125 35 l 269 35 l 269 1007 l 125 1007 l 125 1042 l 946 1042 l 946 640 l 911 640 l 911 786 q 902 895 911 853 q 869 962 893 938 q 803 995 846 986 q 693 1004 761 1004 l 447 1004 l 447 547 l 661 547 l 661 757 l 696 757 l 696 281 l 661 281 m 899 1146 l 307 1146 l 307 1190 l 899 1190 l 899 1146 z "},"Ė":{"ha":1125,"x_min":125,"x_max":972,"o":"m 661 281 l 661 510 l 447 510 l 447 38 l 692 38 q 815 48 767 38 q 890 84 863 58 q 927 155 917 110 q 938 269 938 200 l 938 401 l 972 401 l 972 0 l 125 0 l 125 35 l 269 35 l 269 1007 l 125 1007 l 125 1042 l 946 1042 l 946 640 l 911 640 l 911 786 q 902 895 911 853 q 869 962 893 938 q 803 995 846 986 q 693 1004 761 1004 l 447 1004 l 447 547 l 661 547 l 661 757 l 696 757 l 696 281 l 661 281 m 601 1111 q 519 1123 546 1111 q 492 1157 492 1135 q 519 1194 492 1181 q 601 1208 546 1208 q 684 1194 657 1208 q 711 1157 711 1181 q 684 1123 711 1135 q 601 1111 657 1111 z "},"F":{"ha":1042,"x_min":125,"x_max":917,"o":"m 125 35 l 269 35 l 269 1007 l 125 1007 l 125 1042 l 917 1042 l 917 571 l 882 571 l 882 772 q 872 887 882 842 q 834 958 861 932 q 759 994 807 983 q 636 1004 711 1004 l 447 1004 l 447 490 l 668 490 l 668 710 l 703 710 l 703 233 l 668 233 l 668 453 l 447 453 l 447 35 l 625 35 l 625 0 l 125 0 l 125 35 z "},"G":{"ha":1069,"x_min":125,"x_max":944,"o":"m 944 1 l 910 1 l 910 203 q 784 31 869 90 q 578 -28 699 -28 q 236 111 347 -28 q 125 511 125 250 q 233 924 125 779 q 569 1069 340 1069 q 756 1010 681 1069 q 868 839 832 950 l 868 1042 l 903 1042 l 903 585 l 868 585 q 794 916 868 800 q 571 1032 719 1032 q 373 913 426 1032 q 319 510 319 793 q 375 128 319 243 q 578 13 431 13 q 815 109 726 13 q 910 407 904 206 l 567 407 l 567 442 l 944 442 l 944 1 z "},"H":{"ha":1264,"x_min":125,"x_max":1139,"o":"m 592 35 l 592 0 l 125 0 l 125 35 l 269 35 l 269 1007 l 125 1007 l 125 1042 l 592 1042 l 592 1007 l 447 1007 l 447 561 l 817 561 l 817 1007 l 672 1007 l 672 1042 l 1139 1042 l 1139 1007 l 994 1007 l 994 35 l 1139 35 l 1139 0 l 672 0 l 672 35 l 817 35 l 817 524 l 447 524 l 447 35 l 592 35 z "},"I":{"ha":736,"x_min":125,"x_max":611,"o":"m 610 35 l 610 0 l 125 0 l 125 35 l 279 35 l 279 1007 l 125 1007 l 125 1042 l 611 1042 l 611 1008 l 457 1008 l 457 35 l 610 35 z "},"Ì":{"ha":736,"x_min":61,"x_max":707,"o":"m 610 35 l 610 0 l 125 0 l 125 35 l 279 35 l 279 1007 l 125 1007 l 125 1042 l 611 1042 l 611 1008 l 457 1008 l 457 35 l 610 35 m 61 1274 q 192 1218 128 1242 q 331 1178 257 1194 q 496 1150 404 1161 q 707 1132 588 1139 l 707 1111 q 494 1113 588 1111 q 327 1121 401 1114 q 189 1143 253 1128 q 61 1186 125 1158 l 61 1274 z "},"Í":{"ha":736,"x_min":29,"x_max":675,"o":"m 610 35 l 610 0 l 125 0 l 125 35 l 279 35 l 279 1007 l 125 1007 l 125 1042 l 611 1042 l 611 1008 l 457 1008 l 457 35 l 610 35 m 675 1274 l 675 1186 q 547 1143 611 1158 q 409 1121 483 1128 q 242 1113 335 1114 q 29 1111 149 1111 l 29 1132 q 240 1150 149 1139 q 406 1178 332 1161 q 544 1218 479 1194 q 675 1274 608 1242 z "},"Î":{"ha":736,"x_min":42,"x_max":694,"o":"m 610 35 l 610 0 l 125 0 l 125 35 l 279 35 l 279 1007 l 125 1007 l 125 1042 l 611 1042 l 611 1008 l 457 1008 l 457 35 l 610 35 m 368 1301 q 444 1235 408 1264 q 516 1188 479 1207 q 596 1154 553 1168 q 694 1132 639 1140 l 694 1111 q 513 1142 583 1121 q 368 1221 443 1164 q 223 1142 293 1164 q 42 1111 153 1121 l 42 1132 q 140 1154 97 1140 q 220 1188 183 1168 q 292 1235 257 1207 q 368 1301 328 1264 z "},"Ï":{"ha":736,"x_min":65,"x_max":663,"o":"m 610 35 l 610 0 l 125 0 l 125 35 l 279 35 l 279 1007 l 125 1007 l 125 1042 l 611 1042 l 611 1008 l 457 1008 l 457 35 l 610 35 m 175 1111 q 92 1123 119 1111 q 65 1157 65 1135 q 92 1194 65 1181 q 175 1208 119 1208 q 258 1194 231 1208 q 285 1157 285 1181 q 258 1123 285 1135 q 175 1111 231 1111 m 553 1111 q 470 1123 497 1111 q 443 1157 443 1135 q 470 1194 443 1181 q 553 1208 497 1208 q 635 1194 608 1208 q 663 1157 663 1181 q 635 1123 663 1135 q 553 1111 608 1111 z "},"Ĩ":{"ha":736,"x_min":96,"x_max":632,"o":"m 610 35 l 610 0 l 125 0 l 125 35 l 279 35 l 279 1007 l 125 1007 l 125 1042 l 611 1042 l 611 1008 l 457 1008 l 457 35 l 610 35 m 225 1244 q 301 1233 261 1244 q 378 1208 340 1222 q 452 1183 417 1194 q 515 1172 488 1172 q 570 1189 540 1172 q 600 1244 600 1206 l 632 1244 q 601 1146 632 1181 q 503 1111 571 1111 q 433 1122 469 1111 q 359 1147 396 1133 q 285 1172 322 1161 q 213 1183 247 1183 q 158 1167 188 1183 q 128 1111 128 1150 l 96 1111 q 126 1210 96 1175 q 225 1244 157 1244 z "},"Ĭ":{"ha":736,"x_min":89,"x_max":642,"o":"m 610 35 l 610 0 l 125 0 l 125 35 l 279 35 l 279 1007 l 125 1007 l 125 1042 l 611 1042 l 611 1008 l 457 1008 l 457 35 l 610 35 m 642 1254 q 630 1190 642 1217 q 588 1145 618 1163 q 503 1119 557 1128 q 365 1111 449 1111 q 228 1119 282 1111 q 143 1145 174 1128 q 101 1190 113 1163 q 89 1254 89 1217 l 126 1254 q 135 1216 126 1233 q 168 1187 143 1199 q 240 1169 193 1175 q 364 1163 288 1163 q 489 1169 442 1163 q 562 1187 536 1175 q 596 1216 588 1199 q 604 1254 604 1233 l 642 1254 z "},"Ī":{"ha":736,"x_min":72,"x_max":664,"o":"m 610 35 l 610 0 l 125 0 l 125 35 l 279 35 l 279 1007 l 125 1007 l 125 1042 l 611 1042 l 611 1008 l 457 1008 l 457 35 l 610 35 m 664 1146 l 72 1146 l 72 1190 l 664 1190 l 664 1146 z "},"İ":{"ha":736,"x_min":125,"x_max":611,"o":"m 610 35 l 610 0 l 125 0 l 125 35 l 279 35 l 279 1007 l 125 1007 l 125 1042 l 611 1042 l 611 1008 l 457 1008 l 457 35 l 610 35 m 367 1111 q 284 1123 311 1111 q 257 1157 257 1135 q 284 1194 257 1181 q 367 1208 311 1208 q 449 1194 422 1208 q 476 1157 476 1181 q 449 1123 476 1135 q 367 1111 422 1111 z "},"J":{"ha":821,"x_min":97,"x_max":751,"o":"m 282 10 q 341 28 317 10 q 379 90 365 46 q 399 206 393 133 q 406 386 406 278 l 406 1007 l 210 1007 l 210 1042 l 751 1042 l 751 1007 l 583 1007 l 583 388 q 562 191 583 271 q 503 63 540 111 q 414 -7 465 14 q 304 -28 363 -28 q 199 6 242 -28 q 132 99 157 39 l 132 0 l 97 0 l 97 393 l 132 393 l 132 321 q 171 94 132 179 q 282 10 210 10 z "},"K":{"ha":1153,"x_min":125,"x_max":1050,"o":"m 622 0 l 125 0 l 125 35 l 269 35 l 269 1006 l 125 1006 l 125 1042 l 594 1042 l 594 1006 l 447 1006 l 447 536 l 538 536 l 538 536 q 544 536 540 536 q 550 536 547 536 l 846 1007 l 717 1007 l 717 1042 l 1035 1042 l 1035 1007 l 893 1007 l 594 531 q 765 430 714 510 q 839 263 817 350 q 874 107 861 176 q 929 38 886 38 q 994 62 972 38 q 1015 143 1015 86 l 1015 292 l 1050 292 l 1050 143 q 1003 14 1050 56 q 868 -28 956 -28 q 715 55 751 -28 q 664 235 679 138 q 624 416 649 333 q 507 499 599 499 l 447 499 l 447 35 l 622 35 l 622 0 z "},"L":{"ha":1042,"x_min":125,"x_max":931,"o":"m 931 471 l 931 0 l 125 0 l 125 35 l 269 35 l 269 1007 l 126 1007 l 126 1042 l 618 1042 l 618 1007 l 447 1007 l 447 38 l 650 38 q 773 48 725 38 q 848 84 821 58 q 885 155 875 110 q 896 269 896 200 l 896 471 l 931 471 z "},"Ł":{"ha":1042,"x_min":97,"x_max":931,"o":"m 931 471 l 931 0 l 125 0 l 125 35 l 269 35 l 269 453 l 97 369 l 97 411 l 269 494 l 269 1007 l 126 1007 l 126 1042 l 618 1042 l 618 1007 l 447 1007 l 447 579 l 810 754 l 810 713 l 447 538 l 447 38 l 650 38 q 773 48 725 38 q 848 84 821 58 q 885 155 875 110 q 896 269 896 200 l 896 471 l 931 471 z "},"M":{"ha":1347,"x_min":97,"x_max":1250,"o":"m 404 35 l 404 0 l 97 0 l 97 35 l 208 35 l 306 1007 l 160 1007 l 160 1042 l 522 1042 l 668 346 l 829 1042 l 1172 1042 l 1172 1007 l 1043 1007 l 1135 35 l 1250 35 l 1250 0 l 810 0 l 810 35 l 958 35 l 867 1007 l 864 1007 l 625 -28 l 582 -28 l 583 -25 l 351 1007 l 349 1007 l 251 35 l 404 35 z "},"N":{"ha":1125,"x_min":125,"x_max":1028,"o":"m 471 0 l 125 0 l 125 35 l 256 35 l 256 1007 l 125 1007 l 125 1042 l 481 1042 l 860 344 l 860 1007 l 681 1007 l 681 1042 l 1028 1042 l 1028 1007 l 897 1007 l 897 -28 l 860 -28 l 860 -10 l 858 -28 l 294 1006 l 294 35 l 471 35 l 471 0 z "},"Ń":{"ha":1125,"x_min":125,"x_max":1028,"o":"m 471 0 l 125 0 l 125 35 l 256 35 l 256 1007 l 125 1007 l 125 1042 l 481 1042 l 860 344 l 860 1007 l 681 1007 l 681 1042 l 1028 1042 l 1028 1007 l 897 1007 l 897 -28 l 860 -28 l 860 -10 l 858 -28 l 294 1006 l 294 35 l 471 35 l 471 0 m 975 1274 l 975 1186 q 847 1143 911 1158 q 709 1121 783 1128 q 542 1113 635 1114 q 329 1111 449 1111 l 329 1132 q 540 1150 449 1139 q 706 1178 632 1161 q 844 1218 779 1194 q 975 1274 908 1242 z "},"Ñ":{"ha":1125,"x_min":125,"x_max":1028,"o":"m 471 0 l 125 0 l 125 35 l 256 35 l 256 1007 l 125 1007 l 125 1042 l 481 1042 l 860 344 l 860 1007 l 681 1007 l 681 1042 l 1028 1042 l 1028 1007 l 897 1007 l 897 -28 l 860 -28 l 860 -10 l 858 -28 l 294 1006 l 294 35 l 471 35 l 471 0 m 525 1244 q 601 1233 561 1244 q 678 1208 640 1222 q 752 1183 717 1194 q 815 1172 788 1172 q 870 1189 840 1172 q 900 1244 900 1206 l 932 1244 q 901 1146 932 1181 q 803 1111 871 1111 q 733 1122 769 1111 q 659 1147 696 1133 q 585 1172 622 1161 q 513 1183 547 1183 q 458 1167 488 1183 q 428 1111 428 1150 l 396 1111 q 426 1210 396 1175 q 525 1244 457 1244 z "},"Ň":{"ha":1125,"x_min":125,"x_max":1028,"o":"m 471 0 l 125 0 l 125 35 l 256 35 l 256 1007 l 125 1007 l 125 1042 l 481 1042 l 860 344 l 860 1007 l 681 1007 l 681 1042 l 1028 1042 l 1028 1007 l 897 1007 l 897 -28 l 860 -28 l 860 -10 l 858 -28 l 294 1006 l 294 35 l 471 35 l 471 0 m 668 1083 q 592 1149 628 1121 q 520 1197 557 1178 q 440 1231 483 1217 q 342 1253 397 1244 l 342 1274 q 523 1242 453 1264 q 668 1164 593 1221 q 813 1242 743 1221 q 994 1274 883 1264 l 994 1253 q 896 1231 939 1244 q 816 1197 853 1217 q 744 1149 779 1178 q 668 1083 708 1121 z "},"O":{"ha":1153,"x_min":125,"x_max":1028,"o":"m 575 1069 q 914 924 800 1069 q 1028 511 1028 779 q 911 112 1028 251 q 575 -28 794 -28 q 240 112 356 -28 q 125 511 125 251 q 239 924 125 779 q 575 1069 353 1069 m 575 1035 q 375 914 431 1035 q 319 510 319 793 q 376 124 319 242 q 575 7 433 7 q 775 124 717 7 q 833 510 833 242 q 776 914 833 793 q 575 1035 719 1035 z "},"Ò":{"ha":1153,"x_min":125,"x_max":1028,"o":"m 575 1069 q 914 924 800 1069 q 1028 511 1028 779 q 911 112 1028 251 q 575 -28 794 -28 q 240 112 356 -28 q 125 511 125 251 q 239 924 125 779 q 575 1069 353 1069 m 575 1035 q 375 914 431 1035 q 319 510 319 793 q 376 124 319 242 q 575 7 433 7 q 775 124 717 7 q 833 510 833 242 q 776 914 833 793 q 575 1035 719 1035 m 268 1274 q 399 1218 335 1242 q 538 1178 464 1194 q 703 1150 611 1161 q 914 1132 794 1139 l 914 1111 q 701 1113 794 1111 q 534 1121 608 1114 q 396 1143 460 1128 q 268 1186 332 1158 l 268 1274 z "},"Ó":{"ha":1153,"x_min":125,"x_max":1028,"o":"m 575 1069 q 914 924 800 1069 q 1028 511 1028 779 q 911 112 1028 251 q 575 -28 794 -28 q 240 112 356 -28 q 125 511 125 251 q 239 924 125 779 q 575 1069 353 1069 m 575 1035 q 375 914 431 1035 q 319 510 319 793 q 376 124 319 242 q 575 7 433 7 q 775 124 717 7 q 833 510 833 242 q 776 914 833 793 q 575 1035 719 1035 m 882 1274 l 882 1186 q 754 1143 818 1158 q 616 1121 690 1128 q 449 1113 542 1114 q 236 1111 356 1111 l 236 1132 q 447 1150 356 1139 q 613 1178 539 1161 q 751 1218 686 1194 q 882 1274 815 1242 z "},"Ô":{"ha":1153,"x_min":125,"x_max":1028,"o":"m 575 1069 q 914 924 800 1069 q 1028 511 1028 779 q 911 112 1028 251 q 575 -28 794 -28 q 240 112 356 -28 q 125 511 125 251 q 239 924 125 779 q 575 1069 353 1069 m 575 1035 q 375 914 431 1035 q 319 510 319 793 q 376 124 319 242 q 575 7 433 7 q 775 124 717 7 q 833 510 833 242 q 776 914 833 793 q 575 1035 719 1035 m 575 1301 q 651 1235 615 1264 q 723 1188 686 1207 q 803 1154 760 1168 q 901 1132 846 1140 l 901 1111 q 720 1142 790 1121 q 575 1221 650 1164 q 430 1142 500 1164 q 249 1111 360 1121 l 249 1132 q 347 1154 304 1140 q 427 1188 390 1168 q 499 1235 464 1207 q 575 1301 535 1264 z "},"Õ":{"ha":1153,"x_min":125,"x_max":1028,"o":"m 575 1069 q 914 924 800 1069 q 1028 511 1028 779 q 911 112 1028 251 q 575 -28 794 -28 q 240 112 356 -28 q 125 511 125 251 q 239 924 125 779 q 575 1069 353 1069 m 575 1035 q 375 914 431 1035 q 319 510 319 793 q 376 124 319 242 q 575 7 433 7 q 775 124 717 7 q 833 510 833 242 q 776 914 833 793 q 575 1035 719 1035 m 432 1244 q 508 1233 468 1244 q 585 1208 547 1222 q 659 1183 624 1194 q 722 1172 694 1172 q 777 1189 747 1172 q 807 1244 807 1206 l 839 1244 q 808 1146 839 1181 q 710 1111 778 1111 q 640 1122 676 1111 q 566 1147 603 1133 q 492 1172 529 1161 q 419 1183 454 1183 q 365 1167 394 1183 q 335 1111 335 1150 l 303 1111 q 333 1210 303 1175 q 432 1244 364 1244 z "},"Ö":{"ha":1153,"x_min":125,"x_max":1028,"o":"m 575 1069 q 914 924 800 1069 q 1028 511 1028 779 q 911 112 1028 251 q 575 -28 794 -28 q 240 112 356 -28 q 125 511 125 251 q 239 924 125 779 q 575 1069 353 1069 m 575 1035 q 375 914 431 1035 q 319 510 319 793 q 376 124 319 242 q 575 7 433 7 q 775 124 717 7 q 833 510 833 242 q 776 914 833 793 q 575 1035 719 1035 m 382 1111 q 299 1123 326 1111 q 272 1157 272 1135 q 299 1194 272 1181 q 382 1208 326 1208 q 465 1194 438 1208 q 492 1157 492 1181 q 465 1123 492 1135 q 382 1111 438 1111 m 760 1111 q 677 1123 704 1111 q 650 1157 650 1135 q 677 1194 650 1181 q 760 1208 704 1208 q 842 1194 815 1208 q 869 1157 869 1181 q 842 1123 869 1135 q 760 1111 815 1111 z "},"Ŏ":{"ha":1153,"x_min":125,"x_max":1028,"o":"m 575 1069 q 914 924 800 1069 q 1028 511 1028 779 q 911 112 1028 251 q 575 -28 794 -28 q 240 112 356 -28 q 125 511 125 251 q 239 924 125 779 q 575 1069 353 1069 m 575 1035 q 375 914 431 1035 q 319 510 319 793 q 376 124 319 242 q 575 7 433 7 q 775 124 717 7 q 833 510 833 242 q 776 914 833 793 q 575 1035 719 1035 m 849 1254 q 837 1190 849 1217 q 794 1145 825 1163 q 710 1119 764 1128 q 572 1111 656 1111 q 435 1119 489 1111 q 350 1145 381 1128 q 308 1190 319 1163 q 296 1254 296 1217 l 333 1254 q 342 1216 333 1233 q 375 1187 350 1199 q 447 1169 400 1175 q 571 1163 494 1163 q 696 1169 649 1163 q 769 1187 743 1175 q 803 1216 794 1199 q 811 1254 811 1233 l 849 1254 z "},"Ō":{"ha":1153,"x_min":125,"x_max":1028,"o":"m 575 1069 q 914 924 800 1069 q 1028 511 1028 779 q 911 112 1028 251 q 575 -28 794 -28 q 240 112 356 -28 q 125 511 125 251 q 239 924 125 779 q 575 1069 353 1069 m 575 1035 q 375 914 431 1035 q 319 510 319 793 q 376 124 319 242 q 575 7 433 7 q 775 124 717 7 q 833 510 833 242 q 776 914 833 793 q 575 1035 719 1035 m 871 1146 l 279 1146 l 279 1190 l 871 1190 l 871 1146 z "},"Ő":{"ha":1153,"x_min":125,"x_max":1028,"o":"m 575 1069 q 914 924 800 1069 q 1028 511 1028 779 q 911 112 1028 251 q 575 -28 794 -28 q 240 112 356 -28 q 125 511 125 251 q 239 924 125 779 q 575 1069 353 1069 m 575 1035 q 375 914 431 1035 q 319 510 319 793 q 376 124 319 242 q 575 7 433 7 q 775 124 717 7 q 833 510 833 242 q 776 914 833 793 q 575 1035 719 1035 m 563 1274 l 563 1186 q 422 1125 494 1139 q 236 1111 349 1111 l 236 1132 q 417 1175 342 1139 q 563 1274 492 1211 m 882 1274 l 882 1186 q 741 1125 814 1139 q 556 1111 668 1111 l 556 1132 q 736 1175 661 1139 q 882 1274 811 1211 z "},"P":{"ha":1085,"x_min":125,"x_max":1001,"o":"m 125 35 l 269 35 l 269 1007 l 125 1007 l 125 1042 l 657 1042 q 788 1024 725 1042 q 898 969 851 1006 q 973 877 944 933 q 1001 746 1001 821 q 970 613 1001 669 q 889 519 939 556 q 774 464 839 482 q 644 446 710 446 l 447 446 l 447 35 l 658 35 l 658 0 l 125 0 l 125 35 m 572 1004 l 447 1004 l 447 483 l 572 483 q 754 543 701 483 q 807 747 807 603 q 755 947 807 890 q 572 1004 703 1004 z "},"Q":{"ha":1153,"x_min":125,"x_max":1081,"o":"m 575 1069 q 914 924 800 1069 q 1028 511 1028 779 q 976 219 1028 339 q 828 38 925 99 q 853 -80 842 -22 q 877 -182 864 -137 q 910 -254 890 -226 q 960 -282 929 -282 q 1024 -258 1003 -282 q 1046 -176 1046 -233 l 1046 -28 l 1081 -28 l 1081 -176 q 1033 -306 1081 -264 q 899 -347 986 -347 q 806 -319 842 -347 q 747 -244 769 -290 q 712 -137 724 -197 q 690 -17 700 -78 q 635 -25 664 -22 q 575 -28 606 -28 q 240 112 356 -28 q 125 511 125 251 q 239 924 125 779 q 575 1069 353 1069 m 528 354 q 695 297 635 354 q 790 157 756 239 q 823 305 813 217 q 833 510 833 393 q 776 914 833 793 q 575 1035 719 1035 q 375 914 431 1035 q 319 510 319 793 q 326 342 319 417 q 346 210 332 267 q 408 313 357 271 q 528 354 458 354 m 381 174 q 392 110 381 142 q 426 56 404 78 q 491 19 454 31 q 575 7 528 7 q 633 13 606 7 q 683 28 661 18 q 664 138 675 85 q 634 230 653 190 q 585 294 615 269 q 510 318 556 318 q 413 274 444 318 q 381 174 381 229 z "},"R":{"ha":1204,"x_min":125,"x_max":1107,"o":"m 125 35 l 269 35 l 269 1007 l 125 1007 l 125 1042 l 672 1042 q 808 1026 743 1042 q 922 976 874 1010 q 1000 892 971 943 q 1029 774 1029 842 q 997 653 1029 704 q 913 568 965 601 q 795 518 861 535 q 661 501 729 501 q 796 388 754 465 q 861 233 838 311 q 908 97 885 156 q 986 38 931 38 q 1051 62 1029 38 q 1072 143 1072 86 l 1072 292 l 1107 292 l 1107 143 q 1060 14 1107 56 q 925 -28 1013 -28 q 762 55 803 -28 q 701 237 721 138 q 648 419 681 336 q 508 501 615 501 l 447 501 l 447 35 l 572 35 l 572 0 l 125 0 l 125 35 m 588 1004 l 447 1004 l 447 539 l 588 539 q 689 547 643 539 q 767 580 735 556 q 817 651 799 604 q 835 775 835 699 q 817 897 835 851 q 767 967 799 943 q 689 997 735 990 q 588 1004 643 1004 z "},"S":{"ha":1008,"x_min":139,"x_max":869,"o":"m 139 463 l 174 463 l 174 418 q 201 249 174 325 q 276 120 229 174 q 384 38 322 67 q 514 10 446 10 q 651 56 611 10 q 690 183 690 103 q 640 347 690 289 q 465 457 590 406 q 240 594 307 524 q 174 790 174 665 q 200 911 174 858 q 269 999 226 964 q 364 1051 311 1033 q 468 1069 417 1069 q 621 1023 550 1069 q 731 876 692 976 l 731 1042 l 765 1042 l 765 663 l 731 663 l 731 679 q 710 831 731 765 q 656 942 690 897 q 578 1009 622 986 q 489 1032 535 1032 q 377 990 414 1032 q 340 847 340 947 q 352 764 340 799 q 390 702 364 729 q 461 653 417 675 q 571 606 506 631 q 719 533 661 571 q 810 451 776 494 q 856 357 843 407 q 869 250 869 307 q 842 128 869 181 q 766 42 814 76 q 653 -10 718 7 q 518 -28 589 -28 q 311 39 404 -28 q 174 221 218 106 l 174 0 l 139 0 l 139 463 z "},"Ś":{"ha":1008,"x_min":133,"x_max":869,"o":"m 139 463 l 174 463 l 174 418 q 201 249 174 325 q 276 120 229 174 q 384 38 322 67 q 514 10 446 10 q 651 56 611 10 q 690 183 690 103 q 640 347 690 289 q 465 457 590 406 q 240 594 307 524 q 174 790 174 665 q 200 911 174 858 q 269 999 226 964 q 364 1051 311 1033 q 468 1069 417 1069 q 621 1023 550 1069 q 731 876 692 976 l 731 1042 l 765 1042 l 765 663 l 731 663 l 731 679 q 710 831 731 765 q 656 942 690 897 q 578 1009 622 986 q 489 1032 535 1032 q 377 990 414 1032 q 340 847 340 947 q 352 764 340 799 q 390 702 364 729 q 461 653 417 675 q 571 606 506 631 q 719 533 661 571 q 810 451 776 494 q 856 357 843 407 q 869 250 869 307 q 842 128 869 181 q 766 42 814 76 q 653 -10 718 7 q 518 -28 589 -28 q 311 39 404 -28 q 174 221 218 106 l 174 0 l 139 0 l 139 463 m 779 1274 l 779 1186 q 651 1143 715 1158 q 513 1121 588 1128 q 346 1113 439 1114 q 133 1111 253 1111 l 133 1132 q 344 1150 253 1139 q 510 1178 436 1161 q 648 1218 583 1194 q 779 1274 713 1242 z "},"Ŝ":{"ha":1008,"x_min":139,"x_max":869,"o":"m 139 463 l 174 463 l 174 418 q 201 249 174 325 q 276 120 229 174 q 384 38 322 67 q 514 10 446 10 q 651 56 611 10 q 690 183 690 103 q 640 347 690 289 q 465 457 590 406 q 240 594 307 524 q 174 790 174 665 q 200 911 174 858 q 269 999 226 964 q 364 1051 311 1033 q 468 1069 417 1069 q 621 1023 550 1069 q 731 876 692 976 l 731 1042 l 765 1042 l 765 663 l 731 663 l 731 679 q 710 831 731 765 q 656 942 690 897 q 578 1009 622 986 q 489 1032 535 1032 q 377 990 414 1032 q 340 847 340 947 q 352 764 340 799 q 390 702 364 729 q 461 653 417 675 q 571 606 506 631 q 719 533 661 571 q 810 451 776 494 q 856 357 843 407 q 869 250 869 307 q 842 128 869 181 q 766 42 814 76 q 653 -10 718 7 q 518 -28 589 -28 q 311 39 404 -28 q 174 221 218 106 l 174 0 l 139 0 l 139 463 m 472 1301 q 548 1235 513 1264 q 620 1188 583 1207 q 700 1154 657 1168 q 799 1132 743 1140 l 799 1111 q 617 1142 688 1121 q 472 1221 547 1164 q 327 1142 397 1164 q 146 1111 257 1121 l 146 1132 q 244 1154 201 1140 q 324 1188 288 1168 q 397 1235 361 1207 q 472 1301 432 1264 z "},"Š":{"ha":1008,"x_min":139,"x_max":869,"o":"m 139 463 l 174 463 l 174 418 q 201 249 174 325 q 276 120 229 174 q 384 38 322 67 q 514 10 446 10 q 651 56 611 10 q 690 183 690 103 q 640 347 690 289 q 465 457 590 406 q 240 594 307 524 q 174 790 174 665 q 200 911 174 858 q 269 999 226 964 q 364 1051 311 1033 q 468 1069 417 1069 q 621 1023 550 1069 q 731 876 692 976 l 731 1042 l 765 1042 l 765 663 l 731 663 l 731 679 q 710 831 731 765 q 656 942 690 897 q 578 1009 622 986 q 489 1032 535 1032 q 377 990 414 1032 q 340 847 340 947 q 352 764 340 799 q 390 702 364 729 q 461 653 417 675 q 571 606 506 631 q 719 533 661 571 q 810 451 776 494 q 856 357 843 407 q 869 250 869 307 q 842 128 869 181 q 766 42 814 76 q 653 -10 718 7 q 518 -28 589 -28 q 311 39 404 -28 q 174 221 218 106 l 174 0 l 139 0 l 139 463 m 472 1083 q 397 1149 432 1121 q 324 1197 361 1178 q 244 1231 288 1217 q 146 1253 201 1244 l 146 1274 q 327 1242 257 1264 q 472 1164 397 1221 q 617 1242 547 1221 q 799 1274 688 1264 l 799 1253 q 700 1231 743 1244 q 620 1197 657 1217 q 548 1149 583 1178 q 472 1083 513 1121 z "},"T":{"ha":1014,"x_min":83,"x_max":931,"o":"m 276 0 l 276 35 l 418 35 l 418 1004 l 336 1004 q 161 958 204 1004 q 118 772 118 911 l 118 599 l 83 599 l 83 1042 l 931 1042 l 931 599 l 896 599 l 896 772 q 853 958 896 911 q 678 1004 810 1004 l 596 1004 l 596 35 l 738 35 l 738 0 l 276 0 z "},"U":{"ha":1181,"x_min":125,"x_max":1083,"o":"m 954 432 q 874 95 954 218 q 615 -28 793 -28 q 349 74 442 -28 q 256 389 256 175 l 256 1007 l 125 1007 l 125 1042 l 581 1042 l 581 1007 l 431 1007 l 431 388 q 442 205 431 276 q 477 92 453 133 q 541 36 501 51 q 638 22 581 21 q 842 124 772 24 q 911 432 911 224 l 911 1007 l 778 1007 l 778 1042 l 1083 1042 l 1083 1007 l 954 1007 l 954 432 z "},"Ù":{"ha":1181,"x_min":125,"x_max":1083,"o":"m 954 432 q 874 95 954 218 q 615 -28 793 -28 q 349 74 442 -28 q 256 389 256 175 l 256 1007 l 125 1007 l 125 1042 l 581 1042 l 581 1007 l 431 1007 l 431 388 q 442 205 431 276 q 477 92 453 133 q 541 36 501 51 q 638 22 581 21 q 842 124 772 24 q 911 432 911 224 l 911 1007 l 778 1007 l 778 1042 l 1083 1042 l 1083 1007 l 954 1007 l 954 432 m 340 1274 q 472 1218 407 1242 q 610 1178 536 1194 q 775 1150 683 1161 q 986 1132 867 1139 l 986 1111 q 774 1113 867 1111 q 606 1121 681 1114 q 468 1143 532 1128 q 340 1186 404 1158 l 340 1274 z "},"Ú":{"ha":1181,"x_min":125,"x_max":1083,"o":"m 954 432 q 874 95 954 218 q 615 -28 793 -28 q 349 74 442 -28 q 256 389 256 175 l 256 1007 l 125 1007 l 125 1042 l 581 1042 l 581 1007 l 431 1007 l 431 388 q 442 205 431 276 q 477 92 453 133 q 541 36 501 51 q 638 22 581 21 q 842 124 772 24 q 911 432 911 224 l 911 1007 l 778 1007 l 778 1042 l 1083 1042 l 1083 1007 l 954 1007 l 954 432 m 954 1274 l 954 1186 q 826 1143 890 1158 q 688 1121 763 1128 q 521 1113 614 1114 q 308 1111 428 1111 l 308 1132 q 519 1150 428 1139 q 685 1178 611 1161 q 823 1218 758 1194 q 954 1274 888 1242 z "},"Û":{"ha":1181,"x_min":125,"x_max":1083,"o":"m 954 432 q 874 95 954 218 q 615 -28 793 -28 q 349 74 442 -28 q 256 389 256 175 l 256 1007 l 125 1007 l 125 1042 l 581 1042 l 581 1007 l 431 1007 l 431 388 q 442 205 431 276 q 477 92 453 133 q 541 36 501 51 q 638 22 581 21 q 842 124 772 24 q 911 432 911 224 l 911 1007 l 778 1007 l 778 1042 l 1083 1042 l 1083 1007 l 954 1007 l 954 432 m 647 1301 q 723 1235 688 1264 q 795 1188 758 1207 q 875 1154 832 1168 q 974 1132 918 1140 l 974 1111 q 792 1142 863 1121 q 647 1221 722 1164 q 502 1142 572 1164 q 321 1111 432 1121 l 321 1132 q 419 1154 376 1140 q 499 1188 463 1168 q 572 1235 536 1207 q 647 1301 607 1264 z "},"Ü":{"ha":1181,"x_min":125,"x_max":1083,"o":"m 954 432 q 874 95 954 218 q 615 -28 793 -28 q 349 74 442 -28 q 256 389 256 175 l 256 1007 l 125 1007 l 125 1042 l 581 1042 l 581 1007 l 431 1007 l 431 388 q 442 205 431 276 q 477 92 453 133 q 541 36 501 51 q 638 22 581 21 q 842 124 772 24 q 911 432 911 224 l 911 1007 l 778 1007 l 778 1042 l 1083 1042 l 1083 1007 l 954 1007 l 954 432 m 454 1111 q 372 1123 399 1111 q 344 1157 344 1135 q 372 1194 344 1181 q 454 1208 399 1208 q 537 1194 510 1208 q 564 1157 564 1181 q 537 1123 564 1135 q 454 1111 510 1111 m 832 1111 q 749 1123 776 1111 q 722 1157 722 1135 q 749 1194 722 1181 q 832 1208 776 1208 q 915 1194 888 1208 q 942 1157 942 1181 q 915 1123 942 1135 q 832 1111 888 1111 z "},"Ũ":{"ha":1181,"x_min":125,"x_max":1083,"o":"m 954 432 q 874 95 954 218 q 615 -28 793 -28 q 349 74 442 -28 q 256 389 256 175 l 256 1007 l 125 1007 l 125 1042 l 581 1042 l 581 1007 l 431 1007 l 431 388 q 442 205 431 276 q 477 92 453 133 q 541 36 501 51 q 638 22 581 21 q 842 124 772 24 q 911 432 911 224 l 911 1007 l 778 1007 l 778 1042 l 1083 1042 l 1083 1007 l 954 1007 l 954 432 m 504 1244 q 580 1233 540 1244 q 658 1208 619 1222 q 731 1183 696 1194 q 794 1172 767 1172 q 849 1189 819 1172 q 879 1244 879 1206 l 911 1244 q 881 1146 911 1181 q 782 1111 850 1111 q 712 1122 749 1111 q 638 1147 675 1133 q 564 1172 601 1161 q 492 1183 526 1183 q 437 1167 467 1183 q 407 1111 407 1150 l 375 1111 q 406 1210 375 1175 q 504 1244 436 1244 z "},"Ŭ":{"ha":1181,"x_min":125,"x_max":1083,"o":"m 954 432 q 874 95 954 218 q 615 -28 793 -28 q 349 74 442 -28 q 256 389 256 175 l 256 1007 l 125 1007 l 125 1042 l 581 1042 l 581 1007 l 431 1007 l 431 388 q 442 205 431 276 q 477 92 453 133 q 541 36 501 51 q 638 22 581 21 q 842 124 772 24 q 911 432 911 224 l 911 1007 l 778 1007 l 778 1042 l 1083 1042 l 1083 1007 l 954 1007 l 954 432 m 921 1254 q 909 1190 921 1217 q 867 1145 897 1163 q 782 1119 836 1128 q 644 1111 728 1111 q 507 1119 561 1111 q 422 1145 453 1128 q 380 1190 392 1163 q 368 1254 368 1217 l 406 1254 q 414 1216 406 1233 q 447 1187 422 1199 q 519 1169 472 1175 q 643 1163 567 1163 q 768 1169 721 1163 q 841 1187 815 1175 q 875 1216 867 1199 q 883 1254 883 1233 l 921 1254 z "},"Ū":{"ha":1181,"x_min":125,"x_max":1083,"o":"m 954 432 q 874 95 954 218 q 615 -28 793 -28 q 349 74 442 -28 q 256 389 256 175 l 256 1007 l 125 1007 l 125 1042 l 581 1042 l 581 1007 l 431 1007 l 431 388 q 442 205 431 276 q 477 92 453 133 q 541 36 501 51 q 638 22 581 21 q 842 124 772 24 q 911 432 911 224 l 911 1007 l 778 1007 l 778 1042 l 1083 1042 l 1083 1007 l 954 1007 l 954 432 m 943 1146 l 351 1146 l 351 1190 l 943 1190 l 943 1146 z "},"Ů":{"ha":1181,"x_min":125,"x_max":1083,"o":"m 954 432 q 874 95 954 218 q 615 -28 793 -28 q 349 74 442 -28 q 256 389 256 175 l 256 1007 l 125 1007 l 125 1042 l 581 1042 l 581 1007 l 431 1007 l 431 388 q 442 205 431 276 q 477 92 453 133 q 541 36 501 51 q 638 22 581 21 q 842 124 772 24 q 911 432 911 224 l 911 1007 l 778 1007 l 778 1042 l 1083 1042 l 1083 1007 l 954 1007 l 954 432 m 921 1185 q 909 1151 921 1165 q 867 1128 897 1138 q 782 1115 836 1119 q 644 1111 728 1111 q 507 1115 561 1111 q 422 1128 453 1119 q 380 1151 392 1138 q 368 1185 368 1165 q 380 1218 368 1204 q 422 1241 392 1232 q 507 1254 453 1250 q 644 1258 561 1258 q 782 1254 728 1258 q 867 1241 836 1250 q 909 1218 897 1232 q 921 1185 921 1204 m 406 1185 q 414 1169 406 1176 q 447 1158 422 1163 q 519 1151 472 1154 q 643 1149 567 1149 q 768 1151 721 1149 q 841 1158 815 1154 q 875 1169 867 1163 q 883 1185 883 1176 q 875 1200 883 1193 q 841 1211 867 1207 q 768 1218 815 1215 q 643 1221 721 1221 q 519 1218 567 1221 q 447 1211 472 1215 q 414 1200 422 1207 q 406 1185 406 1193 z "},"Ű":{"ha":1181,"x_min":125,"x_max":1083,"o":"m 954 432 q 874 95 954 218 q 615 -28 793 -28 q 349 74 442 -28 q 256 389 256 175 l 256 1007 l 125 1007 l 125 1042 l 581 1042 l 581 1007 l 431 1007 l 431 388 q 442 205 431 276 q 477 92 453 133 q 541 36 501 51 q 638 22 581 21 q 842 124 772 24 q 911 432 911 224 l 911 1007 l 778 1007 l 778 1042 l 1083 1042 l 1083 1007 l 954 1007 l 954 432 m 635 1274 l 635 1186 q 494 1125 567 1139 q 308 1111 421 1111 l 308 1132 q 489 1175 414 1139 q 635 1274 564 1211 m 954 1274 l 954 1186 q 813 1125 886 1139 q 628 1111 740 1111 l 628 1132 q 808 1175 733 1139 q 954 1274 883 1211 z "},"V":{"ha":1069,"x_min":28,"x_max":1042,"o":"m 635 0 l 442 0 l 142 1007 l 28 1007 l 28 1042 l 489 1042 l 489 1007 l 318 1007 l 606 43 l 888 1007 l 714 1007 l 714 1042 l 1042 1042 l 1042 1007 l 929 1007 l 635 0 z "},"W":{"ha":1250,"x_min":56,"x_max":1208,"o":"m 508 0 l 293 0 l 172 1007 l 56 1007 l 56 1042 l 1208 1042 l 1208 1007 l 1096 1007 l 969 0 l 753 0 l 639 611 l 508 0 m 681 1007 l 349 1007 l 468 13 l 681 1007 m 724 1007 l 928 13 l 1053 1007 l 724 1007 z "},"X":{"ha":1153,"x_min":97,"x_max":1056,"o":"m 444 0 l 97 0 l 97 35 l 219 35 l 494 500 l 213 1007 l 97 1007 l 97 1042 l 589 1042 l 589 1007 l 413 1007 l 638 600 l 879 1007 l 753 1007 l 753 1042 l 1056 1042 l 1056 1007 l 925 1007 l 661 560 l 951 35 l 1056 35 l 1056 0 l 608 0 l 608 35 l 754 35 l 518 460 l 267 35 l 444 35 l 444 0 z "},"Y":{"ha":1153,"x_min":83,"x_max":1069,"o":"m 861 0 l 292 0 l 292 35 l 488 35 l 488 294 l 217 1007 l 83 1007 l 83 1042 l 1069 1042 l 1069 1007 l 938 1007 l 665 319 l 665 35 l 861 35 l 861 0 m 638 343 l 897 1007 l 410 1007 l 638 343 z "},"Ý":{"ha":1153,"x_min":83,"x_max":1069,"o":"m 861 0 l 292 0 l 292 35 l 488 35 l 488 294 l 217 1007 l 83 1007 l 83 1042 l 1069 1042 l 1069 1007 l 938 1007 l 665 319 l 665 35 l 861 35 l 861 0 m 638 343 l 897 1007 l 410 1007 l 638 343 m 960 1274 l 960 1186 q 832 1143 896 1158 q 694 1121 768 1128 q 526 1113 619 1114 q 314 1111 433 1111 l 314 1132 q 525 1150 433 1139 q 690 1178 617 1161 q 828 1218 764 1194 q 960 1274 893 1242 z "},"Ŷ":{"ha":1153,"x_min":83,"x_max":1069,"o":"m 861 0 l 292 0 l 292 35 l 488 35 l 488 294 l 217 1007 l 83 1007 l 83 1042 l 1069 1042 l 1069 1007 l 938 1007 l 665 319 l 665 35 l 861 35 l 861 0 m 638 343 l 897 1007 l 410 1007 l 638 343 m 642 1301 q 717 1235 682 1264 q 790 1188 753 1207 q 869 1154 826 1168 q 968 1132 913 1140 l 968 1111 q 787 1142 857 1121 q 642 1221 717 1164 q 497 1142 567 1164 q 315 1111 426 1121 l 315 1132 q 414 1154 371 1140 q 494 1188 457 1168 q 566 1235 531 1207 q 642 1301 601 1264 z "},"Ÿ":{"ha":1153,"x_min":83,"x_max":1069,"o":"m 861 0 l 292 0 l 292 35 l 488 35 l 488 294 l 217 1007 l 83 1007 l 83 1042 l 1069 1042 l 1069 1007 l 938 1007 l 665 319 l 665 35 l 861 35 l 861 0 m 638 343 l 897 1007 l 410 1007 l 638 343 m 443 1111 q 360 1123 388 1111 q 333 1157 333 1135 q 360 1194 333 1181 q 443 1208 388 1208 q 526 1194 499 1208 q 553 1157 553 1181 q 526 1123 553 1135 q 443 1111 499 1111 m 821 1111 q 738 1123 765 1111 q 711 1157 711 1135 q 738 1194 711 1181 q 821 1208 765 1208 q 903 1194 876 1208 q 931 1157 931 1181 q 903 1123 931 1135 q 821 1111 876 1111 z "},"Ỳ":{"ha":1153,"x_min":83,"x_max":1069,"o":"m 861 0 l 292 0 l 292 35 l 488 35 l 488 294 l 217 1007 l 83 1007 l 83 1042 l 1069 1042 l 1069 1007 l 938 1007 l 665 319 l 665 35 l 861 35 l 861 0 m 638 343 l 897 1007 l 410 1007 l 638 343 m 329 1274 q 460 1218 396 1242 q 599 1178 525 1194 q 764 1150 672 1161 q 975 1132 856 1139 l 975 1111 q 763 1113 856 1111 q 595 1121 669 1114 q 457 1143 521 1128 q 329 1186 393 1158 l 329 1274 z "},"Z":{"ha":1058,"x_min":163,"x_max":913,"o":"m 188 474 l 188 1042 l 913 1042 l 913 1004 l 357 38 l 624 38 q 747 48 699 38 q 822 84 794 58 q 859 155 849 110 q 869 269 869 200 l 869 624 l 904 624 l 904 0 l 163 0 l 163 38 l 713 1004 l 468 1004 q 345 994 393 1004 q 270 958 297 983 q 233 887 243 932 q 222 772 222 842 l 222 474 l 188 474 z "},"Ź":{"ha":1058,"x_min":163,"x_max":913,"o":"m 188 474 l 188 1042 l 913 1042 l 913 1004 l 357 38 l 624 38 q 747 48 699 38 q 822 84 794 58 q 859 155 849 110 q 869 269 869 200 l 869 624 l 904 624 l 904 0 l 163 0 l 163 38 l 713 1004 l 468 1004 q 345 994 393 1004 q 270 958 297 983 q 233 887 243 932 q 222 772 222 842 l 222 474 l 188 474 m 864 1274 l 864 1186 q 736 1143 800 1158 q 598 1121 672 1128 q 431 1113 524 1114 q 218 1111 338 1111 l 218 1132 q 429 1150 338 1139 q 594 1178 521 1161 q 733 1218 668 1194 q 864 1274 797 1242 z "},"Ž":{"ha":1058,"x_min":163,"x_max":913,"o":"m 188 474 l 188 1042 l 913 1042 l 913 1004 l 357 38 l 624 38 q 747 48 699 38 q 822 84 794 58 q 859 155 849 110 q 869 269 869 200 l 869 624 l 904 624 l 904 0 l 163 0 l 163 38 l 713 1004 l 468 1004 q 345 994 393 1004 q 270 958 297 983 q 233 887 243 932 q 222 772 222 842 l 222 474 l 188 474 m 557 1083 q 481 1149 517 1121 q 409 1197 446 1178 q 329 1231 372 1217 q 231 1253 286 1244 l 231 1274 q 412 1242 342 1264 q 557 1164 482 1221 q 702 1242 632 1221 q 883 1274 772 1264 l 883 1253 q 785 1231 828 1244 q 705 1197 742 1217 q 633 1149 668 1178 q 557 1083 597 1121 z "},"Ż":{"ha":1058,"x_min":163,"x_max":913,"o":"m 188 474 l 188 1042 l 913 1042 l 913 1004 l 357 38 l 624 38 q 747 48 699 38 q 822 84 794 58 q 859 155 849 110 q 869 269 869 200 l 869 624 l 904 624 l 904 0 l 163 0 l 163 38 l 713 1004 l 468 1004 q 345 994 393 1004 q 270 958 297 983 q 233 887 243 932 q 222 772 222 842 l 222 474 l 188 474 m 556 1111 q 473 1123 500 1111 q 446 1157 446 1135 q 473 1194 446 1181 q 556 1208 500 1208 q 638 1194 611 1208 q 665 1157 665 1181 q 638 1123 665 1135 q 556 1111 611 1111 z "},"Æ":{"ha":1292,"x_min":83,"x_max":1111,"o":"m 383 0 l 83 0 l 83 35 l 181 35 l 418 1007 l 250 1007 l 250 1042 l 1085 1042 l 1085 640 l 1050 640 l 1050 786 q 1041 895 1050 853 q 1008 962 1032 938 q 942 995 985 986 q 832 1004 900 1004 l 628 1004 l 713 575 l 911 575 l 911 785 l 946 785 l 946 308 l 911 308 l 911 538 l 721 538 l 819 38 l 831 38 q 953 48 906 38 q 1028 84 1001 58 q 1066 155 1056 110 q 1076 269 1076 200 l 1076 401 l 1111 401 l 1111 0 l 528 0 l 528 35 l 643 35 l 597 271 l 282 271 l 224 35 l 383 35 l 383 0 m 290 308 l 589 308 l 456 985 l 290 308 z "},"Œ":{"ha":1292,"x_min":125,"x_max":1111,"o":"m 939 281 l 939 510 l 776 510 l 776 38 l 831 38 q 953 48 906 38 q 1028 84 1001 58 q 1066 155 1056 110 q 1076 269 1076 200 l 1076 401 l 1111 401 l 1111 0 l 536 0 q 229 127 333 0 q 125 521 125 254 q 230 915 125 788 q 540 1042 335 1042 l 1085 1042 l 1085 640 l 1050 640 l 1050 786 q 1041 895 1050 853 q 1008 962 1032 938 q 942 995 985 986 q 832 1004 900 1004 l 776 1004 l 776 547 l 939 547 l 939 757 l 974 757 l 974 281 l 939 281 m 564 36 l 599 36 l 599 1006 l 567 1006 q 376 897 432 1006 q 319 519 319 788 q 375 144 319 251 q 564 36 431 36 z "},"Ð":{"ha":1181,"x_min":97,"x_max":1056,"o":"m 125 1006 l 125 1042 l 557 1042 q 756 1013 664 1042 q 914 921 847 983 q 1018 759 981 858 q 1056 521 1056 660 q 1018 283 1056 382 q 915 121 981 183 q 758 29 849 58 q 561 0 667 0 l 125 0 l 125 35 l 283 35 l 283 553 l 97 553 l 97 590 l 283 590 l 283 1006 l 125 1006 m 719 553 l 461 553 l 461 39 l 533 39 q 686 56 624 39 q 788 124 749 74 q 844 270 826 175 q 861 519 861 365 q 843 769 861 674 q 786 917 825 865 q 684 985 747 968 q 531 1003 621 1003 l 461 1003 l 461 590 l 719 590 l 719 553 z "},"Ø":{"ha":1153,"x_min":125,"x_max":1028,"o":"m 225 0 l 178 0 l 250 100 q 156 272 188 168 q 125 511 125 375 q 239 924 125 779 q 575 1069 353 1069 q 744 1044 669 1069 q 875 968 819 1018 l 928 1042 l 975 1042 l 901 940 q 997 760 965 869 q 1028 511 1028 651 q 911 112 1028 251 q 575 -28 794 -28 q 407 -2 482 -28 q 276 72 332 24 l 225 0 m 575 1035 q 375 914 431 1035 q 319 510 319 793 q 325 353 319 424 q 342 228 331 283 l 797 861 q 717 994 771 953 q 575 1035 663 1035 m 833 510 q 828 678 833 603 q 810 813 822 754 l 354 179 q 435 49 382 90 q 575 7 489 7 q 775 124 717 7 q 833 510 833 242 z "},"a":{"ha":1153,"x_min":150,"x_max":1049,"o":"m 890 165 q 905 61 890 97 q 946 25 919 25 q 1001 57 988 25 q 1014 168 1014 89 l 1014 271 l 1049 271 l 1049 165 q 1019 13 1049 54 q 897 -28 989 -28 q 757 22 801 -28 q 713 168 713 72 l 713 225 q 660 130 693 176 q 585 49 626 83 q 495 -7 543 14 q 397 -28 447 -28 q 208 44 267 -28 q 150 217 150 115 q 183 335 150 283 q 267 427 217 386 q 381 501 318 468 q 503 565 444 535 q 581 606 543 586 q 649 649 619 626 q 695 697 678 671 q 713 757 713 724 l 713 760 q 681 969 713 906 q 553 1032 649 1032 q 427 1003 488 1032 q 321 917 367 974 q 247 776 275 861 q 219 582 219 692 l 219 551 l 185 551 l 185 1042 l 219 1042 l 219 806 q 352 1000 263 931 q 556 1069 442 1069 q 810 977 729 1069 q 890 732 890 885 l 890 165 m 344 281 q 362 97 344 167 q 439 26 379 26 q 540 60 490 26 q 628 143 590 93 q 689 253 665 193 q 713 369 713 314 l 713 668 q 638 601 686 632 q 515 532 590 571 q 386 435 428 486 q 344 281 344 385 z "},"à":{"ha":1153,"x_min":150,"x_max":1049,"o":"m 890 165 q 905 61 890 97 q 946 25 919 25 q 1001 57 988 25 q 1014 168 1014 89 l 1014 271 l 1049 271 l 1049 165 q 1019 13 1049 54 q 897 -28 989 -28 q 757 22 801 -28 q 713 168 713 72 l 713 225 q 660 130 693 176 q 585 49 626 83 q 495 -7 543 14 q 397 -28 447 -28 q 208 44 267 -28 q 150 217 150 115 q 183 335 150 283 q 267 427 217 386 q 381 501 318 468 q 503 565 444 535 q 581 606 543 586 q 649 649 619 626 q 695 697 678 671 q 713 757 713 724 l 713 760 q 681 969 713 906 q 553 1032 649 1032 q 427 1003 488 1032 q 321 917 367 974 q 247 776 275 861 q 219 582 219 692 l 219 551 l 185 551 l 185 1042 l 219 1042 l 219 806 q 352 1000 263 931 q 556 1069 442 1069 q 810 977 729 1069 q 890 732 890 885 l 890 165 m 344 281 q 362 97 344 167 q 439 26 379 26 q 540 60 490 26 q 628 143 590 93 q 689 253 665 193 q 713 369 713 314 l 713 668 q 638 601 686 632 q 515 532 590 571 q 386 435 428 486 q 344 281 344 385 m 244 1274 q 376 1218 311 1242 q 514 1178 440 1194 q 679 1150 588 1161 q 890 1132 771 1139 l 890 1111 q 678 1113 771 1111 q 510 1121 585 1114 q 372 1143 436 1128 q 244 1186 308 1158 l 244 1274 z "},"á":{"ha":1153,"x_min":150,"x_max":1049,"o":"m 890 165 q 905 61 890 97 q 946 25 919 25 q 1001 57 988 25 q 1014 168 1014 89 l 1014 271 l 1049 271 l 1049 165 q 1019 13 1049 54 q 897 -28 989 -28 q 757 22 801 -28 q 713 168 713 72 l 713 225 q 660 130 693 176 q 585 49 626 83 q 495 -7 543 14 q 397 -28 447 -28 q 208 44 267 -28 q 150 217 150 115 q 183 335 150 283 q 267 427 217 386 q 381 501 318 468 q 503 565 444 535 q 581 606 543 586 q 649 649 619 626 q 695 697 678 671 q 713 757 713 724 l 713 760 q 681 969 713 906 q 553 1032 649 1032 q 427 1003 488 1032 q 321 917 367 974 q 247 776 275 861 q 219 582 219 692 l 219 551 l 185 551 l 185 1042 l 219 1042 l 219 806 q 352 1000 263 931 q 556 1069 442 1069 q 810 977 729 1069 q 890 732 890 885 l 890 165 m 344 281 q 362 97 344 167 q 439 26 379 26 q 540 60 490 26 q 628 143 590 93 q 689 253 665 193 q 713 369 713 314 l 713 668 q 638 601 686 632 q 515 532 590 571 q 386 435 428 486 q 344 281 344 385 m 858 1274 l 858 1186 q 731 1143 794 1158 q 592 1121 667 1128 q 425 1113 518 1114 q 213 1111 332 1111 l 213 1132 q 424 1150 332 1139 q 589 1178 515 1161 q 727 1218 663 1194 q 858 1274 792 1242 z "},"â":{"ha":1153,"x_min":150,"x_max":1049,"o":"m 890 165 q 905 61 890 97 q 946 25 919 25 q 1001 57 988 25 q 1014 168 1014 89 l 1014 271 l 1049 271 l 1049 165 q 1019 13 1049 54 q 897 -28 989 -28 q 757 22 801 -28 q 713 168 713 72 l 713 225 q 660 130 693 176 q 585 49 626 83 q 495 -7 543 14 q 397 -28 447 -28 q 208 44 267 -28 q 150 217 150 115 q 183 335 150 283 q 267 427 217 386 q 381 501 318 468 q 503 565 444 535 q 581 606 543 586 q 649 649 619 626 q 695 697 678 671 q 713 757 713 724 l 713 760 q 681 969 713 906 q 553 1032 649 1032 q 427 1003 488 1032 q 321 917 367 974 q 247 776 275 861 q 219 582 219 692 l 219 551 l 185 551 l 185 1042 l 219 1042 l 219 806 q 352 1000 263 931 q 556 1069 442 1069 q 810 977 729 1069 q 890 732 890 885 l 890 165 m 344 281 q 362 97 344 167 q 439 26 379 26 q 540 60 490 26 q 628 143 590 93 q 689 253 665 193 q 713 369 713 314 l 713 668 q 638 601 686 632 q 515 532 590 571 q 386 435 428 486 q 344 281 344 385 m 551 1301 q 627 1235 592 1264 q 699 1188 663 1207 q 779 1154 736 1168 q 878 1132 822 1140 l 878 1111 q 697 1142 767 1121 q 551 1221 626 1164 q 406 1142 476 1164 q 225 1111 336 1121 l 225 1132 q 324 1154 281 1140 q 403 1188 367 1168 q 476 1235 440 1207 q 551 1301 511 1264 z "},"ã":{"ha":1153,"x_min":150,"x_max":1049,"o":"m 890 165 q 905 61 890 97 q 946 25 919 25 q 1001 57 988 25 q 1014 168 1014 89 l 1014 271 l 1049 271 l 1049 165 q 1019 13 1049 54 q 897 -28 989 -28 q 757 22 801 -28 q 713 168 713 72 l 713 225 q 660 130 693 176 q 585 49 626 83 q 495 -7 543 14 q 397 -28 447 -28 q 208 44 267 -28 q 150 217 150 115 q 183 335 150 283 q 267 427 217 386 q 381 501 318 468 q 503 565 444 535 q 581 606 543 586 q 649 649 619 626 q 695 697 678 671 q 713 757 713 724 l 713 760 q 681 969 713 906 q 553 1032 649 1032 q 427 1003 488 1032 q 321 917 367 974 q 247 776 275 861 q 219 582 219 692 l 219 551 l 185 551 l 185 1042 l 219 1042 l 219 806 q 352 1000 263 931 q 556 1069 442 1069 q 810 977 729 1069 q 890 732 890 885 l 890 165 m 344 281 q 362 97 344 167 q 439 26 379 26 q 540 60 490 26 q 628 143 590 93 q 689 253 665 193 q 713 369 713 314 l 713 668 q 638 601 686 632 q 515 532 590 571 q 386 435 428 486 q 344 281 344 385 m 408 1244 q 484 1233 444 1244 q 562 1208 524 1222 q 635 1183 600 1194 q 699 1172 671 1172 q 753 1189 724 1172 q 783 1244 783 1206 l 815 1244 q 785 1146 815 1181 q 686 1111 754 1111 q 616 1122 653 1111 q 542 1147 579 1133 q 468 1172 506 1161 q 396 1183 431 1183 q 341 1167 371 1183 q 311 1111 311 1150 l 279 1111 q 310 1210 279 1175 q 408 1244 340 1244 z "},"ä":{"ha":1153,"x_min":150,"x_max":1049,"o":"m 890 165 q 905 61 890 97 q 946 25 919 25 q 1001 57 988 25 q 1014 168 1014 89 l 1014 271 l 1049 271 l 1049 165 q 1019 13 1049 54 q 897 -28 989 -28 q 757 22 801 -28 q 713 168 713 72 l 713 225 q 660 130 693 176 q 585 49 626 83 q 495 -7 543 14 q 397 -28 447 -28 q 208 44 267 -28 q 150 217 150 115 q 183 335 150 283 q 267 427 217 386 q 381 501 318 468 q 503 565 444 535 q 581 606 543 586 q 649 649 619 626 q 695 697 678 671 q 713 757 713 724 l 713 760 q 681 969 713 906 q 553 1032 649 1032 q 427 1003 488 1032 q 321 917 367 974 q 247 776 275 861 q 219 582 219 692 l 219 551 l 185 551 l 185 1042 l 219 1042 l 219 806 q 352 1000 263 931 q 556 1069 442 1069 q 810 977 729 1069 q 890 732 890 885 l 890 165 m 344 281 q 362 97 344 167 q 439 26 379 26 q 540 60 490 26 q 628 143 590 93 q 689 253 665 193 q 713 369 713 314 l 713 668 q 638 601 686 632 q 515 532 590 571 q 386 435 428 486 q 344 281 344 385 m 358 1111 q 276 1123 303 1111 q 249 1157 249 1135 q 276 1194 249 1181 q 358 1208 303 1208 q 441 1194 414 1208 q 468 1157 468 1181 q 441 1123 468 1135 q 358 1111 414 1111 m 736 1111 q 653 1123 681 1111 q 626 1157 626 1135 q 653 1194 626 1181 q 736 1208 681 1208 q 819 1194 792 1208 q 846 1157 846 1181 q 819 1123 846 1135 q 736 1111 792 1111 z "},"ă":{"ha":1153,"x_min":150,"x_max":1049,"o":"m 890 165 q 905 61 890 97 q 946 25 919 25 q 1001 57 988 25 q 1014 168 1014 89 l 1014 271 l 1049 271 l 1049 165 q 1019 13 1049 54 q 897 -28 989 -28 q 757 22 801 -28 q 713 168 713 72 l 713 225 q 660 130 693 176 q 585 49 626 83 q 495 -7 543 14 q 397 -28 447 -28 q 208 44 267 -28 q 150 217 150 115 q 183 335 150 283 q 267 427 217 386 q 381 501 318 468 q 503 565 444 535 q 581 606 543 586 q 649 649 619 626 q 695 697 678 671 q 713 757 713 724 l 713 760 q 681 969 713 906 q 553 1032 649 1032 q 427 1003 488 1032 q 321 917 367 974 q 247 776 275 861 q 219 582 219 692 l 219 551 l 185 551 l 185 1042 l 219 1042 l 219 806 q 352 1000 263 931 q 556 1069 442 1069 q 810 977 729 1069 q 890 732 890 885 l 890 165 m 344 281 q 362 97 344 167 q 439 26 379 26 q 540 60 490 26 q 628 143 590 93 q 689 253 665 193 q 713 369 713 314 l 713 668 q 638 601 686 632 q 515 532 590 571 q 386 435 428 486 q 344 281 344 385 m 825 1254 q 813 1190 825 1217 q 771 1145 801 1163 q 686 1119 740 1128 q 549 1111 632 1111 q 411 1119 465 1111 q 326 1145 357 1128 q 284 1190 296 1163 q 272 1254 272 1217 l 310 1254 q 318 1216 310 1233 q 351 1187 326 1199 q 424 1169 376 1175 q 547 1163 471 1163 q 672 1169 625 1163 q 745 1187 719 1175 q 779 1216 771 1199 q 788 1254 788 1233 l 825 1254 z "},"ā":{"ha":1153,"x_min":150,"x_max":1049,"o":"m 890 165 q 905 61 890 97 q 946 25 919 25 q 1001 57 988 25 q 1014 168 1014 89 l 1014 271 l 1049 271 l 1049 165 q 1019 13 1049 54 q 897 -28 989 -28 q 757 22 801 -28 q 713 168 713 72 l 713 225 q 660 130 693 176 q 585 49 626 83 q 495 -7 543 14 q 397 -28 447 -28 q 208 44 267 -28 q 150 217 150 115 q 183 335 150 283 q 267 427 217 386 q 381 501 318 468 q 503 565 444 535 q 581 606 543 586 q 649 649 619 626 q 695 697 678 671 q 713 757 713 724 l 713 760 q 681 969 713 906 q 553 1032 649 1032 q 427 1003 488 1032 q 321 917 367 974 q 247 776 275 861 q 219 582 219 692 l 219 551 l 185 551 l 185 1042 l 219 1042 l 219 806 q 352 1000 263 931 q 556 1069 442 1069 q 810 977 729 1069 q 890 732 890 885 l 890 165 m 344 281 q 362 97 344 167 q 439 26 379 26 q 540 60 490 26 q 628 143 590 93 q 689 253 665 193 q 713 369 713 314 l 713 668 q 638 601 686 632 q 515 532 590 571 q 386 435 428 486 q 344 281 344 385 m 847 1146 l 256 1146 l 256 1190 l 847 1190 l 847 1146 z "},"å":{"ha":1153,"x_min":150,"x_max":1049,"o":"m 890 165 q 905 61 890 97 q 946 25 919 25 q 1001 57 988 25 q 1014 168 1014 89 l 1014 271 l 1049 271 l 1049 165 q 1019 13 1049 54 q 897 -28 989 -28 q 757 22 801 -28 q 713 168 713 72 l 713 225 q 660 130 693 176 q 585 49 626 83 q 495 -7 543 14 q 397 -28 447 -28 q 208 44 267 -28 q 150 217 150 115 q 183 335 150 283 q 267 427 217 386 q 381 501 318 468 q 503 565 444 535 q 581 606 543 586 q 649 649 619 626 q 695 697 678 671 q 713 757 713 724 l 713 760 q 681 969 713 906 q 553 1032 649 1032 q 427 1003 488 1032 q 321 917 367 974 q 247 776 275 861 q 219 582 219 692 l 219 551 l 185 551 l 185 1042 l 219 1042 l 219 806 q 352 1000 263 931 q 556 1069 442 1069 q 810 977 729 1069 q 890 732 890 885 l 890 165 m 344 281 q 362 97 344 167 q 439 26 379 26 q 540 60 490 26 q 628 143 590 93 q 689 253 665 193 q 713 369 713 314 l 713 668 q 638 601 686 632 q 515 532 590 571 q 386 435 428 486 q 344 281 344 385 m 825 1185 q 813 1151 825 1165 q 771 1128 801 1138 q 686 1115 740 1119 q 549 1111 632 1111 q 411 1115 465 1111 q 326 1128 357 1119 q 284 1151 296 1138 q 272 1185 272 1165 q 284 1218 272 1204 q 326 1241 296 1232 q 411 1254 357 1250 q 549 1258 465 1258 q 686 1254 632 1258 q 771 1241 740 1250 q 813 1218 801 1232 q 825 1185 825 1204 m 310 1185 q 318 1169 310 1176 q 351 1158 326 1163 q 424 1151 376 1154 q 547 1149 471 1149 q 672 1151 625 1149 q 745 1158 719 1154 q 779 1169 771 1163 q 788 1185 788 1176 q 779 1200 788 1193 q 745 1211 771 1207 q 672 1218 719 1215 q 547 1221 625 1221 q 424 1218 471 1221 q 351 1211 376 1215 q 318 1200 326 1207 q 310 1185 310 1193 z "},"b":{"ha":1132,"x_min":90,"x_max":979,"o":"m 940 1042 l 940 1007 l 394 1007 l 394 799 q 413 839 400 815 q 448 883 425 863 q 507 917 471 903 q 594 932 543 932 q 883 808 788 932 q 979 453 979 683 q 883 97 979 222 q 594 -28 788 -28 q 468 13 519 -28 q 390 124 417 53 l 250 -28 l 217 -28 l 217 1007 l 90 1007 l 90 1042 l 940 1042 m 596 10 q 688 31 651 10 q 745 103 724 51 q 776 240 767 154 q 785 457 785 326 q 777 676 785 590 q 749 810 769 763 q 691 876 728 858 q 597 894 654 894 q 454 841 514 894 q 394 635 394 788 l 394 336 q 403 207 394 267 q 433 103 411 147 q 495 35 456 60 q 596 10 535 10 z "},"c":{"ha":1069,"x_min":125,"x_max":944,"o":"m 910 432 l 944 432 q 848 91 944 210 q 578 -28 751 -28 q 236 111 347 -28 q 125 511 125 250 q 233 924 125 779 q 569 1069 340 1069 q 765 1008 686 1069 q 882 833 844 947 l 882 1042 l 917 1042 l 917 585 l 882 585 q 805 916 882 800 q 571 1032 728 1032 q 373 913 426 1032 q 319 510 319 793 q 375 128 319 243 q 578 13 431 13 q 820 115 731 13 q 910 432 910 218 z "},"ć":{"ha":1069,"x_min":125,"x_max":944,"o":"m 910 432 l 944 432 q 848 91 944 210 q 578 -28 751 -28 q 236 111 347 -28 q 125 511 125 250 q 233 924 125 779 q 569 1069 340 1069 q 765 1008 686 1069 q 882 833 844 947 l 882 1042 l 917 1042 l 917 585 l 882 585 q 805 916 882 800 q 571 1032 728 1032 q 373 913 426 1032 q 319 510 319 793 q 375 128 319 243 q 578 13 431 13 q 820 115 731 13 q 910 432 910 218 m 882 1274 l 882 1186 q 754 1143 818 1158 q 616 1121 690 1128 q 449 1113 542 1114 q 236 1111 356 1111 l 236 1132 q 447 1150 356 1139 q 613 1178 539 1161 q 751 1218 686 1194 q 882 1274 815 1242 z "},"ĉ":{"ha":1069,"x_min":125,"x_max":944,"o":"m 910 432 l 944 432 q 848 91 944 210 q 578 -28 751 -28 q 236 111 347 -28 q 125 511 125 250 q 233 924 125 779 q 569 1069 340 1069 q 765 1008 686 1069 q 882 833 844 947 l 882 1042 l 917 1042 l 917 585 l 882 585 q 805 916 882 800 q 571 1032 728 1032 q 373 913 426 1032 q 319 510 319 793 q 375 128 319 243 q 578 13 431 13 q 820 115 731 13 q 910 432 910 218 m 575 1301 q 651 1235 615 1264 q 723 1188 686 1207 q 803 1154 760 1168 q 901 1132 846 1140 l 901 1111 q 720 1142 790 1121 q 575 1221 650 1164 q 430 1142 500 1164 q 249 1111 360 1121 l 249 1132 q 347 1154 304 1140 q 427 1188 390 1168 q 499 1235 464 1207 q 575 1301 535 1264 z "},"ç":{"ha":1069,"x_min":125,"x_max":944,"o":"m 910 432 l 944 432 q 848 91 944 210 q 578 -28 751 -28 q 236 111 347 -28 q 125 511 125 250 q 233 924 125 779 q 569 1069 340 1069 q 765 1008 686 1069 q 882 833 844 947 l 882 1042 l 917 1042 l 917 585 l 882 585 q 805 916 882 800 q 571 1032 728 1032 q 373 913 426 1032 q 319 510 319 793 q 375 128 319 243 q 578 13 431 13 q 820 115 731 13 q 910 432 910 218 m 864 -135 q 852 -168 864 -154 q 810 -191 840 -182 q 725 -204 779 -200 q 588 -208 671 -208 q 409 -200 481 -208 q 274 -164 338 -192 l 292 -128 q 419 -162 351 -154 q 586 -171 486 -171 q 711 -168 664 -171 q 784 -161 758 -165 q 818 -150 810 -157 q 826 -135 826 -143 q 817 -122 826 -128 q 783 -110 808 -115 q 712 -103 758 -106 q 590 -100 665 -100 q 467 -101 514 -100 q 376 -121 419 -103 l 363 -94 l 581 3 l 592 -22 l 482 -71 q 540 -67 513 -68 q 590 -65 568 -65 q 808 -81 751 -65 q 864 -135 864 -97 z "},"č":{"ha":1069,"x_min":125,"x_max":944,"o":"m 910 432 l 944 432 q 848 91 944 210 q 578 -28 751 -28 q 236 111 347 -28 q 125 511 125 250 q 233 924 125 779 q 569 1069 340 1069 q 765 1008 686 1069 q 882 833 844 947 l 882 1042 l 917 1042 l 917 585 l 882 585 q 805 916 882 800 q 571 1032 728 1032 q 373 913 426 1032 q 319 510 319 793 q 375 128 319 243 q 578 13 431 13 q 820 115 731 13 q 910 432 910 218 m 575 1083 q 499 1149 535 1121 q 427 1197 464 1178 q 347 1231 390 1217 q 249 1253 304 1244 l 249 1274 q 430 1242 360 1264 q 575 1164 500 1221 q 720 1242 650 1221 q 901 1274 790 1264 l 901 1253 q 803 1231 846 1244 q 723 1197 760 1217 q 651 1149 686 1178 q 575 1083 615 1121 z "},"ċ":{"ha":1069,"x_min":125,"x_max":944,"o":"m 910 432 l 944 432 q 848 91 944 210 q 578 -28 751 -28 q 236 111 347 -28 q 125 511 125 250 q 233 924 125 779 q 569 1069 340 1069 q 765 1008 686 1069 q 882 833 844 947 l 882 1042 l 917 1042 l 917 585 l 882 585 q 805 916 882 800 q 571 1032 728 1032 q 373 913 426 1032 q 319 510 319 793 q 375 128 319 243 q 578 13 431 13 q 820 115 731 13 q 910 432 910 218 m 574 1111 q 491 1123 518 1111 q 464 1157 464 1135 q 491 1194 464 1181 q 574 1208 518 1208 q 656 1194 629 1208 q 683 1157 683 1181 q 656 1123 683 1135 q 574 1111 629 1111 z "},"d":{"ha":1153,"x_min":142,"x_max":1043,"o":"m 199 1007 l 199 1042 l 1043 1042 l 1043 1007 l 906 1007 l 906 136 q 917 47 906 68 q 951 25 928 25 q 992 57 982 25 q 1003 167 1003 89 l 1003 269 l 1038 269 l 1038 164 q 1013 13 1038 54 q 914 -28 989 -28 q 779 1 828 -28 q 731 124 731 29 q 648 9 701 46 q 525 -28 594 -28 q 238 97 335 -28 q 142 453 142 222 q 238 808 142 683 q 525 932 335 932 q 614 917 578 932 q 674 883 650 903 q 710 840 697 863 q 728 801 722 817 l 728 1007 l 199 1007 m 524 10 q 626 35 586 10 q 688 103 665 60 q 719 207 711 147 q 728 336 728 267 l 728 635 q 668 841 728 788 q 522 894 608 894 q 428 876 465 894 q 372 810 392 858 q 344 676 351 763 q 336 457 336 590 q 345 240 336 326 q 376 103 354 154 q 433 31 397 51 q 524 10 469 10 z "},"e":{"ha":1097,"x_min":125,"x_max":972,"o":"m 935 392 l 972 392 q 872 81 972 189 q 592 -28 771 -28 q 240 111 354 -28 q 125 511 125 250 q 230 924 125 779 q 543 1069 335 1069 q 867 918 761 1069 q 972 488 974 767 l 319 488 q 380 123 321 233 q 592 13 439 13 q 843 106 751 13 q 935 392 935 199 m 544 1032 q 371 916 421 1032 q 319 525 321 800 l 778 525 q 725 915 776 799 q 544 1032 674 1032 z "},"è":{"ha":1097,"x_min":125,"x_max":972,"o":"m 935 392 l 972 392 q 872 81 972 189 q 592 -28 771 -28 q 240 111 354 -28 q 125 511 125 250 q 230 924 125 779 q 543 1069 335 1069 q 867 918 761 1069 q 972 488 974 767 l 319 488 q 380 123 321 233 q 592 13 439 13 q 843 106 751 13 q 935 392 935 199 m 544 1032 q 371 916 421 1032 q 319 525 321 800 l 778 525 q 725 915 776 799 q 544 1032 674 1032 m 240 1274 q 372 1218 307 1242 q 510 1178 436 1194 q 675 1150 583 1161 q 886 1132 767 1139 l 886 1111 q 674 1113 767 1111 q 506 1121 581 1114 q 368 1143 432 1128 q 240 1186 304 1158 l 240 1274 z "},"é":{"ha":1097,"x_min":125,"x_max":972,"o":"m 935 392 l 972 392 q 872 81 972 189 q 592 -28 771 -28 q 240 111 354 -28 q 125 511 125 250 q 230 924 125 779 q 543 1069 335 1069 q 867 918 761 1069 q 972 488 974 767 l 319 488 q 380 123 321 233 q 592 13 439 13 q 843 106 751 13 q 935 392 935 199 m 544 1032 q 371 916 421 1032 q 319 525 321 800 l 778 525 q 725 915 776 799 q 544 1032 674 1032 m 854 1274 l 854 1186 q 726 1143 790 1158 q 588 1121 663 1128 q 421 1113 514 1114 q 208 1111 328 1111 l 208 1132 q 419 1150 328 1139 q 585 1178 511 1161 q 723 1218 658 1194 q 854 1274 788 1242 z "},"ê":{"ha":1097,"x_min":125,"x_max":972,"o":"m 935 392 l 972 392 q 872 81 972 189 q 592 -28 771 -28 q 240 111 354 -28 q 125 511 125 250 q 230 924 125 779 q 543 1069 335 1069 q 867 918 761 1069 q 972 488 974 767 l 319 488 q 380 123 321 233 q 592 13 439 13 q 843 106 751 13 q 935 392 935 199 m 544 1032 q 371 916 421 1032 q 319 525 321 800 l 778 525 q 725 915 776 799 q 544 1032 674 1032 m 547 1301 q 623 1235 588 1264 q 695 1188 658 1207 q 775 1154 732 1168 q 874 1132 818 1140 l 874 1111 q 692 1142 763 1121 q 547 1221 622 1164 q 402 1142 472 1164 q 221 1111 332 1121 l 221 1132 q 319 1154 276 1140 q 399 1188 363 1168 q 472 1235 436 1207 q 547 1301 507 1264 z "},"ë":{"ha":1097,"x_min":125,"x_max":972,"o":"m 935 392 l 972 392 q 872 81 972 189 q 592 -28 771 -28 q 240 111 354 -28 q 125 511 125 250 q 230 924 125 779 q 543 1069 335 1069 q 867 918 761 1069 q 972 488 974 767 l 319 488 q 380 123 321 233 q 592 13 439 13 q 843 106 751 13 q 935 392 935 199 m 544 1032 q 371 916 421 1032 q 319 525 321 800 l 778 525 q 725 915 776 799 q 544 1032 674 1032 m 354 1111 q 272 1123 299 1111 q 244 1157 244 1135 q 272 1194 244 1181 q 354 1208 299 1208 q 437 1194 410 1208 q 464 1157 464 1181 q 437 1123 464 1135 q 354 1111 410 1111 m 732 1111 q 649 1123 676 1111 q 622 1157 622 1135 q 649 1194 622 1181 q 732 1208 676 1208 q 815 1194 788 1208 q 842 1157 842 1181 q 815 1123 842 1135 q 732 1111 788 1111 z "},"ĕ":{"ha":1097,"x_min":125,"x_max":972,"o":"m 935 392 l 972 392 q 872 81 972 189 q 592 -28 771 -28 q 240 111 354 -28 q 125 511 125 250 q 230 924 125 779 q 543 1069 335 1069 q 867 918 761 1069 q 972 488 974 767 l 319 488 q 380 123 321 233 q 592 13 439 13 q 843 106 751 13 q 935 392 935 199 m 544 1032 q 371 916 421 1032 q 319 525 321 800 l 778 525 q 725 915 776 799 q 544 1032 674 1032 m 821 1254 q 809 1190 821 1217 q 767 1145 797 1163 q 682 1119 736 1128 q 544 1111 628 1111 q 407 1119 461 1111 q 322 1145 353 1128 q 280 1190 292 1163 q 268 1254 268 1217 l 306 1254 q 314 1216 306 1233 q 347 1187 322 1199 q 419 1169 372 1175 q 543 1163 467 1163 q 668 1169 621 1163 q 741 1187 715 1175 q 775 1216 767 1199 q 783 1254 783 1233 l 821 1254 z "},"ě":{"ha":1097,"x_min":125,"x_max":972,"o":"m 935 392 l 972 392 q 872 81 972 189 q 592 -28 771 -28 q 240 111 354 -28 q 125 511 125 250 q 230 924 125 779 q 543 1069 335 1069 q 867 918 761 1069 q 972 488 974 767 l 319 488 q 380 123 321 233 q 592 13 439 13 q 843 106 751 13 q 935 392 935 199 m 544 1032 q 371 916 421 1032 q 319 525 321 800 l 778 525 q 725 915 776 799 q 544 1032 674 1032 m 547 1083 q 472 1149 507 1121 q 399 1197 436 1178 q 319 1231 363 1217 q 221 1253 276 1244 l 221 1274 q 402 1242 332 1264 q 547 1164 472 1221 q 692 1242 622 1221 q 874 1274 763 1264 l 874 1253 q 775 1231 818 1244 q 695 1197 732 1217 q 623 1149 658 1178 q 547 1083 588 1121 z "},"ē":{"ha":1097,"x_min":125,"x_max":972,"o":"m 935 392 l 972 392 q 872 81 972 189 q 592 -28 771 -28 q 240 111 354 -28 q 125 511 125 250 q 230 924 125 779 q 543 1069 335 1069 q 867 918 761 1069 q 972 488 974 767 l 319 488 q 380 123 321 233 q 592 13 439 13 q 843 106 751 13 q 935 392 935 199 m 544 1032 q 371 916 421 1032 q 319 525 321 800 l 778 525 q 725 915 776 799 q 544 1032 674 1032 m 843 1146 l 251 1146 l 251 1190 l 843 1190 l 843 1146 z "},"ė":{"ha":1097,"x_min":125,"x_max":972,"o":"m 935 392 l 972 392 q 872 81 972 189 q 592 -28 771 -28 q 240 111 354 -28 q 125 511 125 250 q 230 924 125 779 q 543 1069 335 1069 q 867 918 761 1069 q 972 488 974 767 l 319 488 q 380 123 321 233 q 592 13 439 13 q 843 106 751 13 q 935 392 935 199 m 544 1032 q 371 916 421 1032 q 319 525 321 800 l 778 525 q 725 915 776 799 q 544 1032 674 1032 m 546 1111 q 463 1123 490 1111 q 436 1157 436 1135 q 463 1194 436 1181 q 546 1208 490 1208 q 628 1194 601 1208 q 656 1157 656 1181 q 628 1123 656 1135 q 546 1111 601 1111 z "},"f":{"ha":932,"x_min":97,"x_max":821,"o":"m 99 0 l 99 35 l 236 35 l 236 263 l 97 263 l 97 297 l 236 297 l 236 615 q 323 956 236 843 q 585 1069 410 1069 q 758 1002 696 1069 q 821 814 821 935 q 761 644 821 703 q 628 543 701 586 q 489 451 554 500 q 414 308 424 401 l 414 297 l 722 297 l 722 263 l 414 263 l 414 35 l 722 35 l 722 0 l 99 0 m 782 814 q 726 979 782 926 q 588 1032 669 1032 q 451 940 489 1032 q 414 615 414 849 l 414 404 q 508 510 446 469 q 630 588 569 550 q 736 676 690 626 q 782 814 782 726 z "},"g":{"ha":1032,"x_min":118,"x_max":893,"o":"m 453 -28 q 278 -14 344 -28 q 177 26 213 0 q 130 88 142 51 q 118 169 118 125 q 181 303 118 258 q 356 367 244 349 q 187 484 243 399 q 131 700 131 569 q 226 974 131 878 q 515 1069 322 1069 q 641 1030 590 1069 q 719 918 692 990 l 860 1069 l 893 1069 l 893 369 q 866 179 893 256 q 785 57 839 103 q 649 -8 732 11 q 453 -28 565 -28 m 514 1032 q 422 1016 458 1032 q 365 962 386 1000 q 334 859 343 924 q 325 696 325 794 q 333 539 325 600 q 361 444 340 478 q 419 397 382 410 q 513 383 456 383 q 656 437 596 383 q 715 643 715 490 l 715 706 q 707 835 715 775 q 676 938 699 894 q 615 1007 654 982 q 514 1032 575 1032 m 156 169 q 166 99 156 129 q 208 49 176 68 q 298 19 239 29 q 453 10 357 10 q 576 22 526 10 q 657 71 626 35 q 701 174 688 107 q 715 349 715 240 l 715 476 q 697 439 710 461 q 662 396 685 417 q 603 360 639 375 q 515 346 567 346 q 388 338 453 346 q 272 309 324 329 q 188 255 221 289 q 156 169 156 221 z "},"h":{"ha":1139,"x_min":111,"x_max":1056,"o":"m 256 35 l 256 601 q 346 953 256 836 q 631 1069 436 1069 q 851 1007 771 1069 q 931 831 931 944 q 897 708 931 757 q 809 626 863 660 q 690 569 756 593 q 563 522 625 546 q 583 524 574 524 q 603 525 593 525 q 826 442 743 525 q 910 181 910 360 l 910 35 l 1056 35 l 1056 0 l 111 0 l 111 35 l 256 35 m 433 601 l 433 435 q 468 500 443 469 q 540 549 493 531 q 660 594 597 572 q 775 648 724 617 q 860 722 826 679 q 893 831 893 765 q 873 924 893 885 q 818 986 853 963 q 735 1021 783 1010 q 633 1032 688 1032 q 533 1010 572 1032 q 472 938 494 988 q 442 805 450 888 q 433 601 433 722 m 433 35 l 732 35 l 732 201 q 726 344 732 288 q 702 433 719 400 q 655 478 685 465 q 579 490 625 490 q 469 438 504 490 q 433 250 433 386 l 433 35 z "},"i":{"ha":736,"x_min":125,"x_max":611,"o":"m 368 865 q 281 901 317 865 q 244 988 244 938 q 281 1075 244 1039 q 368 1111 317 1111 q 456 1075 419 1111 q 492 988 492 1039 q 456 901 492 938 q 368 865 419 865 m 610 35 l 610 0 l 125 0 l 125 35 l 279 35 l 279 785 l 125 785 l 125 819 l 611 819 l 611 786 l 457 786 l 457 35 l 610 35 z "},"ı":{"ha":736,"x_min":125,"x_max":611,"o":"m 610 35 l 610 0 l 125 0 l 125 35 l 279 35 l 279 785 l 125 785 l 125 819 l 611 819 l 611 786 l 457 786 l 457 35 l 610 35 z "},"ì":{"ha":736,"x_min":65,"x_max":711,"o":"m 610 35 l 610 0 l 125 0 l 125 35 l 279 35 l 279 785 l 125 785 l 125 819 l 611 819 l 611 786 l 457 786 l 457 35 l 610 35 m 65 1065 q 197 1010 132 1033 q 335 969 261 986 q 500 942 408 953 q 711 924 592 931 l 711 903 q 499 904 592 903 q 331 913 406 906 q 193 935 257 919 q 65 978 129 950 l 65 1065 z "},"í":{"ha":736,"x_min":33,"x_max":679,"o":"m 610 35 l 610 0 l 125 0 l 125 35 l 279 35 l 279 785 l 125 785 l 125 819 l 611 819 l 611 786 l 457 786 l 457 35 l 610 35 m 679 1065 l 679 978 q 551 935 615 950 q 413 913 488 919 q 246 904 339 906 q 33 903 153 903 l 33 924 q 244 942 153 931 q 410 969 336 953 q 548 1010 483 986 q 679 1065 613 1033 z "},"î":{"ha":736,"x_min":46,"x_max":699,"o":"m 610 35 l 610 0 l 125 0 l 125 35 l 279 35 l 279 785 l 125 785 l 125 819 l 611 819 l 611 786 l 457 786 l 457 35 l 610 35 m 372 1093 q 448 1027 413 1056 q 520 979 483 999 q 600 946 557 960 q 699 924 643 932 l 699 903 q 517 934 588 913 q 372 1013 447 956 q 227 934 297 956 q 46 903 157 913 l 46 924 q 144 946 101 932 q 224 979 188 960 q 297 1027 261 999 q 372 1093 332 1056 z "},"ï":{"ha":736,"x_min":69,"x_max":667,"o":"m 610 35 l 610 0 l 125 0 l 125 35 l 279 35 l 279 785 l 125 785 l 125 819 l 611 819 l 611 786 l 457 786 l 457 35 l 610 35 m 179 944 q 97 956 124 944 q 69 990 69 968 q 97 1028 69 1014 q 179 1042 124 1042 q 262 1028 235 1042 q 289 990 289 1014 q 262 956 289 968 q 179 944 235 944 m 557 944 q 474 956 501 944 q 447 990 447 968 q 474 1028 447 1014 q 557 1042 501 1042 q 640 1028 613 1042 q 667 990 667 1014 q 640 956 667 968 q 557 944 613 944 z "},"ĩ":{"ha":736,"x_min":100,"x_max":636,"o":"m 610 35 l 610 0 l 125 0 l 125 35 l 279 35 l 279 785 l 125 785 l 125 819 l 611 819 l 611 786 l 457 786 l 457 35 l 610 35 m 229 1069 q 305 1058 265 1069 q 383 1033 344 1047 q 456 1008 421 1019 q 519 997 492 997 q 574 1014 544 997 q 604 1069 604 1031 l 636 1069 q 606 971 636 1006 q 507 936 575 936 q 437 947 474 936 q 363 972 400 958 q 289 997 326 986 q 217 1008 251 1008 q 162 992 192 1008 q 132 936 132 975 l 100 936 q 131 1035 100 1000 q 229 1069 161 1069 z "},"ĭ":{"ha":736,"x_min":93,"x_max":646,"o":"m 610 35 l 610 0 l 125 0 l 125 35 l 279 35 l 279 785 l 125 785 l 125 819 l 611 819 l 611 786 l 457 786 l 457 35 l 610 35 m 646 1069 q 634 1005 646 1032 q 592 960 622 978 q 507 935 561 943 q 369 926 453 926 q 232 935 286 926 q 147 960 178 943 q 105 1005 117 978 q 93 1069 93 1032 l 131 1069 q 139 1031 131 1049 q 172 1002 147 1014 q 244 984 197 990 q 368 978 292 978 q 493 984 446 978 q 566 1002 540 990 q 600 1031 592 1014 q 608 1069 608 1049 l 646 1069 z "},"ī":{"ha":736,"x_min":72,"x_max":664,"o":"m 610 35 l 610 0 l 125 0 l 125 35 l 279 35 l 279 785 l 125 785 l 125 819 l 611 819 l 611 786 l 457 786 l 457 35 l 610 35 m 664 963 l 72 963 l 72 1007 l 664 1007 l 664 963 z "},"j":{"ha":783,"x_min":83,"x_max":649,"o":"m 525 865 q 438 901 474 865 q 401 988 401 938 q 438 1075 401 1039 q 525 1111 474 1111 q 613 1075 576 1111 q 649 988 649 1039 q 613 901 649 938 q 525 865 576 865 m 619 819 l 619 357 q 543 68 619 164 q 300 -28 467 -28 q 142 28 200 -28 q 83 183 83 83 q 135 348 83 283 q 249 471 186 413 q 371 599 313 529 q 442 781 429 668 l 442 782 l 193 782 l 193 819 l 619 819 m 121 183 q 174 51 121 92 q 297 10 226 10 q 414 86 386 10 q 442 357 442 163 l 442 657 q 358 523 413 578 q 251 419 304 468 q 160 317 199 371 q 121 183 121 263 z "},"ȷ":{"ha":783,"x_min":83,"x_max":619,"o":"m 619 819 l 619 357 q 543 68 619 164 q 300 -28 467 -28 q 142 28 200 -28 q 83 183 83 83 q 135 348 83 283 q 249 471 186 413 q 371 599 313 529 q 442 781 429 668 l 442 782 l 193 782 l 193 819 l 619 819 m 121 183 q 174 51 121 92 q 297 10 226 10 q 414 86 386 10 q 442 357 442 163 l 442 657 q 358 523 413 578 q 251 419 304 468 q 160 317 199 371 q 121 183 121 263 z "},"k":{"ha":1167,"x_min":111,"x_max":1083,"o":"m 1083 0 l 111 0 l 111 35 l 256 35 l 256 601 q 346 953 256 836 q 631 1069 436 1069 q 872 1007 785 1069 q 958 831 958 944 q 920 708 958 757 q 824 627 882 660 q 694 571 765 594 q 558 522 624 547 q 656 488 626 519 q 692 381 686 456 q 880 304 817 369 q 943 108 943 239 l 943 35 l 1083 35 l 1083 0 m 433 601 l 433 435 q 468 500 443 469 q 540 549 493 531 q 669 597 601 574 q 793 649 738 619 q 885 722 849 679 q 921 831 921 765 q 899 924 921 885 q 838 986 876 963 q 746 1021 799 1010 q 633 1032 693 1032 q 533 1010 572 1032 q 472 938 494 988 q 442 805 450 888 q 433 601 433 722 m 765 35 l 765 201 q 753 312 765 282 q 694 347 740 342 q 696 317 696 333 q 696 282 696 300 q 667 143 696 186 q 590 100 638 100 q 522 138 550 100 q 493 239 493 175 q 529 349 493 314 q 631 383 565 383 q 642 383 636 383 q 653 383 647 383 q 626 469 647 447 q 561 490 604 490 q 467 438 500 490 q 433 250 433 386 l 433 35 l 765 35 m 532 240 q 547 163 532 189 q 590 138 563 138 q 641 170 625 138 q 657 286 657 203 q 657 320 657 304 q 656 350 657 336 q 643 350 650 350 q 631 350 636 350 q 556 325 579 350 q 532 240 532 300 z "},"l":{"ha":771,"x_min":97,"x_max":667,"o":"m 624 35 l 621 0 l 97 0 l 97 35 l 244 35 l 244 699 q 312 983 244 897 q 524 1069 379 1069 q 630 1021 593 1069 q 667 892 667 972 q 630 714 667 793 q 548 550 593 635 q 465 360 503 465 q 422 104 426 256 l 422 35 l 624 35 m 422 699 l 422 322 q 484 501 449 426 q 551 637 519 575 q 606 758 583 699 q 629 892 629 818 q 599 997 629 963 q 522 1032 569 1032 q 472 1017 492 1032 q 442 966 453 1003 q 426 864 431 929 q 422 699 422 799 z "},"ł":{"ha":771,"x_min":97,"x_max":667,"o":"m 624 35 l 621 0 l 97 0 l 97 35 l 244 35 l 244 510 l 97 439 l 97 481 l 244 551 l 244 699 q 312 983 244 897 q 524 1069 379 1069 q 630 1021 593 1069 q 667 892 667 972 q 630 714 667 793 q 548 550 593 635 q 465 360 503 465 q 422 104 426 256 l 422 35 l 624 35 m 422 699 l 422 638 l 592 721 q 619 801 608 760 q 629 892 629 843 q 599 997 629 963 q 522 1032 569 1032 q 472 1017 492 1032 q 442 966 453 1003 q 426 864 431 929 q 422 699 422 799 m 422 596 l 422 322 q 492 519 451 439 q 567 667 533 599 l 422 596 z "},"m":{"ha":1283,"x_min":97,"x_max":1214,"o":"m 97 1007 l 97 1042 l 364 1042 l 364 888 q 428 1028 386 988 q 533 1069 469 1069 q 653 1024 604 1069 q 724 894 701 978 q 782 1030 744 990 q 882 1069 819 1069 q 1046 981 989 1069 q 1103 739 1103 892 l 1103 35 l 1214 35 l 1214 0 l 97 0 l 97 35 l 214 35 l 214 1007 l 97 1007 m 381 628 l 381 35 l 575 35 l 575 739 q 558 958 575 896 q 497 1019 540 1019 q 415 926 450 1019 q 381 628 381 833 m 742 628 l 742 35 l 936 35 l 936 739 q 915 958 936 897 q 847 1019 894 1019 q 772 926 803 1019 q 742 628 742 832 z "},"n":{"ha":1222,"x_min":125,"x_max":1104,"o":"m 563 35 l 563 0 l 125 0 l 125 35 l 269 35 l 269 1007 l 125 1007 l 125 1042 l 433 1042 l 433 849 q 518 1017 458 965 q 661 1069 578 1069 q 794 1049 738 1069 q 887 981 850 1029 q 942 852 924 933 q 960 649 960 771 l 960 35 l 1104 35 l 1104 0 l 660 0 l 660 35 l 782 35 l 782 592 q 776 806 782 722 q 753 938 769 890 q 708 1005 736 986 q 639 1024 681 1024 q 490 922 532 1024 q 447 599 447 821 l 447 35 l 563 35 z "},"ń":{"ha":1292,"x_min":125,"x_max":1104,"o":"m 563 35 l 563 0 l 125 0 l 125 35 l 269 35 l 269 1007 l 125 1007 l 125 1042 l 433 1042 l 433 849 q 518 1017 458 965 q 661 1069 578 1069 q 794 1049 738 1069 q 887 981 850 1029 q 942 852 924 933 q 960 649 960 771 l 960 35 l 1104 35 l 1104 0 l 660 0 l 660 35 l 782 35 l 782 592 q 776 806 782 722 q 753 938 769 890 q 708 1005 736 986 q 639 1024 681 1024 q 490 922 532 1024 q 447 599 447 821 l 447 35 l 563 35 m 1007 1274 l 1007 1186 q 879 1143 943 1158 q 741 1121 815 1128 q 574 1113 667 1114 q 361 1111 481 1111 l 361 1132 q 572 1150 481 1139 q 738 1178 664 1161 q 876 1218 811 1194 q 1007 1274 940 1242 z "},"ñ":{"ha":1222,"x_min":125,"x_max":1104,"o":"m 507 1244 q 583 1233 543 1244 q 660 1208 622 1222 q 734 1183 699 1194 q 797 1172 769 1172 q 852 1189 822 1172 q 882 1244 882 1206 l 914 1244 q 883 1146 914 1181 q 785 1111 853 1111 q 715 1122 751 1111 q 641 1147 678 1133 q 567 1172 604 1161 q 494 1183 529 1183 q 440 1167 469 1183 q 410 1111 410 1150 l 378 1111 q 408 1210 378 1175 q 507 1244 439 1244 m 563 35 l 563 0 l 125 0 l 125 35 l 269 35 l 269 1007 l 125 1007 l 125 1042 l 433 1042 l 433 849 q 518 1017 458 965 q 661 1069 578 1069 q 794 1049 738 1069 q 887 981 850 1029 q 942 852 924 933 q 960 649 960 771 l 960 35 l 1104 35 l 1104 0 l 660 0 l 660 35 l 782 35 l 782 592 q 776 806 782 722 q 753 938 769 890 q 708 1005 736 986 q 639 1024 681 1024 q 490 922 532 1024 q 447 599 447 821 l 447 35 l 563 35 z "},"ň":{"ha":1222,"x_min":125,"x_max":1104,"o":"m 563 35 l 563 0 l 125 0 l 125 35 l 269 35 l 269 1007 l 125 1007 l 125 1042 l 433 1042 l 433 849 q 518 1017 458 965 q 661 1069 578 1069 q 794 1049 738 1069 q 887 981 850 1029 q 942 852 924 933 q 960 649 960 771 l 960 35 l 1104 35 l 1104 0 l 660 0 l 660 35 l 782 35 l 782 592 q 776 806 782 722 q 753 938 769 890 q 708 1005 736 986 q 639 1024 681 1024 q 490 922 532 1024 q 447 599 447 821 l 447 35 l 563 35 m 590 1083 q 515 1149 550 1121 q 442 1197 479 1178 q 363 1231 406 1217 q 264 1253 319 1244 l 264 1274 q 445 1242 375 1264 q 590 1164 515 1221 q 735 1242 665 1221 q 917 1274 806 1264 l 917 1253 q 818 1231 861 1244 q 738 1197 775 1217 q 666 1149 701 1178 q 590 1083 631 1121 z "},"o":{"ha":1153,"x_min":125,"x_max":1028,"o":"m 575 1069 q 914 924 800 1069 q 1028 511 1028 779 q 911 112 1028 251 q 575 -28 794 -28 q 240 112 356 -28 q 125 511 125 251 q 239 924 125 779 q 575 1069 353 1069 m 575 1035 q 375 914 431 1035 q 319 510 319 793 q 376 124 319 242 q 575 7 433 7 q 775 124 717 7 q 833 510 833 242 q 776 914 833 793 q 575 1035 719 1035 z "},"ò":{"ha":1153,"x_min":125,"x_max":1028,"o":"m 575 1069 q 914 924 800 1069 q 1028 511 1028 779 q 911 112 1028 251 q 575 -28 794 -28 q 240 112 356 -28 q 125 511 125 251 q 239 924 125 779 q 575 1069 353 1069 m 575 1035 q 375 914 431 1035 q 319 510 319 793 q 376 124 319 242 q 575 7 433 7 q 775 124 717 7 q 833 510 833 242 q 776 914 833 793 q 575 1035 719 1035 m 283 1274 q 415 1218 350 1242 q 553 1178 479 1194 q 718 1150 626 1161 q 929 1132 810 1139 l 929 1111 q 717 1113 810 1111 q 549 1121 624 1114 q 411 1143 475 1128 q 283 1186 347 1158 l 283 1274 z "},"ó":{"ha":1153,"x_min":125,"x_max":1028,"o":"m 575 1069 q 914 924 800 1069 q 1028 511 1028 779 q 911 112 1028 251 q 575 -28 794 -28 q 240 112 356 -28 q 125 511 125 251 q 239 924 125 779 q 575 1069 353 1069 m 575 1035 q 375 914 431 1035 q 319 510 319 793 q 376 124 319 242 q 575 7 433 7 q 775 124 717 7 q 833 510 833 242 q 776 914 833 793 q 575 1035 719 1035 m 897 1274 l 897 1186 q 769 1143 833 1158 q 631 1121 706 1128 q 464 1113 557 1114 q 251 1111 371 1111 l 251 1132 q 463 1150 371 1139 q 628 1178 554 1161 q 766 1218 701 1194 q 897 1274 831 1242 z "},"ô":{"ha":1153,"x_min":125,"x_max":1028,"o":"m 575 1069 q 914 924 800 1069 q 1028 511 1028 779 q 911 112 1028 251 q 575 -28 794 -28 q 240 112 356 -28 q 125 511 125 251 q 239 924 125 779 q 575 1069 353 1069 m 575 1035 q 375 914 431 1035 q 319 510 319 793 q 376 124 319 242 q 575 7 433 7 q 775 124 717 7 q 833 510 833 242 q 776 914 833 793 q 575 1035 719 1035 m 590 1301 q 666 1235 631 1264 q 738 1188 701 1207 q 818 1154 775 1168 q 917 1132 861 1140 l 917 1111 q 735 1142 806 1121 q 590 1221 665 1164 q 445 1142 515 1164 q 264 1111 375 1121 l 264 1132 q 363 1154 319 1140 q 442 1188 406 1168 q 515 1235 479 1207 q 590 1301 550 1264 z "},"õ":{"ha":1153,"x_min":125,"x_max":1028,"o":"m 575 1069 q 914 924 800 1069 q 1028 511 1028 779 q 911 112 1028 251 q 575 -28 794 -28 q 240 112 356 -28 q 125 511 125 251 q 239 924 125 779 q 575 1069 353 1069 m 575 1035 q 375 914 431 1035 q 319 510 319 793 q 376 124 319 242 q 575 7 433 7 q 775 124 717 7 q 833 510 833 242 q 776 914 833 793 q 575 1035 719 1035 m 447 1244 q 523 1233 483 1244 q 601 1208 563 1222 q 674 1183 639 1194 q 738 1172 710 1172 q 792 1189 763 1172 q 822 1244 822 1206 l 854 1244 q 824 1146 854 1181 q 725 1111 793 1111 q 655 1122 692 1111 q 581 1147 618 1133 q 507 1172 544 1161 q 435 1183 469 1183 q 380 1167 410 1183 q 350 1111 350 1150 l 318 1111 q 349 1210 318 1175 q 447 1244 379 1244 z "},"ö":{"ha":1153,"x_min":125,"x_max":1028,"o":"m 575 1069 q 914 924 800 1069 q 1028 511 1028 779 q 911 112 1028 251 q 575 -28 794 -28 q 240 112 356 -28 q 125 511 125 251 q 239 924 125 779 q 575 1069 353 1069 m 575 1035 q 375 914 431 1035 q 319 510 319 793 q 376 124 319 242 q 575 7 433 7 q 775 124 717 7 q 833 510 833 242 q 776 914 833 793 q 575 1035 719 1035 m 397 1111 q 315 1123 342 1111 q 288 1157 288 1135 q 315 1194 288 1181 q 397 1208 342 1208 q 480 1194 453 1208 q 507 1157 507 1181 q 480 1123 507 1135 q 397 1111 453 1111 m 775 1111 q 692 1123 719 1111 q 665 1157 665 1135 q 692 1194 665 1181 q 775 1208 719 1208 q 858 1194 831 1208 q 885 1157 885 1181 q 858 1123 885 1135 q 775 1111 831 1111 z "},"ŏ":{"ha":1153,"x_min":125,"x_max":1028,"o":"m 575 1069 q 914 924 800 1069 q 1028 511 1028 779 q 911 112 1028 251 q 575 -28 794 -28 q 240 112 356 -28 q 125 511 125 251 q 239 924 125 779 q 575 1069 353 1069 m 575 1035 q 375 914 431 1035 q 319 510 319 793 q 376 124 319 242 q 575 7 433 7 q 775 124 717 7 q 833 510 833 242 q 776 914 833 793 q 575 1035 719 1035 m 864 1254 q 852 1190 864 1217 q 810 1145 840 1163 q 725 1119 779 1128 q 588 1111 671 1111 q 450 1119 504 1111 q 365 1145 396 1128 q 323 1190 335 1163 q 311 1254 311 1217 l 349 1254 q 357 1216 349 1233 q 390 1187 365 1199 q 463 1169 415 1175 q 586 1163 510 1163 q 711 1169 664 1163 q 784 1187 758 1175 q 818 1216 810 1199 q 826 1254 826 1233 l 864 1254 z "},"ō":{"ha":1153,"x_min":125,"x_max":1028,"o":"m 575 1069 q 914 924 800 1069 q 1028 511 1028 779 q 911 112 1028 251 q 575 -28 794 -28 q 240 112 356 -28 q 125 511 125 251 q 239 924 125 779 q 575 1069 353 1069 m 575 1035 q 375 914 431 1035 q 319 510 319 793 q 376 124 319 242 q 575 7 433 7 q 775 124 717 7 q 833 510 833 242 q 776 914 833 793 q 575 1035 719 1035 m 886 1146 l 294 1146 l 294 1190 l 886 1190 l 886 1146 z "},"ő":{"ha":1153,"x_min":125,"x_max":1028,"o":"m 575 1069 q 914 924 800 1069 q 1028 511 1028 779 q 911 112 1028 251 q 575 -28 794 -28 q 240 112 356 -28 q 125 511 125 251 q 239 924 125 779 q 575 1069 353 1069 m 575 1035 q 375 914 431 1035 q 319 510 319 793 q 376 124 319 242 q 575 7 433 7 q 775 124 717 7 q 833 510 833 242 q 776 914 833 793 q 575 1035 719 1035 m 578 1274 l 578 1186 q 437 1125 510 1139 q 251 1111 364 1111 l 251 1132 q 432 1175 357 1139 q 578 1274 507 1211 m 897 1274 l 897 1186 q 756 1125 829 1139 q 571 1111 683 1111 l 571 1132 q 751 1175 676 1139 q 897 1274 826 1211 z "},"p":{"ha":1186,"x_min":125,"x_max":1033,"o":"m 125 1007 l 125 1042 l 433 1042 l 433 882 q 517 1024 460 979 q 650 1069 574 1069 q 937 944 840 1069 q 1033 589 1033 819 q 937 234 1033 358 q 650 110 840 110 q 561 124 597 110 q 501 159 525 139 q 465 202 478 179 q 447 240 453 225 l 447 35 l 735 35 l 735 0 l 132 0 l 132 35 l 269 35 l 269 1007 l 125 1007 m 651 1032 q 549 1007 589 1032 q 487 938 510 982 q 456 835 464 894 q 447 706 447 775 l 447 407 q 507 201 447 254 q 653 147 567 147 q 747 165 710 147 q 803 231 783 183 q 831 365 824 279 q 839 585 839 451 q 830 801 839 715 q 799 939 821 888 q 742 1011 778 990 q 651 1032 706 1032 z "},"q":{"ha":1132,"x_min":153,"x_max":1042,"o":"m 192 0 l 192 35 l 738 35 l 738 243 q 719 203 732 226 q 684 159 707 179 q 625 124 661 139 q 538 110 589 110 q 249 234 344 110 q 153 589 153 358 q 247 944 153 819 q 524 1069 342 1069 q 672 1026 621 1069 q 744 918 724 982 l 882 1042 l 915 1042 l 915 35 l 1042 35 l 1042 0 l 192 0 m 536 1032 q 444 1011 481 1032 q 387 939 408 990 q 356 801 365 888 q 347 585 347 715 q 355 365 347 451 q 383 231 363 279 q 441 165 404 183 q 535 147 478 147 q 678 201 618 147 q 738 407 738 254 l 738 706 q 729 835 738 775 q 699 938 721 894 q 637 1007 676 982 q 536 1032 597 1032 z "},"r":{"ha":933,"x_min":125,"x_max":833,"o":"m 665 35 l 665 0 l 125 0 l 125 35 l 289 35 l 289 1007 l 125 1007 l 125 1042 l 453 1042 l 453 882 q 524 1028 476 986 q 639 1069 571 1069 q 736 1043 696 1069 q 799 953 776 1017 l 799 1042 l 833 1042 l 833 607 l 799 607 l 799 647 q 789 837 799 763 q 760 953 779 911 q 710 1013 740 996 q 639 1029 679 1029 q 503 926 540 1029 q 467 599 467 824 l 467 35 l 665 35 z "},"s":{"ha":1008,"x_min":139,"x_max":856,"o":"m 139 276 l 139 365 l 174 365 l 174 279 q 249 74 174 139 q 458 10 325 10 q 628 56 579 10 q 676 183 676 103 q 626 349 676 289 q 456 460 576 408 q 238 598 303 524 q 174 790 174 672 q 200 911 174 858 q 269 999 226 964 q 364 1051 311 1033 q 468 1069 417 1069 q 621 1027 550 1069 q 731 896 692 985 l 731 1042 l 765 1042 l 765 704 l 731 704 l 731 721 q 710 855 731 796 q 656 953 690 914 q 578 1012 622 992 q 489 1032 535 1032 q 377 990 414 1032 q 340 847 340 947 q 351 764 340 799 q 390 702 363 729 q 462 651 417 675 q 575 600 507 626 q 791 451 726 540 q 856 250 856 363 q 824 128 856 181 q 740 42 793 76 q 614 -10 686 7 q 463 -28 542 -28 q 224 48 308 -28 q 139 276 139 124 z "},"ś":{"ha":1008,"x_min":136,"x_max":856,"o":"m 139 276 l 139 365 l 174 365 l 174 279 q 249 74 174 139 q 458 10 325 10 q 628 56 579 10 q 676 183 676 103 q 626 349 676 289 q 456 460 576 408 q 238 598 303 524 q 174 790 174 672 q 200 911 174 858 q 269 999 226 964 q 364 1051 311 1033 q 468 1069 417 1069 q 621 1027 550 1069 q 731 896 692 985 l 731 1042 l 765 1042 l 765 704 l 731 704 l 731 721 q 710 855 731 796 q 656 953 690 914 q 578 1012 622 992 q 489 1032 535 1032 q 377 990 414 1032 q 340 847 340 947 q 351 764 340 799 q 390 702 363 729 q 462 651 417 675 q 575 600 507 626 q 791 451 726 540 q 856 250 856 363 q 824 128 856 181 q 740 42 793 76 q 614 -10 686 7 q 463 -28 542 -28 q 224 48 308 -28 q 139 276 139 124 m 782 1274 l 782 1186 q 654 1143 718 1158 q 516 1121 590 1128 q 349 1113 442 1114 q 136 1111 256 1111 l 136 1132 q 347 1150 256 1139 q 513 1178 439 1161 q 651 1218 586 1194 q 782 1274 715 1242 z "},"ŝ":{"ha":1008,"x_min":139,"x_max":856,"o":"m 139 276 l 139 365 l 174 365 l 174 279 q 249 74 174 139 q 458 10 325 10 q 628 56 579 10 q 676 183 676 103 q 626 349 676 289 q 456 460 576 408 q 238 598 303 524 q 174 790 174 672 q 200 911 174 858 q 269 999 226 964 q 364 1051 311 1033 q 468 1069 417 1069 q 621 1027 550 1069 q 731 896 692 985 l 731 1042 l 765 1042 l 765 704 l 731 704 l 731 721 q 710 855 731 796 q 656 953 690 914 q 578 1012 622 992 q 489 1032 535 1032 q 377 990 414 1032 q 340 847 340 947 q 351 764 340 799 q 390 702 363 729 q 462 651 417 675 q 575 600 507 626 q 791 451 726 540 q 856 250 856 363 q 824 128 856 181 q 740 42 793 76 q 614 -10 686 7 q 463 -28 542 -28 q 224 48 308 -28 q 139 276 139 124 m 475 1301 q 551 1235 515 1264 q 623 1188 586 1207 q 703 1154 660 1168 q 801 1132 746 1140 l 801 1111 q 620 1142 690 1121 q 475 1221 550 1164 q 330 1142 400 1164 q 149 1111 260 1121 l 149 1132 q 247 1154 204 1140 q 327 1188 290 1168 q 399 1235 364 1207 q 475 1301 435 1264 z "},"š":{"ha":1008,"x_min":139,"x_max":856,"o":"m 139 276 l 139 365 l 174 365 l 174 279 q 249 74 174 139 q 458 10 325 10 q 628 56 579 10 q 676 183 676 103 q 626 349 676 289 q 456 460 576 408 q 238 598 303 524 q 174 790 174 672 q 200 911 174 858 q 269 999 226 964 q 364 1051 311 1033 q 468 1069 417 1069 q 621 1027 550 1069 q 731 896 692 985 l 731 1042 l 765 1042 l 765 704 l 731 704 l 731 721 q 710 855 731 796 q 656 953 690 914 q 578 1012 622 992 q 489 1032 535 1032 q 377 990 414 1032 q 340 847 340 947 q 351 764 340 799 q 390 702 363 729 q 462 651 417 675 q 575 600 507 626 q 791 451 726 540 q 856 250 856 363 q 824 128 856 181 q 740 42 793 76 q 614 -10 686 7 q 463 -28 542 -28 q 224 48 308 -28 q 139 276 139 124 m 475 1083 q 399 1149 435 1121 q 327 1197 364 1178 q 247 1231 290 1217 q 149 1253 204 1244 l 149 1274 q 330 1242 260 1264 q 475 1164 400 1221 q 620 1242 550 1221 q 801 1274 690 1264 l 801 1253 q 703 1231 746 1244 q 623 1197 660 1217 q 551 1149 586 1178 q 475 1083 515 1121 z "},"t":{"ha":789,"x_min":56,"x_max":713,"o":"m 231 314 l 231 819 l 56 819 l 56 857 l 163 857 l 372 1069 l 407 1069 l 407 857 l 713 857 l 713 819 l 407 819 l 407 314 q 432 89 407 154 q 524 24 457 24 q 572 36 547 24 q 617 75 597 49 q 650 144 638 101 q 663 249 663 188 l 699 249 q 681 120 699 174 q 635 34 664 67 q 567 -13 606 1 q 488 -28 529 -28 q 294 59 357 -28 q 231 314 231 146 z "},"u":{"ha":1197,"x_min":83,"x_max":1069,"o":"m 228 393 l 228 1007 l 83 1007 l 83 1042 l 918 1042 l 918 165 q 933 59 918 93 q 979 25 949 25 q 1024 57 1013 25 q 1035 168 1035 89 l 1035 271 l 1069 271 l 1069 165 q 1041 13 1069 54 q 926 -28 1013 -28 q 798 15 842 -28 q 754 192 754 58 l 754 193 q 669 24 729 76 q 526 -28 610 -28 q 394 -8 450 -28 q 301 60 338 13 q 246 190 264 108 q 228 393 228 271 m 406 450 q 412 235 406 319 q 435 103 418 151 q 479 37 451 56 q 549 18 507 18 q 698 119 656 18 q 740 443 740 221 l 740 1007 l 406 1007 l 406 450 z "},"ù":{"ha":1197,"x_min":83,"x_max":1069,"o":"m 228 393 l 228 1007 l 83 1007 l 83 1042 l 918 1042 l 918 165 q 933 59 918 93 q 979 25 949 25 q 1024 57 1013 25 q 1035 168 1035 89 l 1035 271 l 1069 271 l 1069 165 q 1041 13 1069 54 q 926 -28 1013 -28 q 798 15 842 -28 q 754 192 754 58 l 754 193 q 669 24 729 76 q 526 -28 610 -28 q 394 -8 450 -28 q 301 60 338 13 q 246 190 264 108 q 228 393 228 271 m 406 450 q 412 235 406 319 q 435 103 418 151 q 479 37 451 56 q 549 18 507 18 q 698 119 656 18 q 740 443 740 221 l 740 1007 l 406 1007 l 406 450 m 240 1274 q 372 1218 307 1242 q 510 1178 436 1194 q 675 1150 583 1161 q 886 1132 767 1139 l 886 1111 q 674 1113 767 1111 q 506 1121 581 1114 q 368 1143 432 1128 q 240 1186 304 1158 l 240 1274 z "},"ú":{"ha":1197,"x_min":83,"x_max":1069,"o":"m 228 393 l 228 1007 l 83 1007 l 83 1042 l 918 1042 l 918 165 q 933 59 918 93 q 979 25 949 25 q 1024 57 1013 25 q 1035 168 1035 89 l 1035 271 l 1069 271 l 1069 165 q 1041 13 1069 54 q 926 -28 1013 -28 q 798 15 842 -28 q 754 192 754 58 l 754 193 q 669 24 729 76 q 526 -28 610 -28 q 394 -8 450 -28 q 301 60 338 13 q 246 190 264 108 q 228 393 228 271 m 406 450 q 412 235 406 319 q 435 103 418 151 q 479 37 451 56 q 549 18 507 18 q 698 119 656 18 q 740 443 740 221 l 740 1007 l 406 1007 l 406 450 m 854 1274 l 854 1186 q 726 1143 790 1158 q 588 1121 663 1128 q 421 1113 514 1114 q 208 1111 328 1111 l 208 1132 q 419 1150 328 1139 q 585 1178 511 1161 q 723 1218 658 1194 q 854 1274 788 1242 z "},"û":{"ha":1197,"x_min":83,"x_max":1069,"o":"m 228 393 l 228 1007 l 83 1007 l 83 1042 l 918 1042 l 918 165 q 933 59 918 93 q 979 25 949 25 q 1024 57 1013 25 q 1035 168 1035 89 l 1035 271 l 1069 271 l 1069 165 q 1041 13 1069 54 q 926 -28 1013 -28 q 798 15 842 -28 q 754 192 754 58 l 754 193 q 669 24 729 76 q 526 -28 610 -28 q 394 -8 450 -28 q 301 60 338 13 q 246 190 264 108 q 228 393 228 271 m 406 450 q 412 235 406 319 q 435 103 418 151 q 479 37 451 56 q 549 18 507 18 q 698 119 656 18 q 740 443 740 221 l 740 1007 l 406 1007 l 406 450 m 547 1301 q 623 1235 588 1264 q 695 1188 658 1207 q 775 1154 732 1168 q 874 1132 818 1140 l 874 1111 q 692 1142 763 1121 q 547 1221 622 1164 q 402 1142 472 1164 q 221 1111 332 1121 l 221 1132 q 319 1154 276 1140 q 399 1188 363 1168 q 472 1235 436 1207 q 547 1301 507 1264 z "},"ü":{"ha":1197,"x_min":83,"x_max":1069,"o":"m 228 393 l 228 1007 l 83 1007 l 83 1042 l 918 1042 l 918 165 q 933 59 918 93 q 979 25 949 25 q 1024 57 1013 25 q 1035 168 1035 89 l 1035 271 l 1069 271 l 1069 165 q 1041 13 1069 54 q 926 -28 1013 -28 q 798 15 842 -28 q 754 192 754 58 l 754 193 q 669 24 729 76 q 526 -28 610 -28 q 394 -8 450 -28 q 301 60 338 13 q 246 190 264 108 q 228 393 228 271 m 406 450 q 412 235 406 319 q 435 103 418 151 q 479 37 451 56 q 549 18 507 18 q 698 119 656 18 q 740 443 740 221 l 740 1007 l 406 1007 l 406 450 m 354 1111 q 272 1123 299 1111 q 244 1157 244 1135 q 272 1194 244 1181 q 354 1208 299 1208 q 437 1194 410 1208 q 464 1157 464 1181 q 437 1123 464 1135 q 354 1111 410 1111 m 732 1111 q 649 1123 676 1111 q 622 1157 622 1135 q 649 1194 622 1181 q 732 1208 676 1208 q 815 1194 788 1208 q 842 1157 842 1181 q 815 1123 842 1135 q 732 1111 788 1111 z "},"ũ":{"ha":1197,"x_min":83,"x_max":1069,"o":"m 228 393 l 228 1007 l 83 1007 l 83 1042 l 918 1042 l 918 165 q 933 59 918 93 q 979 25 949 25 q 1024 57 1013 25 q 1035 168 1035 89 l 1035 271 l 1069 271 l 1069 165 q 1041 13 1069 54 q 926 -28 1013 -28 q 798 15 842 -28 q 754 192 754 58 l 754 193 q 669 24 729 76 q 526 -28 610 -28 q 394 -8 450 -28 q 301 60 338 13 q 246 190 264 108 q 228 393 228 271 m 406 450 q 412 235 406 319 q 435 103 418 151 q 479 37 451 56 q 549 18 507 18 q 698 119 656 18 q 740 443 740 221 l 740 1007 l 406 1007 l 406 450 m 404 1244 q 480 1233 440 1244 q 558 1208 519 1222 q 631 1183 596 1194 q 694 1172 667 1172 q 749 1189 719 1172 q 779 1244 779 1206 l 811 1244 q 781 1146 811 1181 q 682 1111 750 1111 q 612 1122 649 1111 q 538 1147 575 1133 q 464 1172 501 1161 q 392 1183 426 1183 q 337 1167 367 1183 q 307 1111 307 1150 l 275 1111 q 306 1210 275 1175 q 404 1244 336 1244 z "},"ŭ":{"ha":1197,"x_min":83,"x_max":1069,"o":"m 228 393 l 228 1007 l 83 1007 l 83 1042 l 918 1042 l 918 165 q 933 59 918 93 q 979 25 949 25 q 1024 57 1013 25 q 1035 168 1035 89 l 1035 271 l 1069 271 l 1069 165 q 1041 13 1069 54 q 926 -28 1013 -28 q 798 15 842 -28 q 754 192 754 58 l 754 193 q 669 24 729 76 q 526 -28 610 -28 q 394 -8 450 -28 q 301 60 338 13 q 246 190 264 108 q 228 393 228 271 m 406 450 q 412 235 406 319 q 435 103 418 151 q 479 37 451 56 q 549 18 507 18 q 698 119 656 18 q 740 443 740 221 l 740 1007 l 406 1007 l 406 450 m 821 1254 q 809 1190 821 1217 q 767 1145 797 1163 q 682 1119 736 1128 q 544 1111 628 1111 q 407 1119 461 1111 q 322 1145 353 1128 q 280 1190 292 1163 q 268 1254 268 1217 l 306 1254 q 314 1216 306 1233 q 347 1187 322 1199 q 419 1169 372 1175 q 543 1163 467 1163 q 668 1169 621 1163 q 741 1187 715 1175 q 775 1216 767 1199 q 783 1254 783 1233 l 821 1254 z "},"ū":{"ha":1197,"x_min":83,"x_max":1069,"o":"m 228 393 l 228 1007 l 83 1007 l 83 1042 l 918 1042 l 918 165 q 933 59 918 93 q 979 25 949 25 q 1024 57 1013 25 q 1035 168 1035 89 l 1035 271 l 1069 271 l 1069 165 q 1041 13 1069 54 q 926 -28 1013 -28 q 798 15 842 -28 q 754 192 754 58 l 754 193 q 669 24 729 76 q 526 -28 610 -28 q 394 -8 450 -28 q 301 60 338 13 q 246 190 264 108 q 228 393 228 271 m 406 450 q 412 235 406 319 q 435 103 418 151 q 479 37 451 56 q 549 18 507 18 q 698 119 656 18 q 740 443 740 221 l 740 1007 l 406 1007 l 406 450 m 843 1146 l 251 1146 l 251 1190 l 843 1190 l 843 1146 z "},"ů":{"ha":1197,"x_min":83,"x_max":1069,"o":"m 228 393 l 228 1007 l 83 1007 l 83 1042 l 918 1042 l 918 165 q 933 59 918 93 q 979 25 949 25 q 1024 57 1013 25 q 1035 168 1035 89 l 1035 271 l 1069 271 l 1069 165 q 1041 13 1069 54 q 926 -28 1013 -28 q 798 15 842 -28 q 754 192 754 58 l 754 193 q 669 24 729 76 q 526 -28 610 -28 q 394 -8 450 -28 q 301 60 338 13 q 246 190 264 108 q 228 393 228 271 m 406 450 q 412 235 406 319 q 435 103 418 151 q 479 37 451 56 q 549 18 507 18 q 698 119 656 18 q 740 443 740 221 l 740 1007 l 406 1007 l 406 450 m 821 1185 q 809 1151 821 1165 q 767 1128 797 1138 q 682 1115 736 1119 q 544 1111 628 1111 q 407 1115 461 1111 q 322 1128 353 1119 q 280 1151 292 1138 q 268 1185 268 1165 q 280 1218 268 1204 q 322 1241 292 1232 q 407 1254 353 1250 q 544 1258 461 1258 q 682 1254 628 1258 q 767 1241 736 1250 q 809 1218 797 1232 q 821 1185 821 1204 m 306 1185 q 314 1169 306 1176 q 347 1158 322 1163 q 419 1151 372 1154 q 543 1149 467 1149 q 668 1151 621 1149 q 741 1158 715 1154 q 775 1169 767 1163 q 783 1185 783 1176 q 775 1200 783 1193 q 741 1211 767 1207 q 668 1218 715 1215 q 543 1221 621 1221 q 419 1218 467 1221 q 347 1211 372 1215 q 314 1200 322 1207 q 306 1185 306 1193 z "},"ű":{"ha":1197,"x_min":83,"x_max":1069,"o":"m 228 393 l 228 1007 l 83 1007 l 83 1042 l 918 1042 l 918 165 q 933 59 918 93 q 979 25 949 25 q 1024 57 1013 25 q 1035 168 1035 89 l 1035 271 l 1069 271 l 1069 165 q 1041 13 1069 54 q 926 -28 1013 -28 q 798 15 842 -28 q 754 192 754 58 l 754 193 q 669 24 729 76 q 526 -28 610 -28 q 394 -8 450 -28 q 301 60 338 13 q 246 190 264 108 q 228 393 228 271 m 406 450 q 412 235 406 319 q 435 103 418 151 q 479 37 451 56 q 549 18 507 18 q 698 119 656 18 q 740 443 740 221 l 740 1007 l 406 1007 l 406 450 m 535 1274 l 535 1186 q 394 1125 467 1139 q 208 1111 321 1111 l 208 1132 q 389 1175 314 1139 q 535 1274 464 1211 m 854 1274 l 854 1186 q 713 1125 786 1139 q 528 1111 640 1111 l 528 1132 q 708 1175 633 1139 q 854 1274 783 1211 z "},"v":{"ha":1076,"x_min":83,"x_max":1000,"o":"m 83 1007 l 83 1042 l 494 1042 l 494 1007 l 399 1007 l 399 389 q 403 195 399 267 q 422 88 408 124 q 461 43 436 53 q 525 33 486 33 q 635 82 583 33 q 728 212 688 131 q 797 403 769 293 q 835 633 825 513 q 778 612 808 619 q 715 604 747 604 q 547 667 601 604 q 492 835 492 731 q 545 1004 492 939 q 686 1069 599 1069 q 825 991 769 1069 q 881 775 881 913 q 881 747 881 761 q 879 718 881 732 q 940 846 918 765 q 960 1042 963 926 l 1000 1042 q 966 806 1000 900 q 876 664 932 713 q 837 404 868 529 q 755 183 806 279 q 634 30 704 88 q 476 -28 564 -28 q 288 66 354 -28 q 221 389 221 160 l 221 1007 l 83 1007 m 531 835 q 575 693 531 743 q 732 643 619 643 q 786 651 758 643 q 838 678 814 660 q 840 724 839 700 q 840 769 840 747 q 799 962 840 893 q 688 1031 757 1031 q 574 979 617 1031 q 531 835 531 928 z "},"w":{"ha":1299,"x_min":83,"x_max":1222,"o":"m 642 835 q 696 693 642 743 q 885 643 750 643 q 962 653 924 643 q 1035 686 1000 664 q 981 949 1033 867 q 840 1031 928 1031 q 695 979 749 1031 q 642 835 642 928 m 475 522 l 475 561 l 793 561 l 793 279 q 794 149 793 200 q 800 68 794 97 q 818 27 806 39 q 853 15 831 15 q 955 75 918 15 q 1009 226 992 135 q 1031 429 1026 318 q 1035 643 1035 540 q 955 614 997 624 q 868 604 913 604 q 667 667 732 604 q 603 835 603 731 q 667 1004 603 939 q 839 1069 732 1069 q 1003 984 938 1069 q 1075 717 1069 899 q 1155 844 1125 764 q 1182 1042 1185 925 l 1222 1042 q 1182 811 1222 904 q 1075 668 1142 718 q 1072 435 1075 558 q 1047 210 1069 313 q 974 40 1024 108 q 831 -28 924 -28 q 699 -1 749 -28 q 633 85 650 25 q 577 -3 615 22 q 478 -28 539 -28 q 273 72 325 -28 q 221 389 221 171 l 221 1007 l 83 1007 l 83 1042 l 550 1042 l 550 1007 l 399 1007 l 399 389 q 400 205 399 278 q 410 90 401 132 q 440 32 419 49 q 500 15 461 15 q 591 75 565 15 q 617 279 617 135 l 617 522 l 475 522 z "},"x":{"ha":1153,"x_min":107,"x_max":1033,"o":"m 374 1069 q 546 1014 481 1069 q 638 825 611 958 q 709 1002 663 935 q 815 1069 756 1069 q 886 1052 851 1069 q 947 994 921 1035 q 990 884 974 953 q 1006 713 1006 815 l 968 713 q 925 959 968 886 q 822 1032 882 1032 q 706 913 753 1032 q 660 572 660 794 q 704 171 660 311 q 838 31 749 31 q 913 56 883 31 q 961 125 943 82 q 987 226 979 168 q 996 349 994 285 l 1033 349 q 1024 216 1033 283 q 990 94 1015 149 q 917 6 964 40 q 797 -28 871 -28 q 615 51 685 -28 q 515 283 546 129 q 434 51 485 131 q 304 -28 383 -28 q 206 6 244 -28 q 146 94 168 40 q 115 216 124 149 q 107 349 107 283 l 144 349 q 153 219 146 281 q 178 111 161 157 q 226 38 196 65 q 300 11 256 11 q 440 156 388 11 q 492 572 492 301 q 439 907 492 790 q 318 1024 386 1024 q 215 953 258 1024 q 172 713 172 882 l 135 713 q 152 884 135 815 q 201 994 169 953 q 276 1052 232 1035 q 374 1069 321 1069 z "},"y":{"ha":1126,"x_min":83,"x_max":1015,"o":"m 1015 1042 l 1015 1007 l 883 1007 l 883 342 q 792 64 883 156 q 508 -28 700 -28 q 245 35 338 -28 q 153 235 153 97 q 185 364 153 314 q 267 448 217 414 q 379 508 317 482 q 501 567 442 533 l 210 1007 l 83 1007 l 83 1042 l 1015 1042 m 846 342 l 846 1007 l 439 1007 l 846 314 q 846 327 846 319 q 846 342 846 335 m 190 235 q 272 63 190 117 q 506 10 353 10 q 684 37 613 10 q 794 124 756 64 l 521 538 q 400 482 460 507 q 294 426 340 457 q 219 349 247 394 q 190 235 190 304 z "},"ý":{"ha":1126,"x_min":83,"x_max":1015,"o":"m 1015 1042 l 1015 1007 l 883 1007 l 883 342 q 792 64 883 156 q 508 -28 700 -28 q 245 35 338 -28 q 153 235 153 97 q 185 364 153 314 q 267 448 217 414 q 379 508 317 482 q 501 567 442 533 l 210 1007 l 83 1007 l 83 1042 l 1015 1042 m 846 342 l 846 1007 l 439 1007 l 846 314 q 846 327 846 319 q 846 342 846 335 m 190 235 q 272 63 190 117 q 506 10 353 10 q 684 37 613 10 q 794 124 756 64 l 521 538 q 400 482 460 507 q 294 426 340 457 q 219 349 247 394 q 190 235 190 304 m 947 1274 l 947 1186 q 819 1143 883 1158 q 681 1121 756 1128 q 514 1113 607 1114 q 301 1111 421 1111 l 301 1132 q 513 1150 421 1139 q 678 1178 604 1161 q 816 1218 751 1194 q 947 1274 881 1242 z "},"ÿ":{"ha":1126,"x_min":83,"x_max":1015,"o":"m 1015 1042 l 1015 1007 l 883 1007 l 883 342 q 792 64 883 156 q 508 -28 700 -28 q 245 35 338 -28 q 153 235 153 97 q 185 364 153 314 q 267 448 217 414 q 379 508 317 482 q 501 567 442 533 l 210 1007 l 83 1007 l 83 1042 l 1015 1042 m 846 342 l 846 1007 l 439 1007 l 846 314 q 846 327 846 319 q 846 342 846 335 m 190 235 q 272 63 190 117 q 506 10 353 10 q 684 37 613 10 q 794 124 756 64 l 521 538 q 400 482 460 507 q 294 426 340 457 q 219 349 247 394 q 190 235 190 304 m 431 1111 q 348 1123 375 1111 q 321 1157 321 1135 q 348 1194 321 1181 q 431 1208 375 1208 q 513 1194 486 1208 q 540 1157 540 1181 q 513 1123 540 1135 q 431 1111 486 1111 m 808 1111 q 726 1123 753 1111 q 699 1157 699 1135 q 726 1194 699 1181 q 808 1208 753 1208 q 891 1194 864 1208 q 918 1157 918 1181 q 891 1123 918 1135 q 808 1111 864 1111 z "},"ŷ":{"ha":1126,"x_min":83,"x_max":1015,"o":"m 1015 1042 l 1015 1007 l 883 1007 l 883 342 q 792 64 883 156 q 508 -28 700 -28 q 245 35 338 -28 q 153 235 153 97 q 185 364 153 314 q 267 448 217 414 q 379 508 317 482 q 501 567 442 533 l 210 1007 l 83 1007 l 83 1042 l 1015 1042 m 846 342 l 846 1007 l 439 1007 l 846 314 q 846 327 846 319 q 846 342 846 335 m 190 235 q 272 63 190 117 q 506 10 353 10 q 684 37 613 10 q 794 124 756 64 l 521 538 q 400 482 460 507 q 294 426 340 457 q 219 349 247 394 q 190 235 190 304 m 629 1301 q 705 1235 669 1264 q 777 1188 740 1207 q 857 1154 814 1168 q 956 1132 900 1140 l 956 1111 q 774 1142 844 1121 q 629 1221 704 1164 q 484 1142 554 1164 q 303 1111 414 1121 l 303 1132 q 401 1154 358 1140 q 481 1188 444 1168 q 553 1235 518 1207 q 629 1301 589 1264 z "},"ỳ":{"ha":1126,"x_min":83,"x_max":1015,"o":"m 1015 1042 l 1015 1007 l 883 1007 l 883 342 q 792 64 883 156 q 508 -28 700 -28 q 245 35 338 -28 q 153 235 153 97 q 185 364 153 314 q 267 448 217 414 q 379 508 317 482 q 501 567 442 533 l 210 1007 l 83 1007 l 83 1042 l 1015 1042 m 846 342 l 846 1007 l 439 1007 l 846 314 q 846 327 846 319 q 846 342 846 335 m 190 235 q 272 63 190 117 q 506 10 353 10 q 684 37 613 10 q 794 124 756 64 l 521 538 q 400 482 460 507 q 294 426 340 457 q 219 349 247 394 q 190 235 190 304 m 317 1274 q 448 1218 383 1242 q 586 1178 513 1194 q 751 1150 660 1161 q 963 1132 843 1139 l 963 1111 q 750 1113 843 1111 q 583 1121 657 1114 q 444 1143 508 1128 q 317 1186 381 1158 l 317 1274 z "},"z":{"ha":1153,"x_min":132,"x_max":996,"o":"m 188 568 l 188 1042 l 996 1042 l 996 1004 l 383 250 q 473 297 422 279 q 574 315 524 315 q 652 286 614 315 q 725 222 690 257 q 792 157 760 186 q 851 128 824 128 q 926 172 899 128 q 954 317 954 217 l 954 482 l 990 482 l 990 322 q 941 69 990 165 q 793 -28 892 -28 q 689 11 740 -28 q 591 97 638 50 q 501 182 544 143 q 422 221 458 221 q 349 200 385 221 q 271 126 314 179 l 168 0 l 132 0 l 743 1004 l 468 1004 q 347 994 394 1004 q 272 958 299 983 q 234 887 244 932 q 224 772 224 842 l 224 568 l 188 568 z "},"ź":{"ha":1153,"x_min":132,"x_max":996,"o":"m 188 568 l 188 1042 l 996 1042 l 996 1004 l 383 250 q 473 297 422 279 q 574 315 524 315 q 652 286 614 315 q 725 222 690 257 q 792 157 760 186 q 851 128 824 128 q 926 172 899 128 q 954 317 954 217 l 954 482 l 990 482 l 990 322 q 941 69 990 165 q 793 -28 892 -28 q 689 11 740 -28 q 591 97 638 50 q 501 182 544 143 q 422 221 458 221 q 349 200 385 221 q 271 126 314 179 l 168 0 l 132 0 l 743 1004 l 468 1004 q 347 994 394 1004 q 272 958 299 983 q 234 887 244 932 q 224 772 224 842 l 224 568 l 188 568 m 864 1274 l 864 1186 q 736 1143 800 1158 q 598 1121 672 1128 q 431 1113 524 1114 q 218 1111 338 1111 l 218 1132 q 429 1150 338 1139 q 594 1178 521 1161 q 733 1218 668 1194 q 864 1274 797 1242 z "},"ž":{"ha":1153,"x_min":132,"x_max":996,"o":"m 188 568 l 188 1042 l 996 1042 l 996 1004 l 383 250 q 473 297 422 279 q 574 315 524 315 q 652 286 614 315 q 725 222 690 257 q 792 157 760 186 q 851 128 824 128 q 926 172 899 128 q 954 317 954 217 l 954 482 l 990 482 l 990 322 q 941 69 990 165 q 793 -28 892 -28 q 689 11 740 -28 q 591 97 638 50 q 501 182 544 143 q 422 221 458 221 q 349 200 385 221 q 271 126 314 179 l 168 0 l 132 0 l 743 1004 l 468 1004 q 347 994 394 1004 q 272 958 299 983 q 234 887 244 932 q 224 772 224 842 l 224 568 l 188 568 m 557 1083 q 481 1149 517 1121 q 409 1197 446 1178 q 329 1231 372 1217 q 231 1253 286 1244 l 231 1274 q 412 1242 342 1264 q 557 1164 482 1221 q 702 1242 632 1221 q 883 1274 772 1264 l 883 1253 q 785 1231 828 1244 q 705 1197 742 1217 q 633 1149 668 1178 q 557 1083 597 1121 z "},"ż":{"ha":1153,"x_min":132,"x_max":996,"o":"m 188 568 l 188 1042 l 996 1042 l 996 1004 l 383 250 q 473 297 422 279 q 574 315 524 315 q 652 286 614 315 q 725 222 690 257 q 792 157 760 186 q 851 128 824 128 q 926 172 899 128 q 954 317 954 217 l 954 482 l 990 482 l 990 322 q 941 69 990 165 q 793 -28 892 -28 q 689 11 740 -28 q 591 97 638 50 q 501 182 544 143 q 422 221 458 221 q 349 200 385 221 q 271 126 314 179 l 168 0 l 132 0 l 743 1004 l 468 1004 q 347 994 394 1004 q 272 958 299 983 q 234 887 244 932 q 224 772 224 842 l 224 568 l 188 568 m 556 1111 q 473 1123 500 1111 q 446 1157 446 1135 q 473 1194 446 1181 q 556 1208 500 1208 q 638 1194 611 1208 q 665 1157 665 1181 q 638 1123 665 1135 q 556 1111 611 1111 z "},"æ":{"ha":1292,"x_min":136,"x_max":1183,"o":"m 560 699 l 560 760 q 542 969 560 906 q 469 1032 524 1032 q 370 1003 418 1032 q 286 917 322 974 q 228 776 250 861 q 206 582 206 692 l 206 551 l 171 551 l 171 1042 l 206 1042 l 206 826 q 313 1006 243 942 q 472 1069 383 1069 q 590 1046 540 1069 q 672 979 639 1022 q 757 1047 708 1024 q 865 1069 806 1069 q 1106 918 1026 1069 q 1183 488 1185 767 l 753 488 q 792 128 754 243 q 914 13 829 13 q 1084 106 1022 13 q 1146 392 1146 199 l 1183 392 q 1113 81 1183 189 q 914 -28 1042 -28 q 703 43 785 -28 q 588 249 622 114 q 531 44 578 115 q 383 -28 485 -28 q 194 44 253 -28 q 136 217 136 115 q 161 338 136 283 q 227 437 186 393 q 322 514 268 481 q 435 572 376 547 q 521 622 482 592 q 560 699 560 651 m 867 1032 q 781 910 807 1032 q 753 525 754 789 l 989 525 q 960 910 989 789 q 867 1032 931 1032 m 331 281 q 348 97 331 167 q 425 26 365 26 q 528 112 496 26 q 560 369 560 197 l 560 446 q 558 478 558 461 q 558 511 558 494 q 558 547 558 529 q 560 582 558 564 l 560 611 q 516 572 543 589 q 447 538 489 556 q 388 503 411 522 q 351 457 364 485 q 335 387 339 429 q 331 281 331 344 z "},"œ":{"ha":1292,"x_min":114,"x_max":1183,"o":"m 432 1069 q 559 1040 503 1069 q 654 956 615 1011 q 744 1040 692 1011 q 865 1069 797 1069 q 1106 918 1026 1069 q 1183 488 1185 767 l 753 488 q 792 128 754 243 q 914 13 829 13 q 1084 106 1022 13 q 1146 392 1146 199 l 1183 392 q 1113 81 1183 189 q 914 -28 1042 -28 q 766 2 831 -28 q 658 92 701 32 q 561 2 618 32 q 432 -28 504 -28 q 195 112 276 -28 q 114 511 114 251 q 194 924 114 779 q 432 1069 275 1069 m 867 1032 q 781 910 807 1032 q 753 525 754 789 l 989 525 q 960 910 989 789 q 867 1032 931 1032 m 432 1032 q 338 907 368 1032 q 308 510 308 782 q 338 132 308 254 q 432 10 368 10 q 527 132 496 10 q 558 510 558 254 q 528 907 558 782 q 432 1032 497 1032 z "},"Α":{"ha":1153,"x_min":69,"x_max":1083,"o":"m 383 0 l 69 0 l 69 35 l 182 35 l 467 1007 l 292 1007 l 292 1042 l 669 1042 l 969 35 l 1083 35 l 1083 0 l 636 0 l 636 35 l 793 35 l 706 326 l 308 326 l 224 35 l 383 35 l 383 0 m 319 364 l 694 364 l 506 999 l 319 364 z "},"Ꞵ":{"ha":1153,"x_min":125,"x_max":1042,"o":"m 125 1007 l 125 1042 l 601 1042 q 738 1026 672 1042 q 851 978 803 1010 q 929 897 900 946 q 958 781 958 847 q 897 637 958 694 q 743 550 835 579 q 856 522 801 542 q 951 467 910 501 q 1017 385 992 433 q 1042 275 1042 338 q 1013 153 1042 206 q 935 67 983 101 q 821 17 886 33 q 685 0 756 0 l 125 0 l 125 35 l 269 35 l 269 1007 l 125 1007 m 517 1004 l 447 1004 l 447 554 l 517 554 q 710 603 657 554 q 764 782 764 651 q 710 956 764 907 q 517 1004 656 1004 m 847 274 q 792 462 847 407 q 600 517 738 517 l 447 517 l 447 38 l 600 38 q 792 90 738 38 q 847 274 847 142 z "},"Ε":{"ha":1125,"x_min":125,"x_max":972,"o":"m 661 281 l 661 510 l 447 510 l 447 38 l 692 38 q 815 48 767 38 q 890 84 863 58 q 927 155 917 110 q 938 269 938 200 l 938 401 l 972 401 l 972 0 l 125 0 l 125 35 l 269 35 l 269 1007 l 125 1007 l 125 1042 l 946 1042 l 946 640 l 911 640 l 911 786 q 902 895 911 853 q 869 962 893 938 q 803 995 846 986 q 693 1004 761 1004 l 447 1004 l 447 547 l 661 547 l 661 757 l 696 757 l 696 281 l 661 281 z "},"Ζ":{"ha":1058,"x_min":163,"x_max":913,"o":"m 188 474 l 188 1042 l 913 1042 l 913 1004 l 357 38 l 624 38 q 747 48 699 38 q 822 84 794 58 q 859 155 849 110 q 869 269 869 200 l 869 624 l 904 624 l 904 0 l 163 0 l 163 38 l 713 1004 l 468 1004 q 345 994 393 1004 q 270 958 297 983 q 233 887 243 932 q 222 772 222 842 l 222 474 l 188 474 z "},"Η":{"ha":1264,"x_min":125,"x_max":1139,"o":"m 592 35 l 592 0 l 125 0 l 125 35 l 269 35 l 269 1007 l 125 1007 l 125 1042 l 592 1042 l 592 1007 l 447 1007 l 447 561 l 817 561 l 817 1007 l 672 1007 l 672 1042 l 1139 1042 l 1139 1007 l 994 1007 l 994 35 l 1139 35 l 1139 0 l 672 0 l 672 35 l 817 35 l 817 524 l 447 524 l 447 35 l 592 35 z "},"Ι":{"ha":736,"x_min":125,"x_max":611,"o":"m 610 35 l 610 0 l 125 0 l 125 35 l 279 35 l 279 1007 l 125 1007 l 125 1042 l 611 1042 l 611 1008 l 457 1008 l 457 35 l 610 35 z "},"Κ":{"ha":1153,"x_min":125,"x_max":1050,"o":"m 622 0 l 125 0 l 125 35 l 269 35 l 269 1006 l 125 1006 l 125 1042 l 594 1042 l 594 1006 l 447 1006 l 447 536 l 538 536 l 538 536 q 544 536 540 536 q 550 536 547 536 l 846 1007 l 717 1007 l 717 1042 l 1035 1042 l 1035 1007 l 893 1007 l 594 531 q 765 430 714 510 q 839 263 817 350 q 874 107 861 176 q 929 38 886 38 q 994 62 972 38 q 1015 143 1015 86 l 1015 292 l 1050 292 l 1050 143 q 1003 14 1050 56 q 868 -28 956 -28 q 715 55 751 -28 q 664 235 679 138 q 624 416 649 333 q 507 499 599 499 l 447 499 l 447 35 l 622 35 l 622 0 z "},"Μ":{"ha":1347,"x_min":97,"x_max":1250,"o":"m 404 35 l 404 0 l 97 0 l 97 35 l 208 35 l 306 1007 l 160 1007 l 160 1042 l 522 1042 l 668 346 l 829 1042 l 1172 1042 l 1172 1007 l 1043 1007 l 1135 35 l 1250 35 l 1250 0 l 810 0 l 810 35 l 958 35 l 867 1007 l 864 1007 l 625 -28 l 582 -28 l 583 -25 l 351 1007 l 349 1007 l 251 35 l 404 35 z "},"Ν":{"ha":1125,"x_min":125,"x_max":1028,"o":"m 471 0 l 125 0 l 125 35 l 256 35 l 256 1007 l 125 1007 l 125 1042 l 481 1042 l 860 344 l 860 1007 l 681 1007 l 681 1042 l 1028 1042 l 1028 1007 l 897 1007 l 897 -28 l 860 -28 l 860 -10 l 858 -28 l 294 1006 l 294 35 l 471 35 l 471 0 z "},"Ο":{"ha":1153,"x_min":125,"x_max":1028,"o":"m 575 1069 q 914 924 800 1069 q 1028 511 1028 779 q 911 112 1028 251 q 575 -28 794 -28 q 240 112 356 -28 q 125 511 125 251 q 239 924 125 779 q 575 1069 353 1069 m 575 1035 q 375 914 431 1035 q 319 510 319 793 q 376 124 319 242 q 575 7 433 7 q 775 124 717 7 q 833 510 833 242 q 776 914 833 793 q 575 1035 719 1035 z "},"Ρ":{"ha":1085,"x_min":125,"x_max":1001,"o":"m 125 35 l 269 35 l 269 1007 l 125 1007 l 125 1042 l 657 1042 q 788 1024 725 1042 q 898 969 851 1006 q 973 877 944 933 q 1001 746 1001 821 q 970 613 1001 669 q 889 519 939 556 q 774 464 839 482 q 644 446 710 446 l 447 446 l 447 35 l 658 35 l 658 0 l 125 0 l 125 35 m 572 1004 l 447 1004 l 447 483 l 572 483 q 754 543 701 483 q 807 747 807 603 q 755 947 807 890 q 572 1004 703 1004 z "},"Τ":{"ha":1014,"x_min":83,"x_max":931,"o":"m 276 0 l 276 35 l 418 35 l 418 1004 l 336 1004 q 161 958 204 1004 q 118 772 118 911 l 118 599 l 83 599 l 83 1042 l 931 1042 l 931 599 l 896 599 l 896 772 q 853 958 896 911 q 678 1004 810 1004 l 596 1004 l 596 35 l 738 35 l 738 0 l 276 0 z "},"Υ":{"ha":1153,"x_min":83,"x_max":1069,"o":"m 861 0 l 292 0 l 292 35 l 488 35 l 488 294 l 217 1007 l 83 1007 l 83 1042 l 1069 1042 l 1069 1007 l 938 1007 l 665 319 l 665 35 l 861 35 l 861 0 m 638 343 l 897 1007 l 410 1007 l 638 343 z "},"Ꭓ":{"ha":1153,"x_min":97,"x_max":1056,"o":"m 444 0 l 97 0 l 97 35 l 219 35 l 494 500 l 213 1007 l 97 1007 l 97 1042 l 589 1042 l 589 1007 l 413 1007 l 638 600 l 879 1007 l 753 1007 l 753 1042 l 1056 1042 l 1056 1007 l 925 1007 l 661 560 l 951 35 l 1056 35 l 1056 0 l 608 0 l 608 35 l 754 35 l 518 460 l 267 35 l 444 35 l 444 0 z "},"Ϊ":{"ha":736,"x_min":69,"x_max":667,"o":"m 610 35 l 610 0 l 125 0 l 125 35 l 279 35 l 279 1007 l 125 1007 l 125 1042 l 611 1042 l 611 1008 l 457 1008 l 457 35 l 610 35 m 179 1111 q 97 1123 124 1111 q 69 1157 69 1135 q 97 1194 69 1181 q 179 1208 124 1208 q 262 1194 235 1208 q 289 1157 289 1181 q 262 1123 289 1135 q 179 1111 235 1111 m 557 1111 q 474 1123 501 1111 q 447 1157 447 1135 q 474 1194 447 1181 q 557 1208 501 1208 q 640 1194 613 1208 q 667 1157 667 1181 q 640 1123 667 1135 q 557 1111 613 1111 z "},"Ϋ":{"ha":1153,"x_min":83,"x_max":1069,"o":"m 447 1111 q 365 1123 392 1111 q 338 1157 338 1135 q 365 1194 338 1181 q 447 1208 392 1208 q 530 1194 503 1208 q 557 1157 557 1181 q 530 1123 557 1135 q 447 1111 503 1111 m 825 1111 q 742 1123 769 1111 q 715 1157 715 1135 q 742 1194 715 1181 q 825 1208 769 1208 q 908 1194 881 1208 q 935 1157 935 1181 q 908 1123 935 1135 q 825 1111 881 1111 m 861 0 l 292 0 l 292 35 l 488 35 l 488 294 l 217 1007 l 83 1007 l 83 1042 l 1069 1042 l 1069 1007 l 938 1007 l 665 319 l 665 35 l 861 35 l 861 0 m 638 343 l 897 1007 l 410 1007 l 638 343 z "},"η":{"ha":1222,"x_min":125,"x_max":1104,"o":"m 563 35 l 563 0 l 125 0 l 125 35 l 269 35 l 269 1007 l 125 1007 l 125 1042 l 433 1042 l 433 849 q 518 1017 458 965 q 661 1069 578 1069 q 794 1049 738 1069 q 887 981 850 1029 q 942 852 924 933 q 960 649 960 771 l 960 35 l 1104 35 l 1104 0 l 660 0 l 660 35 l 782 35 l 782 592 q 776 806 782 722 q 753 938 769 890 q 708 1005 736 986 q 639 1024 681 1024 q 490 922 532 1024 q 447 599 447 821 l 447 35 l 563 35 z "},"ο":{"ha":1153,"x_min":125,"x_max":1028,"o":"m 575 1069 q 914 924 800 1069 q 1028 511 1028 779 q 911 112 1028 251 q 575 -28 794 -28 q 240 112 356 -28 q 125 511 125 251 q 239 924 125 779 q 575 1069 353 1069 m 575 1035 q 375 914 431 1035 q 319 510 319 793 q 376 124 319 242 q 575 7 433 7 q 775 124 717 7 q 833 510 833 242 q 776 914 833 793 q 575 1035 719 1035 z "},"τ":{"ha":789,"x_min":56,"x_max":713,"o":"m 231 314 l 231 1004 l 56 1004 l 56 1042 l 713 1042 l 713 1004 l 407 1004 l 407 314 q 432 89 407 154 q 524 24 457 24 q 572 36 547 24 q 617 75 597 49 q 650 144 638 101 q 663 249 663 188 l 699 249 q 681 120 699 174 q 635 34 664 67 q 567 -13 606 1 q 488 -28 529 -28 q 294 59 357 -28 q 231 314 231 146 z "},"ι":{"ha":831,"x_min":56,"x_max":754,"o":"m 286 314 l 286 1004 l 56 1004 l 56 1042 l 463 1042 l 463 314 q 488 89 463 154 q 579 24 513 24 q 628 36 603 24 q 673 75 653 49 q 706 144 693 101 q 718 249 718 188 l 754 249 q 737 120 754 174 q 690 34 719 67 q 623 -13 661 1 q 543 -28 585 -28 q 349 59 413 -28 q 286 314 286 146 z "},"κ":{"ha":1153,"x_min":125,"x_max":1050,"o":"m 622 0 l 125 0 l 125 35 l 269 35 l 269 1006 l 125 1006 l 125 1042 l 594 1042 l 594 1006 l 447 1006 l 447 536 l 538 536 l 538 536 q 554 535 546 536 q 569 533 563 535 q 612 801 583 696 q 676 965 640 906 q 753 1047 713 1024 q 831 1069 794 1069 q 908 1052 868 1069 q 978 994 947 1035 q 1030 884 1010 953 q 1050 713 1050 815 l 1050 533 l 1015 533 l 1015 713 q 999 862 1015 800 q 956 962 982 924 q 897 1018 929 1000 q 832 1036 864 1036 q 683 903 740 1036 q 608 528 625 771 q 769 423 721 503 q 840 258 818 343 q 874 105 861 172 q 929 38 886 38 q 994 62 972 38 q 1015 143 1015 86 l 1015 292 l 1050 292 l 1050 143 q 1003 14 1050 56 q 868 -28 956 -28 q 715 55 751 -28 q 664 235 679 138 q 624 416 649 333 q 507 499 599 499 l 447 499 l 447 35 l 622 35 l 622 0 z "},"ρ":{"ha":1181,"x_min":125,"x_max":1028,"o":"m 263 35 l 263 618 q 306 854 263 765 q 411 991 350 943 q 537 1054 472 1039 q 643 1069 601 1069 q 931 944 835 1069 q 1028 589 1028 819 q 931 234 1028 358 q 643 110 835 110 q 554 124 590 110 q 494 159 518 139 q 458 202 471 179 q 440 240 446 225 l 440 35 l 728 35 l 728 0 l 125 0 l 125 35 l 263 35 m 644 1032 q 542 1007 582 1032 q 480 938 503 982 q 449 835 457 894 q 440 706 440 775 l 440 407 q 501 201 440 254 q 646 147 561 147 q 740 165 703 147 q 797 231 776 183 q 826 365 818 279 q 833 585 833 451 q 824 801 833 715 q 794 939 815 888 q 736 1011 772 990 q 644 1032 700 1032 z "},"μ":{"ha":1197,"x_min":83,"x_max":1069,"o":"m 228 35 l 228 1007 l 83 1007 l 83 1042 l 918 1042 l 918 304 q 933 198 918 232 q 979 164 949 164 q 1024 196 1013 164 q 1035 307 1035 228 l 1035 410 l 1069 410 l 1069 304 q 1041 152 1069 193 q 926 111 1013 111 q 798 154 842 111 q 754 331 754 197 l 754 332 q 669 163 729 215 q 526 111 610 111 q 460 119 492 111 q 406 139 429 126 l 406 35 l 679 35 l 679 0 l 90 0 l 90 35 l 228 35 m 406 589 q 412 374 406 458 q 435 242 418 290 q 479 176 451 194 q 549 157 507 157 q 698 258 656 157 q 740 582 740 360 l 740 1007 l 406 1007 l 406 589 z "},"Γ":{"ha":1042,"x_min":125,"x_max":917,"o":"m 125 1007 l 125 1042 l 917 1042 l 917 571 l 882 571 l 882 772 q 872 887 882 842 q 834 958 861 932 q 759 994 807 983 q 636 1004 711 1004 l 447 1004 l 447 35 l 653 35 l 653 0 l 125 0 l 125 35 l 269 35 l 269 1007 l 125 1007 z "},"Λ":{"ha":1153,"x_min":69,"x_max":1083,"o":"m 383 0 l 69 0 l 69 35 l 182 35 l 467 1007 l 292 1007 l 292 1042 l 669 1042 l 969 35 l 1083 35 l 1083 0 l 636 0 l 636 35 l 793 35 l 506 999 l 224 35 l 383 35 l 383 0 z "},"Δ":{"ha":1153,"x_min":69,"x_max":1083,"o":"m 224 35 l 793 35 l 506 999 l 224 35 m 1083 0 l 69 0 l 69 35 l 182 35 l 467 1007 l 292 1007 l 292 1042 l 669 1042 l 969 35 l 1083 35 l 1083 0 z "},"Θ":{"ha":1153,"x_min":125,"x_max":1028,"o":"m 575 1069 q 914 924 800 1069 q 1028 511 1028 779 q 911 112 1028 251 q 575 -28 794 -28 q 240 112 356 -28 q 125 511 125 251 q 239 924 125 779 q 575 1069 353 1069 m 575 1035 q 375 914 431 1035 q 319 510 319 793 q 376 124 319 242 q 575 7 433 7 q 775 124 717 7 q 833 510 833 242 q 776 914 833 793 q 575 1035 719 1035 m 425 282 l 425 758 l 460 758 l 460 549 l 694 549 l 694 758 l 729 758 l 729 282 l 694 282 l 694 511 l 460 511 l 460 282 l 425 282 z "},"Π":{"ha":1264,"x_min":125,"x_max":1139,"o":"m 592 35 l 592 0 l 125 0 l 125 35 l 269 35 l 269 1007 l 125 1007 l 125 1042 l 1139 1042 l 1139 1007 l 994 1007 l 994 35 l 1139 35 l 1139 0 l 672 0 l 672 35 l 817 35 l 817 1007 l 447 1007 l 447 35 l 592 35 z "},"Ξ":{"ha":1292,"x_min":181,"x_max":1111,"o":"m 1085 1042 l 1085 640 l 1050 640 l 1050 786 q 1041 895 1050 853 q 1008 962 1032 938 q 942 995 985 986 q 832 1004 900 1004 l 735 1004 l 735 547 l 897 547 l 897 757 l 932 757 l 932 281 l 897 281 l 897 510 l 735 510 l 735 38 l 831 38 q 953 48 906 38 q 1028 84 1001 58 q 1066 155 1056 110 q 1076 269 1076 200 l 1076 401 l 1111 401 l 1111 0 l 181 0 l 181 401 l 215 401 l 215 269 q 226 155 215 200 q 263 84 236 110 q 338 48 290 58 q 461 38 386 38 l 557 38 l 557 510 l 394 510 l 394 281 l 360 281 l 360 757 l 394 757 l 394 547 l 557 547 l 557 1004 l 460 1004 q 349 995 392 1004 q 283 962 307 986 q 251 895 260 938 q 242 786 242 853 l 242 640 l 207 640 l 207 1042 l 1085 1042 z "},"Φ":{"ha":1292,"x_min":125,"x_max":1167,"o":"m 125 1007 l 125 1042 l 1167 1042 l 1167 1008 l 735 1008 l 735 899 q 1058 781 949 881 q 1167 511 1167 681 q 1056 254 1167 350 q 735 142 944 158 l 735 35 l 1165 35 l 1165 0 l 125 0 l 125 35 l 557 35 l 557 142 q 235 254 346 158 q 125 511 125 350 q 234 781 125 681 q 557 899 343 882 l 557 1007 l 125 1007 m 319 510 q 374 272 319 350 q 557 178 428 194 l 557 863 q 372 765 425 847 q 319 510 319 683 m 972 510 q 918 765 972 683 q 735 863 864 846 l 735 179 q 917 273 861 196 q 972 510 972 350 z "},"ν":{"ha":1076,"x_min":83,"x_max":1000,"o":"m 83 1007 l 83 1042 l 494 1042 l 494 1007 l 399 1007 l 399 389 q 403 195 399 267 q 422 88 408 124 q 461 43 436 53 q 525 33 486 33 q 635 82 583 33 q 728 212 688 131 q 797 403 769 293 q 835 633 825 513 q 778 612 808 619 q 715 604 747 604 q 547 667 601 604 q 492 835 492 731 q 545 1004 492 939 q 686 1069 599 1069 q 825 991 769 1069 q 881 775 881 913 q 881 747 881 761 q 879 718 881 732 q 940 846 918 765 q 960 1042 963 926 l 1000 1042 q 966 806 1000 900 q 876 664 932 713 q 837 404 868 529 q 755 183 806 279 q 634 30 704 88 q 476 -28 564 -28 q 288 66 354 -28 q 221 389 221 160 l 221 1007 l 83 1007 m 531 835 q 575 693 531 743 q 732 643 619 643 q 786 651 758 643 q 838 678 814 660 q 840 724 839 700 q 840 769 840 747 q 799 962 840 893 q 688 1031 757 1031 q 574 979 617 1031 q 531 835 531 928 z "},"ϊ":{"ha":831,"x_min":56,"x_max":754,"o":"m 286 314 l 286 1004 l 56 1004 l 56 1042 l 463 1042 l 463 314 q 488 89 463 154 q 579 24 513 24 q 628 36 603 24 q 673 75 653 49 q 706 144 693 101 q 718 249 718 188 l 754 249 q 737 120 754 174 q 690 34 719 67 q 623 -13 661 1 q 543 -28 585 -28 q 349 59 413 -28 q 286 314 286 146 m 181 1111 q 98 1123 125 1111 q 71 1157 71 1135 q 98 1194 71 1181 q 181 1208 125 1208 q 263 1194 236 1208 q 290 1157 290 1181 q 263 1123 290 1135 q 181 1111 236 1111 m 558 1111 q 476 1123 503 1111 q 449 1157 449 1135 q 476 1194 449 1181 q 558 1208 503 1208 q 641 1194 614 1208 q 668 1157 668 1181 q 641 1123 668 1135 q 558 1111 614 1111 z "},"γ":{"ha":1167,"x_min":111,"x_max":1153,"o":"m 531 413 l 531 588 q 388 529 457 558 q 266 460 318 500 q 182 365 214 421 q 150 228 150 310 q 206 63 150 115 q 343 10 263 10 q 481 98 432 10 q 531 413 531 186 m 708 1007 l 708 701 q 865 821 794 749 q 969 1007 935 893 l 708 1007 m 346 -28 q 173 40 235 -28 q 111 228 111 107 q 147 381 111 319 q 240 486 182 443 q 375 560 299 529 q 531 622 451 590 l 531 1007 l 292 1007 l 292 1042 l 1153 1042 l 1153 1007 l 1010 1007 q 888 794 969 874 q 708 664 806 715 l 708 413 q 609 82 708 192 q 346 -28 510 -28 z "},";":{"ha":646,"x_min":149,"x_max":496,"o":"m 321 964 q 452 916 408 964 q 496 781 496 868 q 451 659 496 701 q 321 617 406 617 q 193 659 238 617 q 149 781 149 701 q 192 916 149 868 q 321 964 235 964 m 321 926 q 218 891 250 926 q 186 779 186 856 q 219 685 186 715 q 321 654 253 654 q 424 685 390 654 q 458 779 458 715 q 425 891 458 856 q 321 926 392 926 m 476 338 l 274 -67 l 239 -50 l 435 338 l 189 338 l 189 375 l 476 375 l 476 338 z "},"΄":{"ha":833,"x_min":89,"x_max":735,"o":"m 735 1274 l 735 1186 q 607 1143 671 1158 q 469 1121 543 1128 q 301 1113 394 1114 q 89 1111 208 1111 l 89 1132 q 300 1150 208 1139 q 465 1178 392 1161 q 603 1218 539 1194 q 735 1274 668 1242 z "},"ό":{"ha":1153,"x_min":125,"x_max":1028,"o":"m 969 1274 l 969 1186 q 842 1143 906 1158 q 703 1121 778 1128 q 536 1113 629 1114 q 324 1111 443 1111 l 324 1132 q 535 1150 443 1139 q 700 1178 626 1161 q 838 1218 774 1194 q 969 1274 903 1242 m 575 1069 q 914 924 800 1069 q 1028 511 1028 779 q 911 112 1028 251 q 575 -28 794 -28 q 240 112 356 -28 q 125 511 125 251 q 239 924 125 779 q 575 1069 353 1069 m 575 1035 q 375 914 431 1035 q 319 510 319 793 q 376 124 319 242 q 575 7 433 7 q 775 124 717 7 q 833 510 833 242 q 776 914 833 793 q 575 1035 719 1035 z "},"ή":{"ha":1222,"x_min":125,"x_max":1104,"o":"m 1007 1274 l 1007 1186 q 879 1143 943 1158 q 741 1121 815 1128 q 574 1113 667 1114 q 361 1111 481 1111 l 361 1132 q 572 1150 481 1139 q 738 1178 664 1161 q 876 1218 811 1194 q 1007 1274 940 1242 m 563 35 l 563 0 l 125 0 l 125 35 l 269 35 l 269 1007 l 125 1007 l 125 1042 l 433 1042 l 433 849 q 518 1017 458 965 q 661 1069 578 1069 q 794 1049 738 1069 q 887 981 850 1029 q 942 852 924 933 q 960 649 960 771 l 960 35 l 1104 35 l 1104 0 l 660 0 l 660 35 l 782 35 l 782 592 q 776 806 782 722 q 753 938 769 890 q 708 1005 736 986 q 639 1024 681 1024 q 490 922 532 1024 q 447 599 447 821 l 447 35 l 563 35 z "},"̈́":{"ha":778,"x_min":67,"x_max":713,"o":"m 203 1111 q 120 1123 147 1111 q 93 1157 93 1135 q 120 1194 93 1181 q 203 1208 147 1208 q 285 1194 258 1208 q 313 1157 313 1181 q 285 1123 313 1135 q 203 1111 258 1111 m 581 1111 q 498 1123 525 1111 q 471 1157 471 1135 q 498 1194 471 1181 q 581 1208 525 1208 q 663 1194 636 1208 q 690 1157 690 1181 q 663 1123 690 1135 q 581 1111 636 1111 m 713 1426 l 713 1339 q 585 1296 649 1311 q 447 1274 521 1281 q 279 1265 372 1267 q 67 1264 186 1264 l 67 1285 q 278 1303 186 1292 q 443 1331 369 1314 q 581 1371 517 1347 q 713 1426 646 1394 z "},"ΐ":{"ha":831,"x_min":44,"x_max":754,"o":"m 286 314 l 286 1004 l 56 1004 l 56 1042 l 463 1042 l 463 314 q 488 89 463 154 q 579 24 513 24 q 628 36 603 24 q 673 75 653 49 q 706 144 693 101 q 718 249 718 188 l 754 249 q 737 120 754 174 q 690 34 719 67 q 623 -13 661 1 q 543 -28 585 -28 q 349 59 413 -28 q 286 314 286 146 m 179 1111 q 97 1123 124 1111 q 69 1157 69 1135 q 97 1194 69 1181 q 179 1208 124 1208 q 262 1194 235 1208 q 289 1157 289 1181 q 262 1123 289 1135 q 179 1111 235 1111 m 557 1111 q 474 1123 501 1111 q 447 1157 447 1135 q 474 1194 447 1181 q 557 1208 501 1208 q 640 1194 613 1208 q 667 1157 667 1181 q 640 1123 667 1135 q 557 1111 613 1111 m 690 1426 l 690 1339 q 563 1296 626 1311 q 424 1274 499 1281 q 257 1265 350 1267 q 44 1264 164 1264 l 44 1285 q 256 1303 164 1292 q 421 1331 347 1314 q 559 1371 494 1347 q 690 1426 624 1394 z "},"΅":{"ha":778,"x_min":67,"x_max":713,"o":"m 203 1111 q 120 1123 147 1111 q 93 1157 93 1135 q 120 1194 93 1181 q 203 1208 147 1208 q 285 1194 258 1208 q 313 1157 313 1181 q 285 1123 313 1135 q 203 1111 258 1111 m 581 1111 q 498 1123 525 1111 q 471 1157 471 1135 q 498 1194 471 1181 q 581 1208 525 1208 q 663 1194 636 1208 q 690 1157 690 1181 q 663 1123 690 1135 q 581 1111 636 1111 m 713 1426 l 713 1339 q 585 1296 649 1311 q 447 1274 521 1281 q 279 1265 372 1267 q 67 1264 186 1264 l 67 1285 q 278 1303 186 1292 q 443 1331 369 1314 q 581 1371 517 1347 q 713 1426 646 1394 z "},"ί":{"ha":831,"x_min":56,"x_max":754,"o":"m 286 314 l 286 1004 l 56 1004 l 56 1042 l 463 1042 l 463 314 q 488 89 463 154 q 579 24 513 24 q 628 36 603 24 q 673 75 653 49 q 706 144 693 101 q 718 249 718 188 l 754 249 q 737 120 754 174 q 690 34 719 67 q 623 -13 661 1 q 543 -28 585 -28 q 349 59 413 -28 q 286 314 286 146 m 701 1274 l 701 1186 q 574 1143 638 1158 q 435 1121 510 1128 q 268 1113 361 1114 q 56 1111 175 1111 l 56 1132 q 267 1150 175 1139 q 432 1178 358 1161 q 570 1218 506 1194 q 701 1274 635 1242 z "},"µ":{"ha":1197,"x_min":83,"x_max":1069,"o":"m 228 35 l 228 1007 l 83 1007 l 83 1042 l 918 1042 l 918 304 q 933 198 918 232 q 979 164 949 164 q 1024 196 1013 164 q 1035 307 1035 228 l 1035 410 l 1069 410 l 1069 304 q 1041 152 1069 193 q 926 111 1013 111 q 798 154 842 111 q 754 331 754 197 l 754 332 q 669 163 729 215 q 526 111 610 111 q 460 119 492 111 q 406 139 429 126 l 406 35 l 679 35 l 679 0 l 90 0 l 90 35 l 228 35 m 406 589 q 412 374 406 458 q 435 242 418 290 q 479 176 451 194 q 549 157 507 157 q 698 258 656 157 q 740 582 740 360 l 740 1007 l 406 1007 l 406 589 z "},"·":{"ha":646,"x_min":149,"x_max":496,"o":"m 321 701 q 452 653 408 701 q 496 518 496 606 q 451 397 496 439 q 321 354 406 354 q 193 397 238 354 q 149 518 149 439 q 192 653 149 606 q 321 701 235 701 m 321 664 q 218 628 250 664 q 186 517 186 593 q 219 422 186 453 q 321 392 253 392 q 424 422 390 392 q 458 517 458 453 q 425 628 458 593 q 321 664 392 664 z "},"Ί":{"ha":736,"x_min":125,"x_max":611,"o":"m 610 35 l 610 0 l 125 0 l 125 35 l 279 35 l 279 1007 l 125 1007 l 125 1042 l 611 1042 l 611 1008 l 457 1008 l 457 35 l 610 35 z "},"Ά":{"ha":1153,"x_min":69,"x_max":1083,"o":"m 383 0 l 69 0 l 69 35 l 182 35 l 467 1007 l 292 1007 l 292 1042 l 669 1042 l 969 35 l 1083 35 l 1083 0 l 636 0 l 636 35 l 793 35 l 706 326 l 308 326 l 224 35 l 383 35 l 383 0 m 319 364 l 694 364 l 506 999 l 319 364 z "},"Έ":{"ha":1125,"x_min":125,"x_max":972,"o":"m 661 281 l 661 510 l 447 510 l 447 38 l 692 38 q 815 48 767 38 q 890 84 863 58 q 927 155 917 110 q 938 269 938 200 l 938 401 l 972 401 l 972 0 l 125 0 l 125 35 l 269 35 l 269 1007 l 125 1007 l 125 1042 l 946 1042 l 946 640 l 911 640 l 911 786 q 902 895 911 853 q 869 962 893 938 q 803 995 846 986 q 693 1004 761 1004 l 447 1004 l 447 547 l 661 547 l 661 757 l 696 757 l 696 281 l 661 281 z "},"Ή":{"ha":1264,"x_min":125,"x_max":1139,"o":"m 592 35 l 592 0 l 125 0 l 125 35 l 269 35 l 269 1007 l 125 1007 l 125 1042 l 592 1042 l 592 1007 l 447 1007 l 447 561 l 817 561 l 817 1007 l 672 1007 l 672 1042 l 1139 1042 l 1139 1007 l 994 1007 l 994 35 l 1139 35 l 1139 0 l 672 0 l 672 35 l 817 35 l 817 524 l 447 524 l 447 35 l 592 35 m 969 1274 l 969 1186 q 842 1143 906 1158 q 703 1121 778 1128 q 536 1113 629 1114 q 324 1111 443 1111 l 324 1132 q 535 1150 443 1139 q 700 1178 626 1161 q 838 1218 774 1194 q 969 1274 903 1242 z "},"Ό":{"ha":1153,"x_min":125,"x_max":1028,"o":"m 575 1069 q 914 924 800 1069 q 1028 511 1028 779 q 911 112 1028 251 q 575 -28 794 -28 q 240 112 356 -28 q 125 511 125 251 q 239 924 125 779 q 575 1069 353 1069 m 575 1035 q 375 914 431 1035 q 319 510 319 793 q 376 124 319 242 q 575 7 433 7 q 775 124 717 7 q 833 510 833 242 q 776 914 833 793 q 575 1035 719 1035 z "},"Ύ":{"ha":1153,"x_min":83,"x_max":1069,"o":"m 861 0 l 292 0 l 292 35 l 488 35 l 488 294 l 217 1007 l 83 1007 l 83 1042 l 1069 1042 l 1069 1007 l 938 1007 l 665 319 l 665 35 l 861 35 l 861 0 m 638 343 l 897 1007 l 410 1007 l 638 343 z "},"Ψ":{"ha":1292,"x_min":28,"x_max":1264,"o":"m 28 1007 l 28 1042 l 1264 1042 l 1264 1007 l 1133 1007 l 1133 653 q 1101 490 1133 561 q 1015 367 1069 418 q 888 285 961 317 q 735 244 815 254 l 735 35 l 1110 35 l 1110 0 l 181 0 l 181 35 l 557 35 l 557 244 q 403 287 476 256 q 276 369 331 318 q 190 492 222 421 q 158 653 158 563 l 158 1007 l 28 1007 m 958 1007 l 735 1007 l 735 282 q 899 391 839 306 q 958 632 958 476 l 958 1007 m 333 1007 l 333 632 q 393 390 333 475 q 557 282 453 306 l 557 1007 l 333 1007 z "},"Ω":{"ha":1235,"x_min":125,"x_max":1110,"o":"m 1056 650 q 1027 483 1056 558 q 950 356 999 408 q 835 272 901 303 q 693 238 768 242 l 693 149 l 986 149 q 1053 173 1032 149 q 1075 254 1075 197 l 1075 428 l 1110 428 l 1110 0 l 654 0 l 654 268 q 805 369 749 275 q 861 649 861 464 q 794 951 861 867 q 617 1035 728 1035 q 441 951 507 1035 q 375 649 375 867 q 431 379 375 483 q 581 268 486 275 l 581 0 l 125 0 l 125 428 l 160 428 l 160 254 q 181 173 160 197 q 249 149 203 149 l 542 149 l 542 238 q 400 272 467 242 q 285 356 333 303 q 208 483 236 408 q 181 650 181 558 q 213 830 181 751 q 304 962 246 908 q 442 1042 363 1015 q 617 1069 522 1069 q 792 1042 711 1069 q 932 962 874 1015 q 1023 830 990 908 q 1056 650 1056 751 z "},"π":{"ha":1292,"x_min":125,"x_max":1167,"o":"m 447 1007 l 447 35 l 606 35 l 606 0 l 125 0 l 125 35 l 269 35 l 269 1007 l 125 1007 l 125 1042 l 1167 1042 l 1167 1007 l 1022 1007 l 1022 35 l 1167 35 l 1167 0 l 686 0 l 686 35 l 844 35 l 844 1007 l 447 1007 z "},"Ώ":{"ha":1235,"x_min":125,"x_max":1110,"o":"m 1056 650 q 1027 483 1056 558 q 950 356 999 408 q 835 272 901 303 q 693 238 768 242 l 693 149 l 986 149 q 1053 173 1032 149 q 1075 254 1075 197 l 1075 428 l 1110 428 l 1110 0 l 654 0 l 654 268 q 805 369 749 275 q 861 649 861 464 q 794 951 861 867 q 617 1035 728 1035 q 441 951 507 1035 q 375 649 375 867 q 431 379 375 483 q 581 268 486 275 l 581 0 l 125 0 l 125 428 l 160 428 l 160 254 q 181 173 160 197 q 249 149 203 149 l 542 149 l 542 238 q 400 272 467 242 q 285 356 333 303 q 208 483 236 408 q 181 650 181 558 q 213 830 181 751 q 304 962 246 908 q 442 1042 363 1015 q 617 1069 522 1069 q 792 1042 711 1069 q 932 962 874 1015 q 1023 830 990 908 q 1056 650 1056 751 z "},"Σ":{"ha":1114,"x_min":69,"x_max":961,"o":"m 69 1007 l 69 1042 l 961 1042 l 961 597 l 926 597 l 926 772 q 916 887 926 842 q 878 958 906 932 q 803 994 851 983 q 681 1004 756 1004 l 394 1004 l 708 528 l 708 514 l 394 38 l 681 38 q 803 48 756 38 q 878 84 851 58 q 916 155 906 110 q 926 269 926 200 l 926 458 l 961 458 l 961 0 l 69 0 l 69 35 l 186 35 l 507 521 l 186 1007 l 69 1007 z "},"α":{"ha":1150,"x_min":125,"x_max":1046,"o":"m 888 1042 l 888 165 q 902 61 888 97 q 943 25 917 25 q 998 57 985 25 q 1011 168 1011 89 l 1011 271 l 1046 271 l 1046 165 q 1016 13 1046 54 q 894 -28 986 -28 q 781 0 825 -28 q 714 96 736 28 q 644 8 692 44 q 510 -29 597 -29 q 221 113 317 -29 q 125 519 125 256 q 219 926 125 783 q 496 1069 314 1069 q 644 1026 593 1069 q 717 918 696 982 l 854 1042 l 888 1042 m 508 1032 q 417 1008 453 1032 q 359 924 381 983 q 328 765 338 865 q 319 515 319 665 q 327 261 319 360 q 356 106 335 163 q 413 29 376 50 q 507 8 450 8 q 650 62 590 8 q 710 268 710 115 l 710 706 q 701 835 710 775 q 671 938 693 894 q 609 1007 649 982 q 508 1032 569 1032 z "},"ά":{"ha":1150,"x_min":125,"x_max":1046,"o":"m 888 1042 l 888 165 q 902 61 888 97 q 943 25 917 25 q 998 57 985 25 q 1011 168 1011 89 l 1011 271 l 1046 271 l 1046 165 q 1016 13 1046 54 q 894 -28 986 -28 q 781 0 825 -28 q 714 96 736 28 q 644 8 692 44 q 510 -29 597 -29 q 221 113 317 -29 q 125 519 125 256 q 219 926 125 783 q 496 1069 314 1069 q 644 1026 593 1069 q 717 918 696 982 l 854 1042 l 888 1042 m 508 1032 q 417 1008 453 1032 q 359 924 381 983 q 328 765 338 865 q 319 515 319 665 q 327 261 319 360 q 356 106 335 163 q 413 29 376 50 q 507 8 450 8 q 650 62 590 8 q 710 268 710 115 l 710 706 q 701 835 710 775 q 671 938 693 894 q 609 1007 649 982 q 508 1032 569 1032 m 931 1274 l 931 1186 q 803 1143 867 1158 q 665 1121 739 1128 q 497 1113 590 1114 q 285 1111 404 1111 l 285 1132 q 496 1150 404 1139 q 661 1178 588 1161 q 799 1218 735 1194 q 931 1274 864 1242 z "},"υ":{"ha":1238,"x_min":115,"x_max":1122,"o":"m 628 -28 q 464 3 533 -28 q 349 85 394 33 q 282 210 304 138 q 260 365 260 282 l 260 1007 l 115 1007 l 115 1042 l 1122 1042 l 1122 1007 l 978 1007 l 978 365 q 958 210 978 282 q 897 85 939 138 q 789 3 856 33 q 628 -28 722 -28 m 438 1007 l 438 422 q 441 265 438 340 q 462 132 444 189 q 518 41 479 75 q 628 7 557 7 q 726 41 692 7 q 778 132 761 75 q 797 265 794 189 q 800 422 800 340 l 800 1007 l 438 1007 z "},"ύ":{"ha":1238,"x_min":115,"x_max":1122,"o":"m 628 -28 q 464 3 533 -28 q 349 85 394 33 q 282 210 304 138 q 260 365 260 282 l 260 1007 l 115 1007 l 115 1042 l 1122 1042 l 1122 1007 l 978 1007 l 978 365 q 958 210 978 282 q 897 85 939 138 q 789 3 856 33 q 628 -28 722 -28 m 438 1007 l 438 422 q 441 265 438 340 q 462 132 444 189 q 518 41 479 75 q 628 7 557 7 q 726 41 692 7 q 778 132 761 75 q 797 265 794 189 q 800 422 800 340 l 800 1007 l 438 1007 m 968 1274 l 968 1186 q 840 1143 904 1158 q 702 1121 776 1128 q 535 1113 628 1114 q 322 1111 442 1111 l 322 1132 q 533 1150 442 1139 q 699 1178 625 1161 q 837 1218 772 1194 q 968 1274 901 1242 z "},"ϋ":{"ha":1238,"x_min":115,"x_max":1122,"o":"m 628 -28 q 464 3 533 -28 q 349 85 394 33 q 282 210 304 138 q 260 365 260 282 l 260 1007 l 115 1007 l 115 1042 l 1122 1042 l 1122 1007 l 978 1007 l 978 365 q 958 210 978 282 q 897 85 939 138 q 789 3 856 33 q 628 -28 722 -28 m 438 1007 l 438 422 q 441 265 438 340 q 462 132 444 189 q 518 41 479 75 q 628 7 557 7 q 726 41 692 7 q 778 132 761 75 q 797 265 794 189 q 800 422 800 340 l 800 1007 l 438 1007 m 429 1111 q 347 1123 374 1111 q 319 1157 319 1135 q 347 1194 319 1181 q 429 1208 374 1208 q 512 1194 485 1208 q 539 1157 539 1181 q 512 1123 539 1135 q 429 1111 485 1111 m 807 1111 q 724 1123 751 1111 q 697 1157 697 1135 q 724 1194 697 1181 q 807 1208 751 1208 q 890 1194 863 1208 q 917 1157 917 1181 q 890 1123 917 1135 q 807 1111 863 1111 z "},"θ":{"ha":1153,"x_min":125,"x_max":1028,"o":"m 575 1069 q 914 924 800 1069 q 1028 511 1028 779 q 911 112 1028 251 q 575 -28 794 -28 q 240 112 356 -28 q 125 511 125 251 q 239 924 125 779 q 575 1069 353 1069 m 575 1035 q 378 923 435 1035 q 319 549 322 811 l 833 549 q 773 923 831 811 q 575 1035 715 1035 m 319 510 q 376 124 319 242 q 575 7 433 7 q 775 124 717 7 q 833 510 833 242 l 833 511 l 319 511 l 319 510 z "},"ΰ":{"ha":1238,"x_min":115,"x_max":1122,"o":"m 628 -28 q 464 3 533 -28 q 349 85 394 33 q 282 210 304 138 q 260 365 260 282 l 260 1007 l 115 1007 l 115 1042 l 1122 1042 l 1122 1007 l 978 1007 l 978 365 q 958 210 978 282 q 897 85 939 138 q 789 3 856 33 q 628 -28 722 -28 m 438 1007 l 438 422 q 441 265 438 340 q 462 132 444 189 q 518 41 479 75 q 628 7 557 7 q 726 41 692 7 q 778 132 761 75 q 797 265 794 189 q 800 422 800 340 l 800 1007 l 438 1007 m 457 1111 q 374 1123 401 1111 q 347 1157 347 1135 q 374 1194 347 1181 q 457 1208 401 1208 q 540 1194 513 1208 q 567 1157 567 1181 q 540 1123 567 1135 q 457 1111 513 1111 m 835 1111 q 752 1123 779 1111 q 725 1157 725 1135 q 752 1194 725 1181 q 835 1208 779 1208 q 917 1194 890 1208 q 944 1157 944 1181 q 917 1123 944 1135 q 835 1111 890 1111 m 968 1426 l 968 1339 q 840 1296 904 1311 q 702 1274 776 1281 q 535 1265 628 1267 q 322 1264 442 1264 l 322 1285 q 533 1303 442 1292 q 699 1331 625 1314 q 837 1371 772 1347 q 968 1426 901 1394 z "},"λ":{"ha":1139,"x_min":83,"x_max":1028,"o":"m 883 35 l 1028 35 l 1028 0 l 83 0 l 83 35 l 229 35 l 229 181 q 313 442 229 360 q 536 525 396 525 q 556 524 546 525 q 576 522 565 524 q 449 569 514 546 q 330 626 383 593 q 242 708 276 660 q 208 831 208 757 q 288 1007 208 944 q 508 1069 368 1069 q 793 953 703 1069 q 883 601 883 836 l 883 35 m 706 601 q 697 805 706 722 q 667 938 689 888 q 606 1010 644 988 q 506 1032 567 1032 q 403 1021 451 1032 q 321 986 356 1010 q 266 924 286 963 q 246 831 246 885 q 279 722 246 765 q 364 648 313 679 q 478 594 415 617 q 599 549 542 572 q 671 500 646 531 q 706 435 696 469 l 706 601 m 706 35 l 706 250 q 670 438 706 386 q 560 490 635 490 q 484 478 514 490 q 437 433 454 465 q 413 344 419 400 q 407 201 407 288 l 407 35 l 706 35 z "},"σ":{"ha":1153,"x_min":125,"x_max":1069,"o":"m 1028 511 q 911 112 1028 251 q 575 -28 794 -28 q 240 112 356 -28 q 125 511 125 251 q 239 904 125 767 q 575 1042 353 1042 l 1069 1042 l 1069 1004 l 733 1004 q 951 837 874 957 q 1028 511 1028 717 m 575 1007 q 375 893 431 1007 q 319 510 319 779 q 376 124 319 242 q 575 7 433 7 q 775 124 717 7 q 833 510 833 242 q 776 893 833 779 q 575 1007 719 1007 z "},"δ":{"ha":1208,"x_min":146,"x_max":1056,"o":"m 967 424 q 919 210 967 293 q 806 80 871 126 q 672 17 740 33 q 565 0 604 0 q 395 31 472 0 q 263 114 318 61 q 176 240 207 167 q 146 397 146 314 q 176 553 146 481 q 258 679 206 626 q 382 763 310 732 q 538 793 454 793 q 683 751 621 793 q 775 654 744 710 q 706 797 756 732 q 587 907 657 861 q 430 978 517 953 q 250 1004 343 1004 l 185 1004 l 185 1042 l 1056 1042 l 1056 639 l 1019 639 l 1019 772 q 1009 887 1019 842 q 972 958 999 932 q 897 994 944 983 q 775 1004 849 1004 l 451 1004 q 661 931 565 981 q 824 809 757 882 q 929 639 892 736 q 967 424 967 542 m 564 38 q 733 126 676 38 q 789 401 789 214 q 761 594 789 524 q 694 701 733 665 q 610 747 654 738 q 535 756 567 756 q 453 739 489 756 q 392 682 417 722 q 353 573 367 642 q 340 401 340 504 q 399 120 340 203 q 564 38 458 38 z "},"∦":{"ha":1153,"x_min":69,"x_max":1083,"o":"m 224 35 l 793 35 l 506 999 l 224 35 m 1083 0 l 69 0 l 69 35 l 182 35 l 467 1007 l 292 1007 l 292 1042 l 669 1042 l 969 35 l 1083 35 l 1083 0 z "},"Ꞷ":{"ha":1235,"x_min":125,"x_max":1110,"o":"m 1056 650 q 1027 483 1056 558 q 950 356 999 408 q 835 272 901 303 q 693 238 768 242 l 693 149 l 986 149 q 1053 173 1032 149 q 1075 254 1075 197 l 1075 428 l 1110 428 l 1110 0 l 654 0 l 654 268 q 805 369 749 275 q 861 649 861 464 q 794 951 861 867 q 617 1035 728 1035 q 441 951 507 1035 q 375 649 375 867 q 431 379 375 483 q 581 268 486 275 l 581 0 l 125 0 l 125 428 l 160 428 l 160 254 q 181 173 160 197 q 249 149 203 149 l 542 149 l 542 238 q 400 272 467 242 q 285 356 333 303 q 208 483 236 408 q 181 650 181 558 q 213 830 181 751 q 304 962 246 908 q 442 1042 363 1015 q 617 1069 522 1069 q 792 1042 711 1069 q 932 962 874 1015 q 1023 830 990 908 q 1056 650 1056 751 z "},"χ":{"ha":1153,"x_min":107,"x_max":1033,"o":"m 374 1069 q 546 1014 481 1069 q 638 825 611 958 q 709 1002 663 935 q 815 1069 756 1069 q 886 1052 851 1069 q 947 994 921 1035 q 990 884 974 953 q 1006 713 1006 815 l 968 713 q 925 959 968 886 q 822 1032 882 1032 q 706 913 753 1032 q 660 572 660 794 q 704 171 660 311 q 838 31 749 31 q 913 56 883 31 q 961 125 943 82 q 987 226 979 168 q 996 349 994 285 l 1033 349 q 1024 216 1033 283 q 990 94 1015 149 q 917 6 964 40 q 797 -28 871 -28 q 615 51 685 -28 q 515 283 546 129 q 434 51 485 131 q 304 -28 383 -28 q 206 6 244 -28 q 146 94 168 40 q 115 216 124 149 q 107 349 107 283 l 144 349 q 153 219 146 281 q 178 111 161 157 q 226 38 196 65 q 300 11 256 11 q 440 156 388 11 q 492 572 492 301 q 439 907 492 790 q 318 1024 386 1024 q 215 953 258 1024 q 172 713 172 882 l 135 713 q 152 884 135 815 q 201 994 169 953 q 276 1052 232 1035 q 374 1069 321 1069 z "},"ψ":{"ha":1292,"x_min":24,"x_max":1267,"o":"m 733 181 l 733 35 l 1036 35 l 1036 0 l 256 0 l 256 35 l 557 35 l 557 181 q 501 126 536 142 q 418 111 467 111 q 213 210 265 111 q 161 528 161 310 l 161 1007 l 24 1007 l 24 1042 l 1267 1042 l 1267 1007 l 1129 1007 l 1129 528 q 1077 210 1129 310 q 872 111 1025 111 q 789 126 824 111 q 733 181 754 142 m 951 1007 l 733 1007 l 733 365 q 762 202 733 250 q 850 154 790 154 q 908 171 888 154 q 938 229 929 188 q 949 344 947 271 q 951 528 951 417 l 951 1007 m 557 1007 l 339 1007 l 339 528 q 341 344 339 417 q 352 229 343 271 q 382 171 361 188 q 440 154 403 154 q 530 208 503 154 q 557 390 557 261 l 557 1007 z "},"ꞷ":{"ha":1271,"x_min":83,"x_max":1217,"o":"m 392 1007 l 392 269 q 398 176 392 224 q 419 92 404 129 q 461 31 435 54 q 526 7 488 7 q 600 31 571 7 q 647 89 629 54 q 671 165 664 124 q 678 242 678 206 l 678 654 q 617 731 638 685 q 597 835 597 776 q 662 1004 597 939 q 833 1069 726 1069 q 998 984 932 1069 q 1069 717 1064 899 q 1149 844 1119 764 q 1176 1042 1179 925 l 1217 1042 q 1176 811 1217 904 q 1071 669 1136 718 l 1071 271 q 1022 49 1071 125 q 875 -28 974 -28 q 808 -12 839 -28 q 756 28 778 3 q 719 88 733 54 q 700 156 704 121 q 683 88 696 121 q 647 28 669 54 q 590 -12 624 3 q 513 -28 557 -28 q 278 80 342 -28 q 214 365 214 188 l 214 1007 l 83 1007 l 83 1042 l 549 1042 l 549 1007 l 392 1007 m 636 835 q 690 693 636 743 q 879 643 744 643 q 956 653 918 643 q 1029 686 994 664 q 975 949 1028 867 q 835 1031 922 1031 q 690 979 743 1031 q 636 835 636 928 m 718 242 q 728 165 718 206 q 757 89 738 124 q 806 31 776 54 q 875 7 836 7 q 994 76 957 7 q 1032 269 1032 146 l 1032 644 l 1029 643 q 949 614 992 624 q 863 604 907 604 q 783 611 819 604 q 718 631 747 618 l 718 242 z "},"ώ":{"ha":1271,"x_min":83,"x_max":1217,"o":"m 392 1007 l 392 269 q 398 176 392 224 q 419 92 404 129 q 461 31 435 54 q 526 7 488 7 q 600 31 571 7 q 647 89 629 54 q 671 165 664 124 q 678 242 678 206 l 678 654 q 617 731 638 685 q 597 835 597 776 q 662 1004 597 939 q 833 1069 726 1069 q 998 984 932 1069 q 1069 717 1064 899 q 1149 844 1119 764 q 1176 1042 1179 925 l 1217 1042 q 1176 811 1217 904 q 1071 669 1136 718 l 1071 271 q 1022 49 1071 125 q 875 -28 974 -28 q 808 -12 839 -28 q 756 28 778 3 q 719 88 733 54 q 700 156 704 121 q 683 88 696 121 q 647 28 669 54 q 590 -12 624 3 q 513 -28 557 -28 q 278 80 342 -28 q 214 365 214 188 l 214 1007 l 83 1007 l 83 1042 l 549 1042 l 549 1007 l 392 1007 m 636 835 q 690 693 636 743 q 879 643 744 643 q 956 653 918 643 q 1029 686 994 664 q 975 949 1028 867 q 835 1031 922 1031 q 690 979 743 1031 q 636 835 636 928 m 718 242 q 728 165 718 206 q 757 89 738 124 q 806 31 776 54 q 875 7 836 7 q 994 76 957 7 q 1032 269 1032 146 l 1032 644 l 1029 643 q 949 614 992 624 q 863 604 907 604 q 783 611 819 604 q 718 631 747 618 l 718 242 m 968 1274 l 968 1186 q 840 1143 904 1158 q 702 1121 776 1128 q 535 1113 628 1114 q 322 1111 442 1111 l 322 1132 q 533 1150 442 1139 q 699 1178 625 1161 q 837 1218 772 1194 q 968 1274 901 1242 z "},"ε":{"ha":1056,"x_min":125,"x_max":931,"o":"m 868 1042 l 903 1042 l 903 585 l 868 585 q 788 916 868 800 q 543 1032 707 1032 q 378 969 438 1032 q 319 790 319 906 q 380 630 319 685 q 528 575 440 575 l 689 575 l 689 538 l 528 538 q 366 472 432 538 q 300 281 300 407 q 367 88 300 164 q 550 13 435 13 q 805 115 714 13 q 896 432 896 218 l 931 432 q 832 91 931 210 q 550 -28 733 -28 q 385 -10 463 -28 q 250 44 307 7 q 159 138 193 81 q 125 276 125 196 q 153 395 125 344 q 225 480 182 446 q 320 533 268 514 q 417 556 372 551 q 325 573 372 561 q 240 610 278 585 q 177 677 201 636 q 153 782 153 718 q 183 908 153 853 q 267 998 214 963 q 391 1051 319 1033 q 542 1069 463 1069 q 742 1009 657 1069 q 868 824 828 949 l 868 1042 z "},"έ":{"ha":1056,"x_min":125,"x_max":931,"o":"m 868 1042 l 903 1042 l 903 585 l 868 585 q 788 916 868 800 q 543 1032 707 1032 q 378 969 438 1032 q 319 790 319 906 q 380 630 319 685 q 528 575 440 575 l 689 575 l 689 538 l 528 538 q 366 472 432 538 q 300 281 300 407 q 367 88 300 164 q 550 13 435 13 q 805 115 714 13 q 896 432 896 218 l 931 432 q 832 91 931 210 q 550 -28 733 -28 q 385 -10 463 -28 q 250 44 307 7 q 159 138 193 81 q 125 276 125 196 q 153 395 125 344 q 225 480 182 446 q 320 533 268 514 q 417 556 372 551 q 325 573 372 561 q 240 610 278 585 q 177 677 201 636 q 153 782 153 718 q 183 908 153 853 q 267 998 214 963 q 391 1051 319 1033 q 542 1069 463 1069 q 742 1009 657 1069 q 868 824 828 949 l 868 1042 m 900 1274 l 900 1186 q 772 1143 836 1158 q 634 1121 708 1128 q 467 1113 560 1114 q 254 1111 374 1111 l 254 1132 q 465 1150 374 1139 q 631 1178 557 1161 q 769 1218 704 1194 q 900 1274 833 1242 z "},"φ":{"ha":1292,"x_min":67,"x_max":1225,"o":"m 557 35 l 557 243 q 497 165 542 204 q 368 126 453 126 q 149 219 231 126 q 67 522 67 313 q 90 691 67 617 q 154 816 114 765 q 249 893 194 867 q 368 919 304 919 q 476 891 422 919 q 557 817 531 863 l 557 1007 l 256 1007 l 256 1042 l 1036 1042 l 1036 1007 l 735 1007 l 735 817 q 815 891 761 863 q 924 919 868 919 q 1143 815 1061 919 q 1225 522 1225 711 q 1143 219 1225 313 q 924 126 1061 126 q 849 138 881 126 q 794 168 817 150 q 758 208 772 186 q 735 250 743 231 l 735 35 l 1036 35 l 1036 0 l 256 0 l 256 35 l 557 35 m 735 635 l 735 396 q 753 279 735 325 q 797 208 771 233 q 850 173 822 182 q 899 164 878 164 q 954 175 929 164 q 996 222 979 186 q 1022 329 1013 258 q 1031 518 1031 400 q 1021 716 1031 643 q 994 826 1011 789 q 951 872 976 863 q 897 882 926 882 q 778 816 822 882 q 735 635 735 750 m 394 882 q 335 870 360 882 q 293 820 310 858 q 269 710 276 782 q 261 518 261 638 q 268 329 261 400 q 290 222 275 258 q 331 175 306 186 q 393 164 357 164 q 442 173 414 164 q 495 208 469 182 q 539 279 521 233 q 557 396 557 325 l 557 639 q 546 729 557 685 q 515 807 535 774 q 464 861 494 840 q 394 882 433 882 z "},"ꞵ":{"ha":1103,"x_min":90,"x_max":992,"o":"m 228 35 l 228 688 q 260 863 228 790 q 342 982 292 936 q 460 1049 393 1028 q 594 1069 526 1069 q 726 1051 664 1069 q 833 1001 788 1033 q 904 924 878 969 q 931 824 931 878 q 907 733 931 771 q 846 670 883 694 q 761 633 808 646 q 667 615 714 619 q 905 529 818 593 q 992 360 992 465 q 908 178 992 246 q 692 111 825 111 q 581 126 628 111 q 500 165 533 142 q 444 215 467 188 q 406 268 421 243 l 406 35 l 721 35 l 721 0 l 90 0 l 90 35 l 228 35 m 406 706 l 406 407 q 428 301 406 349 q 488 219 451 253 q 569 167 524 185 q 658 149 614 149 q 780 214 735 149 q 825 378 825 279 q 802 477 825 436 q 742 544 779 518 q 656 581 706 569 q 556 593 607 593 l 472 593 l 472 631 l 556 631 q 706 683 649 631 q 764 832 764 736 q 718 976 764 917 q 596 1035 672 1035 q 453 957 500 1035 q 406 706 406 879 z "},"ς":{"ha":1008,"x_min":139,"x_max":856,"o":"m 139 276 l 139 365 l 174 365 l 174 279 q 249 74 174 139 q 458 10 325 10 q 628 56 579 10 q 676 183 676 103 q 626 349 676 289 q 456 460 576 408 q 238 598 303 524 q 174 790 174 672 q 200 911 174 858 q 269 999 226 964 q 364 1051 311 1033 q 468 1069 417 1069 q 621 1027 550 1069 q 731 896 692 985 l 731 1042 l 765 1042 l 765 704 l 731 704 l 731 721 q 710 855 731 796 q 656 953 690 914 q 578 1012 622 992 q 489 1032 535 1032 q 377 990 414 1032 q 340 847 340 947 q 351 764 340 799 q 390 702 363 729 q 462 651 417 675 q 575 600 507 626 q 791 451 726 540 q 856 250 856 363 q 824 128 856 181 q 740 42 793 76 q 614 -10 686 7 q 463 -28 542 -28 q 224 48 308 -28 q 139 276 139 124 z "},"ζ":{"ha":1024,"x_min":167,"x_max":885,"o":"m 514 10 q 588 19 553 10 q 651 51 624 29 q 696 109 679 74 q 713 194 713 144 q 658 328 713 274 q 538 435 603 383 q 417 549 472 486 q 363 707 363 611 q 387 814 363 765 q 453 899 411 863 q 556 963 496 936 q 685 1004 615 989 l 447 1004 q 326 994 374 1004 q 251 958 278 983 q 213 887 224 932 q 203 772 203 842 l 203 639 l 167 639 l 167 1042 l 885 1042 l 885 1004 q 632 944 719 1004 q 544 761 544 883 q 598 633 544 685 q 715 529 651 581 q 831 416 778 478 q 885 258 885 354 q 854 126 885 181 q 773 37 824 71 q 656 -12 722 3 q 518 -28 589 -28 q 258 66 349 -28 q 167 374 167 160 l 167 421 l 204 421 l 204 376 q 285 92 204 174 q 514 10 367 10 z "},"ξ":{"ha":1054,"x_min":167,"x_max":915,"o":"m 528 10 q 692 31 628 10 q 757 111 757 51 q 693 185 757 158 q 554 242 629 211 q 415 321 479 272 q 351 460 351 369 q 376 548 351 511 q 440 610 401 585 q 527 649 479 635 q 622 667 575 663 q 522 685 571 672 q 435 717 472 697 q 374 766 397 738 q 351 833 351 794 q 421 942 351 900 q 594 1004 490 983 l 447 1004 q 326 994 374 1004 q 251 958 278 983 q 213 887 224 932 q 203 772 203 842 l 203 639 l 167 639 l 167 1042 l 906 1042 l 906 1004 l 826 1004 q 585 964 649 1004 q 521 838 521 924 q 571 724 521 763 q 692 686 621 686 l 808 686 l 808 649 l 692 649 q 634 642 663 649 q 583 619 606 635 q 546 578 560 604 q 532 515 532 553 q 592 417 532 447 q 724 363 653 388 q 855 301 794 339 q 915 182 915 264 q 879 78 915 118 q 788 14 843 38 q 664 -19 732 -10 q 532 -28 596 -28 q 257 66 347 -28 q 167 374 167 160 l 167 421 l 204 421 l 204 376 q 284 92 204 174 q 528 10 364 10 z "},"$":{"ha":1008,"x_min":139,"x_max":869,"o":"m 410 -121 l 410 -11 q 270 74 332 14 q 174 221 208 135 l 174 0 l 139 0 l 139 463 l 174 463 l 174 418 q 242 167 174 269 q 410 28 310 64 l 410 482 q 228 609 282 542 q 174 790 174 676 q 194 897 174 850 q 247 978 214 944 q 322 1034 279 1013 q 410 1064 365 1056 l 410 1167 l 447 1167 l 447 1068 q 458 1069 453 1069 q 468 1069 463 1069 q 504 1067 486 1069 q 539 1061 522 1065 l 539 1167 l 576 1167 l 576 1047 q 665 984 625 1026 q 731 876 706 942 l 731 1042 l 765 1042 l 765 663 l 731 663 l 731 679 q 685 894 731 810 q 576 1011 640 978 l 576 603 q 722 531 664 569 q 812 449 779 492 q 857 356 844 406 q 869 250 869 306 q 847 139 869 188 q 785 56 824 90 q 692 1 746 22 q 576 -25 638 -19 l 576 -121 l 539 -121 l 539 -28 q 528 -28 533 -28 q 518 -28 524 -28 q 483 -26 500 -28 q 447 -21 465 -24 l 447 -121 l 410 -121 m 489 1032 q 467 1031 478 1032 q 447 1028 457 1029 l 447 660 q 489 639 465 650 q 539 618 513 628 l 539 1025 q 514 1030 526 1028 q 489 1032 501 1032 m 340 847 q 356 752 340 790 q 410 685 372 714 l 410 1017 q 358 958 375 999 q 340 847 340 917 m 465 457 q 456 461 461 458 q 447 465 451 464 l 447 17 q 481 12 464 14 q 514 10 497 10 q 526 10 519 10 q 539 11 533 10 l 539 424 q 504 440 522 432 q 465 457 486 449 m 690 183 q 664 312 690 261 q 576 401 638 363 l 576 15 q 665 73 639 29 q 690 183 690 117 z "},"€":{"ha":1140,"x_min":68,"x_max":1015,"o":"m 804 481 l 393 389 q 461 101 403 189 q 649 13 519 13 q 891 115 801 13 q 981 432 981 218 l 1015 432 l 1015 1 l 981 1 l 981 203 q 856 31 940 90 q 649 -28 771 -28 q 348 69 457 -28 q 208 347 239 165 l 68 315 l 68 354 l 203 385 q 198 440 200 411 q 196 500 196 469 l 68 472 l 68 510 l 196 538 q 310 931 201 793 q 640 1069 418 1069 q 836 1008 757 1069 q 953 833 915 947 l 953 1042 l 988 1042 l 988 585 l 953 585 q 876 916 953 800 q 642 1032 799 1032 q 451 928 506 1032 q 392 582 397 825 l 806 674 l 806 636 l 390 544 q 390 527 390 536 q 390 510 390 518 q 390 467 390 488 q 392 426 390 446 l 804 518 l 804 481 z "},"_":{"ha":1292,"x_min":118,"x_max":1174,"o":"m 1174 -67 l 118 -67 l 118 -29 l 1174 -29 l 1174 -67 z "},"-":{"ha":646,"x_min":97,"x_max":549,"o":"m 549 553 l 97 553 l 97 590 l 549 590 l 549 553 z "},"–":{"ha":646,"x_min":97,"x_max":549,"o":"m 549 553 l 97 553 l 97 590 l 549 590 l 549 553 z "},"—":{"ha":1292,"x_min":118,"x_max":1174,"o":"m 1174 553 l 118 553 l 118 590 l 1174 590 l 1174 553 z "},"(":{"ha":646,"x_min":97,"x_max":617,"o":"m 617 -74 l 617 -111 q 230 50 363 -111 q 97 511 97 211 q 228 986 97 819 q 617 1153 360 1153 l 617 1115 q 258 965 379 1115 q 138 510 138 815 q 262 70 138 214 q 617 -74 386 -74 z "},")":{"ha":646,"x_min":29,"x_max":549,"o":"m 29 1115 l 29 1153 q 416 992 283 1153 q 549 531 549 831 q 417 56 549 222 q 29 -111 286 -111 l 29 -74 q 388 76 267 -74 q 508 532 508 226 q 384 972 508 828 q 29 1115 260 1115 z "},"[":{"ha":646,"x_min":179,"x_max":603,"o":"m 603 -111 l 179 -111 l 179 1153 l 603 1153 l 603 1115 l 217 1115 l 217 -74 l 603 -74 l 603 -111 z "},"]":{"ha":646,"x_min":43,"x_max":467,"o":"m 43 -74 l 429 -74 l 429 1115 l 43 1115 l 43 1153 l 467 1153 l 467 -111 l 43 -111 l 43 -74 z "},"{":{"ha":646,"x_min":100,"x_max":617,"o":"m 278 67 q 364 -37 278 0 q 617 -75 450 -75 l 617 -112 q 326 -63 415 -112 q 236 67 236 -14 q 260 151 236 111 q 313 227 283 190 q 365 300 342 264 q 389 375 389 336 q 335 470 389 439 q 174 501 281 501 l 100 501 l 100 539 l 174 539 q 335 570 281 539 q 389 665 389 601 q 365 740 389 704 q 313 813 342 776 q 260 890 283 850 q 236 974 236 929 q 326 1103 236 1054 q 617 1153 415 1153 l 617 1115 q 364 1078 450 1115 q 278 974 278 1040 q 301 901 278 938 q 353 828 325 865 q 406 751 382 792 q 429 664 429 710 q 392 570 429 607 q 281 519 354 533 q 392 469 354 506 q 429 376 429 433 q 406 290 429 331 q 353 212 382 249 q 301 139 325 175 q 278 67 278 103 z "},"}":{"ha":646,"x_min":29,"x_max":546,"o":"m 368 67 q 344 139 368 103 q 292 212 321 175 q 240 290 264 249 q 217 376 217 331 q 254 470 217 433 q 365 521 292 507 q 254 571 292 535 q 217 664 217 607 q 240 751 217 710 q 292 828 264 792 q 344 901 321 865 q 368 974 368 938 q 282 1078 368 1040 q 29 1115 196 1115 l 29 1153 q 320 1103 231 1153 q 410 974 410 1054 q 386 890 410 929 q 333 813 363 850 q 281 740 304 776 q 257 665 257 704 q 311 570 257 601 q 472 539 365 539 l 546 539 l 546 501 l 472 501 q 311 470 365 501 q 257 375 257 439 q 281 300 257 336 q 333 227 304 264 q 386 151 363 190 q 410 67 410 111 q 320 -63 410 -14 q 29 -112 231 -112 l 29 -75 q 282 -37 196 -75 q 368 67 368 0 z "},"‚":{"ha":331,"x_min":90,"x_max":240,"o":"m 240 338 l 126 -69 l 90 -60 l 200 338 l 92 338 l 92 375 l 240 375 l 240 338 z "},"„":{"ha":556,"x_min":90,"x_max":465,"o":"m 240 338 l 126 -69 l 90 -60 l 200 338 l 92 338 l 92 375 l 240 375 l 240 338 m 465 338 l 351 -69 l 315 -60 l 425 338 l 317 338 l 317 375 l 465 375 l 465 338 z "},"‘":{"ha":331,"x_min":90,"x_max":240,"o":"m 90 704 l 204 1111 l 240 1101 l 131 704 l 239 704 l 239 667 l 90 667 l 90 704 z "},"“":{"ha":554,"x_min":90,"x_max":465,"o":"m 315 704 l 429 1111 l 465 1101 l 356 704 l 464 704 l 464 667 l 315 667 l 315 704 m 90 704 l 204 1111 l 240 1101 l 131 704 l 239 704 l 239 667 l 90 667 l 90 704 z "},"’":{"ha":331,"x_min":90,"x_max":240,"o":"m 240 1074 l 126 667 l 90 676 l 200 1074 l 92 1074 l 92 1111 l 240 1111 l 240 1074 z "},"”":{"ha":556,"x_min":90,"x_max":465,"o":"m 240 1074 l 126 667 l 90 676 l 200 1074 l 92 1074 l 92 1111 l 240 1111 l 240 1074 m 465 1074 l 351 667 l 315 676 l 425 1074 l 317 1074 l 317 1111 l 465 1111 l 465 1074 z "},"‹":{"ha":507,"x_min":118,"x_max":336,"o":"m 118 551 q 190 630 158 594 q 244 702 221 665 q 284 781 267 739 q 315 878 301 822 l 336 878 q 315 779 326 822 q 289 700 304 736 q 252 628 274 664 q 199 551 231 592 q 252 475 231 511 q 289 403 274 439 q 315 324 304 367 q 336 225 326 281 l 315 225 q 284 322 301 281 q 244 401 267 364 q 190 473 221 438 q 118 551 158 508 z "},"›":{"ha":507,"x_min":171,"x_max":389,"o":"m 389 551 q 317 473 349 508 q 263 401 286 438 q 223 322 240 364 q 192 225 206 281 l 171 225 q 192 324 181 281 q 218 403 203 367 q 255 475 233 439 q 308 551 276 511 q 255 628 276 592 q 218 700 233 664 q 192 779 203 736 q 171 878 181 822 l 192 878 q 223 781 206 822 q 263 702 240 739 q 317 630 286 665 q 389 551 349 594 z "},"'":{"ha":331,"x_min":90,"x_max":240,"o":"m 240 1074 l 126 667 l 90 676 l 200 1074 l 92 1074 l 92 1111 l 240 1111 l 240 1074 z "},"\"":{"ha":694,"x_min":0,"x_max":0,"o":""},"«":{"ha":688,"x_min":118,"x_max":517,"o":"m 118 551 q 190 630 158 594 q 244 702 221 665 q 284 781 267 739 q 315 878 301 822 l 336 878 q 315 779 326 822 q 289 700 304 736 q 252 628 274 664 q 199 551 231 592 q 252 475 231 511 q 289 403 274 439 q 315 324 304 367 q 336 225 326 281 l 315 225 q 284 322 301 281 q 244 401 267 364 q 190 473 221 438 q 118 551 158 508 m 299 551 q 370 630 339 594 q 424 702 401 665 q 465 781 447 739 q 496 878 482 822 l 517 878 q 496 779 507 822 q 469 700 485 736 q 433 628 454 664 q 379 551 411 592 q 433 475 411 511 q 469 403 454 439 q 496 324 485 367 q 517 225 507 281 l 496 225 q 465 322 482 281 q 424 401 447 364 q 370 473 401 438 q 299 551 339 508 z "},"»":{"ha":686,"x_min":169,"x_max":568,"o":"m 568 551 q 497 473 528 508 q 442 401 465 438 q 402 322 419 364 q 371 225 385 281 l 350 225 q 371 324 360 281 q 397 403 382 367 q 434 475 413 439 q 488 551 456 511 q 434 628 456 592 q 397 700 413 664 q 371 779 382 736 q 350 878 360 822 l 371 878 q 402 781 385 822 q 442 702 419 739 q 497 630 465 665 q 568 551 528 594 m 388 551 q 316 473 347 508 q 262 401 285 438 q 222 322 239 364 q 190 225 204 281 l 169 225 q 190 324 179 281 q 217 403 201 367 q 253 475 232 439 q 307 551 275 511 q 253 628 275 592 q 217 700 232 664 q 190 779 201 736 q 169 878 179 822 l 190 878 q 222 781 204 822 q 262 702 239 739 q 316 630 285 665 q 388 551 347 594 z "},"#":{"ha":1292,"x_min":118,"x_max":1174,"o":"m 596 1042 l 521 713 l 850 713 l 925 1042 l 965 1042 l 890 713 l 1174 713 l 1174 675 l 881 675 l 814 379 l 1174 379 l 1174 342 l 804 342 l 726 0 l 688 0 l 765 342 l 435 342 l 357 0 l 318 0 l 396 342 l 118 342 l 118 379 l 404 379 l 472 675 l 118 675 l 118 713 l 481 713 l 556 1042 l 596 1042 m 444 379 l 774 379 l 842 675 l 511 675 l 444 379 z "},"%":{"ha":1292,"x_min":72,"x_max":1219,"o":"m 332 1071 q 528 999 463 1071 q 594 796 594 928 q 527 612 594 675 q 332 549 460 549 q 139 612 206 549 q 72 796 72 675 q 138 999 72 928 q 332 1071 203 1071 m 365 0 l 322 0 l 926 1042 l 969 1042 l 365 0 m 332 1033 q 163 976 215 1033 q 110 794 110 918 q 164 636 110 686 q 332 586 218 586 q 501 636 446 586 q 557 794 557 686 q 503 976 557 918 q 332 1033 449 1033 m 957 494 q 1153 423 1088 494 q 1219 219 1219 351 q 1152 35 1219 99 q 957 -28 1085 -28 q 764 35 831 -28 q 697 219 697 99 q 763 423 697 351 q 957 494 828 494 m 957 457 q 788 399 840 457 q 735 218 735 342 q 789 60 735 110 q 957 10 843 10 q 1126 60 1071 10 q 1182 218 1182 110 q 1128 399 1182 342 q 957 457 1074 457 z "},"&":{"ha":1292,"x_min":107,"x_max":1201,"o":"m 871 292 q 1024 131 975 175 q 1106 86 1074 86 q 1151 111 1138 86 q 1164 176 1164 136 l 1164 365 l 1201 365 l 1201 176 q 1162 20 1201 68 q 1040 -28 1122 -28 q 926 8 986 -28 q 765 149 865 44 q 612 19 708 67 q 397 -28 515 -28 q 277 -6 331 -28 q 185 51 224 17 q 127 130 147 86 q 107 215 107 174 q 134 324 107 275 q 206 411 161 372 q 306 480 250 450 q 421 532 363 510 l 390 565 q 306 701 331 632 q 281 829 281 771 q 362 1001 282 933 q 586 1069 442 1069 q 804 1011 721 1069 q 888 840 888 953 q 859 725 888 778 q 783 642 831 672 l 1118 642 l 1118 604 l 890 604 q 883 460 890 536 q 851 314 876 385 l 871 292 m 542 661 l 824 346 q 848 473 842 406 q 854 604 854 540 l 667 604 l 667 642 q 802 706 754 647 q 850 840 850 764 q 777 986 850 940 q 593 1032 704 1032 q 468 1004 522 1032 q 414 904 414 976 q 441 803 414 863 q 542 661 468 743 m 301 244 q 342 73 301 124 q 453 22 382 22 q 608 59 540 22 q 740 175 676 96 q 727 190 735 182 q 713 206 719 197 l 446 504 q 376 468 404 488 q 331 420 347 449 q 308 349 315 392 q 301 244 301 306 z "},"*":{"ha":646,"x_min":64,"x_max":581,"o":"m 268 597 q 225 572 254 578 q 165 588 196 565 q 132 639 135 610 q 143 688 129 668 q 219 720 182 699 q 300 797 257 742 q 190 810 232 815 q 110 792 149 806 q 72 826 86 800 q 68 886 58 851 q 107 933 81 921 q 157 939 133 946 q 212 876 179 906 q 308 824 244 847 q 288 931 306 892 q 246 1001 269 969 q 266 1048 246 1026 q 322 1069 286 1069 q 380 1048 360 1069 q 400 1001 400 1026 q 358 931 376 969 q 336 824 339 892 q 433 876 400 847 q 488 939 465 906 q 538 933 511 946 q 576 886 564 921 q 572 826 586 851 q 535 792 558 800 q 454 810 496 806 q 344 797 413 815 q 425 720 388 742 q 501 688 463 699 q 513 639 515 668 q 479 588 510 610 q 419 572 449 565 q 376 597 390 578 q 369 679 378 636 q 322 781 361 722 q 275 679 283 722 q 268 597 267 636 z "},",":{"ha":331,"x_min":90,"x_max":240,"o":"m 240 338 l 126 -69 l 90 -60 l 200 338 l 92 338 l 92 375 l 240 375 l 240 338 z "},".":{"ha":644,"x_min":149,"x_max":496,"o":"m 321 319 q 452 272 408 319 q 496 136 496 224 q 451 15 496 57 q 321 -28 406 -28 q 193 15 238 -28 q 149 136 149 57 q 192 272 149 224 q 321 319 235 319 m 321 282 q 218 247 250 282 q 186 135 186 211 q 219 40 186 71 q 321 10 253 10 q 424 40 390 10 q 458 135 458 71 q 425 247 458 211 q 321 282 392 282 z "},"/":{"ha":508,"x_min":69,"x_max":439,"o":"m 113 0 l 69 0 l 396 1042 l 439 1042 l 113 0 z "},":":{"ha":644,"x_min":149,"x_max":496,"o":"m 321 431 q 452 383 408 431 q 496 247 496 335 q 451 126 496 168 q 321 83 406 83 q 193 126 238 83 q 149 247 149 168 q 192 383 149 335 q 321 431 235 431 m 321 393 q 218 358 250 393 q 186 246 186 322 q 219 151 186 182 q 321 121 253 121 q 424 151 390 121 q 458 246 458 182 q 425 358 458 322 q 321 393 392 393 m 321 964 q 452 916 408 964 q 496 781 496 868 q 451 659 496 701 q 321 617 406 617 q 193 659 238 617 q 149 781 149 701 q 192 916 149 868 q 321 964 235 964 m 321 926 q 218 891 250 926 q 186 779 186 856 q 219 685 186 715 q 321 654 253 654 q 424 685 390 654 q 458 779 458 715 q 425 891 458 856 q 321 926 392 926 z "},";":{"ha":646,"x_min":149,"x_max":496,"o":"m 321 964 q 452 916 408 964 q 496 781 496 868 q 451 659 496 701 q 321 617 406 617 q 193 659 238 617 q 149 781 149 701 q 192 916 149 868 q 321 964 235 964 m 321 926 q 218 891 250 926 q 186 779 186 856 q 219 685 186 715 q 321 654 253 654 q 424 685 390 654 q 458 779 458 715 q 425 891 458 856 q 321 926 392 926 m 476 338 l 274 -67 l 239 -50 l 435 338 l 189 338 l 189 375 l 476 375 l 476 338 z "},"@":{"ha":1292,"x_min":125,"x_max":1165,"o":"m 1125 510 q 1004 901 1125 772 q 644 1029 883 1029 q 286 901 407 1029 q 165 510 165 772 q 290 135 165 258 q 644 13 414 13 q 787 26 721 13 q 906 67 853 40 l 922 31 q 797 -13 867 1 q 644 -28 726 -28 q 258 112 390 -28 q 125 511 125 251 q 256 924 125 779 q 644 1069 388 1069 q 1034 924 903 1069 q 1165 511 1165 779 q 1159 344 1165 411 q 1136 238 1153 278 q 1091 183 1119 199 q 1018 167 1063 167 q 878 192 929 167 q 828 301 828 218 q 750 202 801 238 q 628 167 699 167 q 370 256 456 167 q 285 508 285 344 q 370 760 285 672 q 628 849 456 849 q 708 835 672 849 q 768 804 743 822 q 808 765 793 786 q 828 731 824 744 l 971 840 l 1003 840 l 1003 331 q 1015 241 1003 263 q 1056 219 1028 219 q 1111 284 1097 219 q 1125 510 1125 349 m 626 204 q 726 226 688 204 q 787 285 765 247 q 817 376 808 324 q 825 489 825 428 l 825 579 q 766 764 825 717 q 625 811 707 811 q 552 799 581 811 q 508 753 524 786 q 485 663 492 721 q 479 513 479 604 q 486 363 479 422 q 510 268 493 303 q 555 219 526 233 q 626 204 583 204 z "},"\\":{"ha":508,"x_min":69,"x_max":439,"o":"m 396 0 l 69 1042 l 113 1042 l 439 0 l 396 0 z "},"?":{"ha":1292,"x_min":194,"x_max":1092,"o":"m 626 294 q 635 406 626 363 q 663 478 644 449 q 714 528 682 507 q 792 575 746 550 q 882 674 867 615 q 897 819 897 732 q 821 983 897 932 q 588 1032 744 1035 q 333 925 429 1032 q 236 596 236 818 l 236 551 l 194 551 l 194 1042 l 229 1042 l 229 821 q 366 1005 271 940 q 610 1069 461 1069 q 808 1053 718 1069 q 960 1006 897 1038 q 1057 925 1022 974 q 1092 813 1092 876 q 1069 700 1092 742 q 1008 633 1046 658 q 918 588 969 607 q 810 542 867 568 q 736 500 764 519 q 692 455 708 481 q 672 391 676 429 q 667 294 667 353 l 626 294 m 626 -69 l 626 236 l 665 236 l 665 -69 l 626 -69 z "},"¿":{"ha":1292,"x_min":200,"x_max":1097,"o":"m 665 1069 l 665 764 l 626 764 l 626 1069 l 665 1069 m 665 706 q 656 594 665 638 q 628 522 647 551 q 578 472 610 493 q 500 425 546 450 q 410 326 425 385 q 394 181 394 268 q 471 17 394 68 q 704 -32 547 -35 q 959 75 863 -32 q 1056 404 1056 182 l 1056 449 l 1097 449 l 1097 -42 l 1063 -42 l 1063 179 q 926 -5 1021 60 q 682 -69 831 -69 q 484 -53 574 -69 q 332 -6 394 -37 q 235 75 269 26 q 200 188 200 124 q 223 300 200 258 q 284 367 246 342 q 374 413 322 393 q 482 458 425 432 q 556 500 528 481 q 599 545 583 519 q 620 609 615 571 q 625 706 625 647 l 665 706 z "},"!":{"ha":346,"x_min":140,"x_max":206,"o":"m 154 299 l 140 1042 l 206 1042 l 192 299 l 154 299 m 154 -69 l 154 235 l 192 235 l 192 -69 l 154 -69 z "},"¡":{"ha":346,"x_min":0,"x_max":0,"o":""},"·":{"ha":646,"x_min":149,"x_max":496,"o":"m 321 701 q 452 653 408 701 q 496 518 496 606 q 451 397 496 439 q 321 354 406 354 q 193 397 238 354 q 149 518 149 439 q 192 653 149 606 q 321 701 235 701 m 321 664 q 218 628 250 664 q 186 517 186 593 q 219 422 186 453 q 321 392 253 392 q 424 422 390 392 q 458 517 458 453 q 425 628 458 593 q 321 664 392 664 z "},"•":{"ha":646,"x_min":186,"x_max":458,"o":"m 321 699 q 425 663 392 699 q 458 551 458 628 q 424 457 458 488 q 321 426 390 426 q 219 457 253 426 q 186 551 186 488 q 218 663 186 628 q 321 699 250 699 z "},"…":{"ha":1292,"x_min":149,"x_max":1115,"o":"m 321 319 q 452 272 408 319 q 496 136 496 224 q 451 15 496 57 q 321 -28 406 -28 q 193 15 238 -28 q 149 136 149 57 q 192 272 149 224 q 321 319 235 319 m 321 282 q 218 247 250 282 q 186 135 186 211 q 219 40 186 71 q 321 10 253 10 q 424 40 390 10 q 458 135 458 71 q 425 247 458 211 q 321 282 392 282 m 631 319 q 762 272 718 319 q 806 136 806 224 q 760 15 806 57 q 631 -28 715 -28 q 503 15 547 -28 q 458 136 458 57 q 501 272 458 224 q 631 319 544 319 m 631 282 q 528 247 560 282 q 496 135 496 211 q 529 40 496 71 q 631 10 563 10 q 734 40 700 10 q 768 135 768 71 q 735 247 768 211 q 631 282 701 282 m 940 319 q 1072 272 1028 319 q 1115 136 1115 224 q 1070 15 1115 57 q 940 -28 1025 -28 q 813 15 857 -28 q 768 136 768 57 q 811 272 768 224 q 940 319 854 319 m 940 282 q 838 247 869 282 q 806 135 806 211 q 839 40 806 71 q 940 10 872 10 q 1044 40 1010 10 q 1078 135 1078 71 q 1044 247 1078 211 q 940 282 1011 282 z "},"§":{"ha":1292,"x_min":136,"x_max":1172,"o":"m 261 -10 l 261 249 l 296 249 l 296 238 q 326 139 296 182 q 405 67 356 96 q 517 24 454 39 q 649 10 581 10 q 842 33 778 10 q 907 114 907 57 q 894 158 907 140 q 848 190 882 176 q 751 215 814 203 q 589 246 689 228 q 362 298 450 271 q 224 355 274 325 q 155 418 174 385 q 136 490 136 451 q 170 569 136 535 q 263 628 204 604 q 400 664 321 651 q 569 679 479 676 q 310 765 388 715 q 233 892 233 814 q 267 968 233 935 q 355 1024 301 1001 q 476 1058 408 1047 q 611 1069 544 1069 q 817 1033 722 1069 q 957 917 913 996 l 957 1051 l 992 1051 l 992 793 l 957 793 l 957 804 q 929 903 957 860 q 857 974 901 946 q 753 1017 813 1003 q 632 1032 694 1032 q 459 1008 517 1032 q 401 928 401 985 q 414 883 401 901 q 460 852 426 865 q 557 826 494 839 q 719 796 619 814 q 947 744 858 771 q 1085 687 1035 717 q 1153 624 1135 657 q 1172 551 1172 590 q 1138 472 1172 507 q 1046 414 1104 438 q 908 378 988 390 q 739 363 829 365 q 998 277 921 326 q 1075 150 1075 228 q 1038 74 1075 107 q 944 17 1001 40 q 813 -17 886 -6 q 669 -28 740 -28 q 552 -19 610 -28 q 446 10 494 -10 q 358 59 397 29 q 296 129 319 89 l 296 -10 l 261 -10 m 318 536 q 340 481 318 506 q 406 438 363 456 q 448 424 424 431 q 501 411 472 417 q 588 400 540 404 q 692 396 636 396 q 924 425 857 396 q 990 506 990 454 q 970 560 990 536 q 911 601 950 583 q 865 617 892 610 q 803 632 838 625 q 717 642 764 639 q 617 646 671 646 q 385 617 451 646 q 318 536 318 588 z "},"°":{"ha":646,"x_min":149,"x_max":496,"o":"m 321 1069 q 452 1022 408 1069 q 496 886 496 974 q 451 765 496 807 q 321 722 406 722 q 193 765 238 722 q 149 886 149 807 q 192 1022 149 974 q 321 1069 235 1069 m 321 1032 q 218 997 250 1032 q 186 885 186 961 q 219 790 186 821 q 321 760 253 760 q 424 790 390 760 q 458 885 458 821 q 425 997 458 961 q 321 1032 392 1032 z "},"`":{"ha":833,"x_min":89,"x_max":735,"o":"m 89 1274 q 220 1218 156 1242 q 358 1178 285 1194 q 524 1150 432 1161 q 735 1132 615 1139 l 735 1111 q 522 1113 615 1111 q 355 1121 429 1114 q 217 1143 281 1128 q 89 1186 153 1158 l 89 1274 z "},"¯":{"ha":833,"x_min":121,"x_max":713,"o":"m 713 1146 l 121 1146 l 121 1190 l 713 1190 l 713 1146 z "},"´":{"ha":833,"x_min":89,"x_max":735,"o":"m 735 1274 l 735 1186 q 607 1143 671 1158 q 469 1121 543 1128 q 301 1113 394 1114 q 89 1111 208 1111 l 89 1132 q 300 1150 208 1139 q 465 1178 392 1161 q 603 1218 539 1194 q 735 1274 668 1242 z "},"ˆ":{"ha":833,"x_min":90,"x_max":743,"o":"m 417 1301 q 492 1235 457 1264 q 565 1188 528 1207 q 644 1154 601 1168 q 743 1132 688 1140 l 743 1111 q 562 1142 632 1121 q 417 1221 492 1164 q 272 1142 342 1164 q 90 1111 201 1121 l 90 1132 q 189 1154 146 1140 q 269 1188 232 1168 q 341 1235 306 1207 q 417 1301 376 1264 z "},"ˇ":{"ha":833,"x_min":90,"x_max":743,"o":"m 417 1083 q 341 1149 376 1121 q 269 1197 306 1178 q 189 1231 232 1217 q 90 1253 146 1244 l 90 1274 q 272 1242 201 1264 q 417 1164 342 1221 q 562 1242 492 1221 q 743 1274 632 1264 l 743 1253 q 644 1231 688 1244 q 565 1197 601 1217 q 492 1149 528 1178 q 417 1083 457 1121 z "},"¸":{"ha":1292,"x_min":372,"x_max":963,"o":"m 963 -135 q 951 -168 963 -154 q 908 -191 939 -182 q 824 -204 878 -200 q 686 -208 769 -208 q 508 -200 579 -208 q 372 -164 436 -192 l 390 -128 q 517 -162 450 -154 q 685 -171 585 -171 q 810 -168 763 -171 q 883 -161 857 -165 q 917 -150 908 -157 q 925 -135 925 -143 q 916 -122 925 -128 q 882 -110 907 -115 q 810 -103 857 -106 q 689 -100 764 -100 q 565 -101 613 -100 q 475 -121 518 -103 l 461 -94 l 679 3 l 690 -22 l 581 -71 q 639 -67 611 -68 q 689 -65 667 -65 q 906 -81 850 -65 q 963 -135 963 -97 z "},"˘":{"ha":778,"x_min":113,"x_max":665,"o":"m 665 1254 q 653 1190 665 1217 q 611 1145 642 1163 q 526 1119 581 1128 q 389 1111 472 1111 q 251 1119 306 1111 q 167 1145 197 1128 q 124 1190 136 1163 q 113 1254 113 1217 l 150 1254 q 158 1216 150 1233 q 192 1187 167 1199 q 264 1169 217 1175 q 388 1163 311 1163 q 513 1169 465 1163 q 585 1187 560 1175 q 619 1216 611 1199 q 628 1254 628 1233 l 665 1254 z "},"˙":{"ha":778,"x_min":279,"x_max":499,"o":"m 389 1111 q 306 1123 333 1111 q 279 1157 279 1135 q 306 1194 279 1181 q 389 1208 333 1208 q 472 1194 444 1208 q 499 1157 499 1181 q 472 1123 499 1135 q 389 1111 444 1111 z "},"˚":{"ha":778,"x_min":113,"x_max":665,"o":"m 665 1185 q 653 1151 665 1165 q 611 1128 642 1138 q 526 1115 581 1119 q 389 1111 472 1111 q 251 1115 306 1111 q 167 1128 197 1119 q 124 1151 136 1138 q 113 1185 113 1165 q 124 1218 113 1204 q 167 1241 136 1232 q 251 1254 197 1250 q 389 1258 306 1258 q 526 1254 472 1258 q 611 1241 581 1250 q 653 1218 642 1232 q 665 1185 665 1204 m 150 1185 q 158 1169 150 1176 q 192 1158 167 1163 q 264 1151 217 1154 q 388 1149 311 1149 q 513 1151 465 1149 q 585 1158 560 1154 q 619 1169 611 1163 q 628 1185 628 1176 q 619 1200 628 1193 q 585 1211 611 1207 q 513 1218 560 1215 q 388 1221 465 1221 q 264 1218 311 1221 q 192 1211 217 1215 q 158 1200 167 1207 q 150 1185 150 1193 z "},"˜":{"ha":1292,"x_min":378,"x_max":914,"o":"m 507 1244 q 583 1233 543 1244 q 660 1208 622 1222 q 734 1183 699 1194 q 797 1172 769 1172 q 852 1189 822 1172 q 882 1244 882 1206 l 914 1244 q 883 1146 914 1181 q 785 1111 853 1111 q 715 1122 751 1111 q 641 1147 678 1133 q 567 1172 604 1161 q 494 1183 529 1183 q 440 1167 469 1183 q 410 1111 410 1150 l 378 1111 q 408 1210 378 1175 q 507 1244 439 1244 z "},"˝":{"ha":833,"x_min":89,"x_max":735,"o":"m 415 1274 l 415 1186 q 274 1125 347 1139 q 89 1111 201 1111 l 89 1132 q 269 1175 194 1139 q 415 1274 344 1211 m 735 1274 l 735 1186 q 594 1125 667 1139 q 408 1111 521 1111 l 408 1132 q 589 1175 514 1139 q 735 1274 664 1211 z "},"¨":{"ha":778,"x_min":93,"x_max":690,"o":"m 203 1111 q 120 1123 147 1111 q 93 1157 93 1135 q 120 1194 93 1181 q 203 1208 147 1208 q 285 1194 258 1208 q 313 1157 313 1181 q 285 1123 313 1135 q 203 1111 258 1111 m 581 1111 q 498 1123 525 1111 q 471 1157 471 1135 q 498 1194 471 1181 q 581 1208 525 1208 q 663 1194 636 1208 q 690 1157 690 1181 q 663 1123 690 1135 q 581 1111 636 1111 z "},"ꙮ":{"ha":1292,"x_min":68,"x_max":1240,"o":"m 165 165 q 203 276 168 235 q 307 318 238 318 q 410 276 374 318 q 451 165 446 233 l 425 165 q 385 225 422 208 q 308 242 347 242 q 226 225 261 242 q 189 165 192 208 l 165 165 m 858 165 q 896 276 861 235 q 1000 318 931 318 q 1103 276 1067 318 q 1144 165 1139 233 l 1118 165 q 1078 225 1115 208 q 1001 242 1040 242 q 919 225 954 242 q 882 165 885 208 l 858 165 m 515 -25 q 553 86 518 44 q 657 128 588 128 q 760 85 724 128 q 801 -25 796 43 l 775 -25 q 735 35 772 18 q 658 51 697 51 q 576 35 611 51 q 539 -25 542 18 l 515 -25 m 68 450 q 106 561 71 519 q 210 603 140 603 q 313 560 276 603 q 354 450 349 518 l 328 450 q 288 510 325 493 q 211 526 250 526 q 129 510 164 526 q 92 450 94 493 l 68 450 m 954 447 q 992 558 957 517 q 1096 600 1026 600 q 1199 558 1163 600 q 1240 447 1235 515 l 1214 447 q 1174 507 1211 490 q 1097 524 1136 524 q 1015 507 1050 524 q 978 447 981 490 l 954 447 m 168 718 q 206 829 171 788 q 310 871 240 871 q 413 828 376 871 q 454 718 449 786 l 428 718 q 388 778 425 761 q 311 794 350 794 q 229 778 264 794 q 192 718 194 761 l 168 718 m 858 721 q 896 832 861 790 q 1000 874 931 874 q 1103 831 1067 874 q 1144 721 1139 789 l 1118 721 q 1078 781 1115 764 q 1001 797 1040 797 q 919 781 954 797 q 882 721 885 764 l 858 721 m 515 914 q 553 1025 518 983 q 657 1067 588 1067 q 760 1024 724 1067 q 801 914 796 982 l 775 914 q 735 974 772 957 q 658 990 697 990 q 576 974 611 990 q 539 914 542 957 l 515 914 z "},"҉":{"ha":1292,"x_min":121,"x_max":1172,"o":"m 1003 165 q 956 22 1003 71 q 817 -28 908 -28 q 710 -4 753 -28 q 647 67 667 19 q 584 -4 626 19 q 478 -28 542 -28 q 338 22 386 -28 q 290 165 290 71 q 300 249 290 213 q 328 313 310 286 q 317 311 322 311 q 307 311 313 311 q 168 360 215 311 q 121 504 121 410 q 168 662 121 607 q 307 717 215 717 l 322 717 q 299 771 307 739 q 290 842 290 803 q 338 999 290 944 q 478 1054 385 1054 q 585 1028 542 1054 q 647 950 628 1001 q 709 1028 667 1001 q 817 1054 751 1054 q 956 999 908 1054 q 1003 842 1003 944 q 994 771 1003 803 q 971 717 986 739 l 985 717 q 1125 662 1078 717 q 1172 504 1172 607 q 1124 360 1172 410 q 985 311 1076 311 l 965 311 q 993 249 983 285 q 1003 165 1003 213 m 664 840 q 704 722 664 761 q 817 683 744 683 q 856 687 838 683 q 889 696 874 690 q 894 699 890 697 q 900 701 897 700 q 950 753 932 718 q 968 840 968 789 q 930 975 968 931 q 817 1019 892 1019 q 703 975 742 1019 q 664 840 664 931 m 325 840 q 365 722 325 761 q 478 683 406 683 q 517 687 499 683 q 550 696 535 690 q 555 699 551 697 q 561 701 558 700 q 611 753 593 718 q 629 840 629 789 q 591 975 629 931 q 478 1019 553 1019 q 364 975 403 1019 q 325 840 325 931 m 847 849 q 839 821 847 831 q 815 811 831 811 q 793 821 801 811 q 785 849 785 831 q 792 881 785 869 q 815 892 800 892 q 839 881 831 892 q 847 849 847 869 m 508 849 q 500 821 508 831 q 476 811 492 811 q 454 821 463 811 q 446 849 446 831 q 453 881 446 869 q 476 892 461 892 q 500 881 492 892 q 508 849 508 869 m 632 717 l 661 717 q 653 729 657 722 q 647 743 650 736 q 640 729 643 736 q 632 717 636 722 m 833 503 q 874 385 833 424 q 985 346 914 346 q 1097 385 1057 346 q 1138 503 1138 424 q 1099 638 1138 593 q 985 682 1060 682 q 951 680 967 682 q 922 672 936 678 q 912 667 917 669 q 901 663 907 664 q 851 603 868 643 q 833 503 833 563 m 494 503 q 535 385 494 424 q 646 346 575 346 q 758 385 718 346 q 799 503 799 424 q 781 604 799 564 q 728 664 763 644 q 720 667 724 665 q 713 671 717 669 q 681 679 699 676 q 646 682 664 682 q 613 680 628 682 q 583 672 597 678 q 573 667 578 669 q 563 663 568 664 q 512 603 529 643 q 494 503 494 563 m 156 503 q 196 385 156 424 q 307 346 236 346 q 419 385 379 346 q 460 503 460 424 q 442 604 460 564 q 389 664 424 644 q 381 667 385 665 q 374 671 378 669 q 342 679 360 676 q 307 682 325 682 q 194 638 232 682 q 156 503 156 593 m 796 649 q 807 632 801 642 q 815 613 813 622 q 825 631 819 622 q 836 649 831 640 l 796 649 m 457 649 q 468 632 463 642 q 476 613 474 622 q 486 631 481 622 q 497 649 492 640 l 457 649 m 1017 511 q 1008 483 1017 493 q 986 474 1000 474 q 963 483 971 474 q 954 511 954 493 q 963 543 954 532 q 986 554 971 554 q 1009 543 1001 554 q 1017 511 1017 532 m 339 511 q 331 483 339 493 q 308 474 322 474 q 285 483 293 474 q 276 511 276 493 q 285 543 276 532 q 308 554 293 554 q 331 543 324 554 q 339 511 339 532 m 678 511 q 669 483 678 493 q 647 474 661 474 q 624 483 632 474 q 615 511 615 493 q 624 543 615 532 q 647 554 632 554 q 670 543 663 554 q 678 511 678 532 m 461 378 l 493 378 q 484 391 488 383 q 476 406 481 399 q 469 391 474 399 q 461 378 465 383 m 800 378 l 832 378 q 823 391 826 383 q 815 406 819 399 q 808 391 813 399 q 800 378 804 383 m 817 7 q 928 46 888 7 q 968 164 968 85 q 930 299 968 254 q 817 343 892 343 q 703 299 742 343 q 664 164 664 254 q 704 46 664 85 q 817 7 744 7 m 478 7 q 589 46 549 7 q 629 164 629 85 q 591 299 629 254 q 478 343 553 343 q 364 299 403 343 q 325 164 325 254 q 365 46 325 85 q 478 7 406 7 m 646 311 l 626 311 q 638 293 632 303 q 647 274 643 283 q 656 293 651 283 q 667 313 661 303 q 656 311 661 311 q 646 311 651 311 m 847 172 q 839 144 847 154 q 815 135 831 135 q 793 144 801 135 q 785 172 785 154 q 792 204 785 193 q 815 215 800 215 q 839 204 831 215 q 847 172 847 193 m 508 172 q 500 144 508 154 q 476 135 492 135 q 454 144 463 135 q 446 172 446 154 q 453 204 446 193 q 476 215 461 215 q 500 204 492 215 q 508 172 508 193 z "},"҈":{"ha":1292,"x_min":88,"x_max":1203,"o":"m 242 381 l 346 276 l 449 379 l 476 351 l 374 249 l 478 144 l 449 117 l 346 221 l 240 115 l 213 144 l 318 249 l 214 353 l 242 381 m 542 260 l 646 156 l 749 258 l 776 231 l 674 128 l 778 24 l 749 -4 l 646 100 l 540 -6 l 513 24 l 618 128 l 514 232 l 542 260 m 539 1104 l 643 1000 l 746 1103 l 774 1075 l 671 972 l 775 868 l 746 840 l 643 944 l 538 839 l 510 868 l 615 972 l 511 1076 l 539 1104 m 967 678 l 1071 574 l 1174 676 l 1201 649 l 1099 546 l 1203 442 l 1174 414 l 1071 518 l 965 413 l 938 442 l 1043 546 l 939 650 l 967 678 m 117 678 l 221 574 l 324 676 l 351 649 l 249 546 l 353 442 l 324 414 l 221 518 l 115 413 l 88 442 l 193 546 l 89 650 l 117 678 m 838 381 l 942 276 l 1044 379 l 1072 351 l 969 249 l 1074 144 l 1044 117 l 942 221 l 836 115 l 808 144 l 914 249 l 810 353 l 838 381 m 242 978 l 346 874 l 449 976 l 476 949 l 374 846 l 478 742 l 449 714 l 346 818 l 240 713 l 213 742 l 318 846 l 214 950 l 242 978 m 838 978 l 942 874 l 1044 976 l 1072 949 l 969 846 l 1074 742 l 1044 714 l 942 818 l 836 713 l 808 742 l 914 846 l 810 950 l 838 978 z "},"Ꚛ":{"ha":1292,"x_min":115,"x_max":1178,"o":"m 624 811 l 624 939 l 482 939 l 482 976 l 624 976 l 624 1101 l 669 1101 l 669 976 l 811 976 l 811 939 l 669 939 l 669 811 l 624 811 m 115 763 l 115 800 l 419 800 l 419 763 l 115 763 m 872 763 l 872 800 l 1178 800 l 1178 763 l 872 763 m 115 511 l 115 549 l 419 549 l 419 511 l 115 511 m 872 511 l 872 549 l 1178 549 l 1178 511 l 872 511 m 115 261 l 115 299 l 419 299 l 419 261 l 115 261 m 872 261 l 872 299 l 1178 299 l 1178 261 l 872 261 m 433 -57 l 433 235 l 479 235 l 479 -57 l 433 -57 m 624 -57 l 624 235 l 669 235 l 669 -57 l 624 -57 m 814 -57 l 814 235 l 860 235 l 860 -57 l 814 -57 z "},"꙲":{"ha":1292,"x_min":125,"x_max":1165,"o":"m 644 1069 q 1034 924 903 1069 q 1165 511 1165 779 q 1033 112 1165 251 q 644 -28 900 -28 q 258 112 390 -28 q 125 511 125 251 q 256 924 125 779 q 644 1069 388 1069 m 165 528 l 626 528 l 626 1029 q 286 899 403 1024 q 165 528 169 775 m 663 528 l 1125 528 q 1004 900 1121 776 q 663 1029 888 1024 l 663 528 m 165 493 q 289 136 169 254 q 626 13 408 18 l 626 493 l 165 493 m 663 493 l 663 13 q 1001 135 882 17 q 1125 493 1121 254 l 663 493 z "},"☐":{"ha":1292,"x_min":181,"x_max":1110,"o":"m 328 999 l 1110 999 l 1110 244 l 957 94 l 181 94 l 181 856 l 328 999 m 221 828 l 221 135 l 932 135 l 932 828 l 221 828 z "},"△":{"ha":1292,"x_min":63,"x_max":1229,"o":"m 63 0 l 646 1111 l 1229 0 l 63 0 m 646 1024 l 129 40 l 1163 40 l 646 1024 z "},"✬":{"ha":1292,"x_min":150,"x_max":1142,"o":"m 646 331 l 339 113 l 458 468 l 150 696 l 529 688 l 646 1056 l 763 688 l 1142 696 l 833 468 l 953 113 l 646 331 m 646 921 l 564 667 q 603 683 582 676 q 646 689 624 689 q 689 683 668 689 q 728 667 710 676 l 646 921 m 806 529 q 804 511 806 519 q 801 494 803 503 l 1017 653 l 753 647 q 791 594 776 625 q 806 529 806 564 m 275 653 l 490 494 q 488 511 489 503 q 486 529 486 519 q 501 594 486 564 q 539 647 515 625 l 275 653 m 415 217 l 631 369 q 552 400 588 374 q 500 465 517 426 l 415 217 m 876 217 l 792 465 q 740 400 775 426 q 661 371 704 374 l 876 217 z "},"○":{"ha":1292,"x_min":125,"x_max":1165,"o":"m 644 1069 q 1034 924 903 1069 q 1165 511 1165 779 q 1033 112 1165 251 q 644 -28 900 -28 q 258 112 390 -28 q 125 511 125 251 q 256 924 125 779 q 644 1069 388 1069 m 644 13 q 1001 135 876 13 q 1125 510 1125 258 q 1004 901 1125 772 q 644 1029 883 1029 q 286 901 407 1029 q 165 510 165 772 q 290 135 165 258 q 644 13 414 13 z "},"◆":{"ha":1292,"x_min":226,"x_max":1065,"o":"m 646 132 l 226 553 l 646 971 l 1065 553 l 646 132 z "},"◉":{"ha":1292,"x_min":125,"x_max":1165,"o":"m 644 1069 q 1034 924 903 1069 q 1165 511 1165 779 q 1033 112 1165 251 q 644 -28 900 -28 q 258 112 390 -28 q 125 511 125 251 q 256 924 125 779 q 644 1069 388 1069 m 644 13 q 1001 135 876 13 q 1125 510 1125 258 q 1004 901 1125 772 q 644 1029 883 1029 q 286 901 407 1029 q 165 510 165 772 q 290 135 165 258 q 644 13 414 13 m 625 671 q 729 635 696 671 q 763 524 763 600 q 728 429 763 460 q 625 399 694 399 q 524 429 557 399 q 490 524 490 460 q 522 635 490 600 q 625 671 554 671 z "},"⟐":{"ha":1292,"x_min":226,"x_max":1065,"o":"m 1065 553 l 646 132 l 226 553 l 646 971 l 1065 553 m 283 553 l 646 189 l 1008 553 l 646 914 l 283 553 m 646 664 q 733 635 706 664 q 761 543 761 607 q 733 463 761 490 q 646 436 706 436 q 561 463 589 436 q 533 543 533 489 q 561 635 533 607 q 646 664 589 664 z "},"✡":{"ha":1292,"x_min":172,"x_max":1119,"o":"m 646 1 l 493 271 l 172 271 l 335 549 l 172 826 l 493 826 l 646 1096 l 799 826 l 1119 826 l 963 549 l 1119 271 l 799 271 l 646 1 m 775 311 l 1051 311 l 917 549 l 1051 786 l 775 786 l 646 1015 l 517 786 l 243 786 l 382 549 l 243 311 l 517 311 l 646 82 l 775 311 z "},"✯":{"ha":1292,"x_min":150,"x_max":1142,"o":"m 646 331 l 339 113 l 458 468 l 150 696 l 529 688 l 646 1056 l 763 688 l 1142 696 l 833 468 l 953 113 l 646 331 m 646 529 l 646 960 l 550 660 l 646 529 m 646 529 l 1054 665 l 742 660 l 646 529 m 646 529 l 238 665 l 492 479 l 646 529 m 646 529 l 392 186 l 646 365 l 646 529 m 646 529 l 900 186 l 800 479 l 646 529 z "},"▲":{"ha":1292,"x_min":63,"x_max":1229,"o":"m 63 0 l 646 1111 l 1229 0 l 63 0 z "},"✧":{"ha":1292,"x_min":226,"x_max":1065,"o":"m 1065 560 l 1065 546 q 815 384 915 483 q 653 135 715 285 l 639 135 q 476 384 576 285 q 226 546 376 483 l 226 560 q 476 722 376 622 q 639 971 576 821 l 653 971 q 815 722 715 821 q 1065 560 915 622 m 308 553 q 506 413 422 496 q 646 217 589 331 q 786 413 703 331 q 983 553 869 496 q 786 692 869 610 q 646 889 703 775 q 506 692 589 775 q 308 553 422 610 z "},"✣":{"ha":1292,"x_min":121,"x_max":1185,"o":"m 793 135 q 757 42 793 85 q 653 0 721 0 q 549 42 585 0 q 513 135 513 85 q 531 218 513 183 q 572 291 550 253 q 615 381 594 329 q 636 515 635 433 q 502 494 554 514 q 412 451 450 474 q 339 410 374 429 q 256 392 304 392 q 163 428 206 392 q 121 532 121 464 q 163 636 121 600 q 256 672 206 672 q 339 653 304 672 q 412 613 374 635 q 502 570 450 590 q 636 549 554 550 q 614 683 633 631 q 572 773 594 735 q 531 846 549 811 q 513 929 513 881 q 549 1022 513 979 q 653 1064 585 1064 q 757 1022 721 1064 q 793 929 793 979 q 774 846 793 881 q 733 773 756 811 q 691 683 711 735 q 669 549 671 631 q 803 570 751 550 q 894 613 856 590 q 967 653 932 635 q 1050 672 1001 672 q 1142 636 1100 672 q 1185 532 1185 600 q 1142 428 1185 464 q 1050 392 1100 392 q 967 410 1001 392 q 894 451 932 429 q 803 494 856 474 q 669 515 751 514 q 692 381 672 433 q 734 291 711 329 q 775 218 757 253 q 793 135 793 183 z "},"✦":{"ha":1292,"x_min":226,"x_max":1065,"o":"m 1065 560 l 1065 546 q 815 384 915 483 q 653 135 715 285 l 639 135 q 476 384 576 285 q 226 546 376 483 l 226 560 q 476 722 376 622 q 639 971 576 821 l 653 971 q 815 722 715 821 q 1065 560 915 622 z "},"☆":{"ha":1292,"x_min":150,"x_max":1142,"o":"m 646 331 l 339 113 l 458 468 l 150 696 l 529 688 l 646 1056 l 763 688 l 1142 696 l 833 468 l 953 113 l 646 331 m 786 483 l 1017 653 l 733 647 l 646 921 l 558 647 l 275 653 l 506 483 l 415 217 l 646 381 l 876 217 l 786 483 z "},"✥":{"ha":1292,"x_min":121,"x_max":1185,"o":"m 807 135 q 767 42 807 85 q 653 0 726 0 q 539 42 579 0 q 499 135 499 85 q 549 202 525 169 q 592 276 574 235 q 623 376 611 318 q 636 515 635 433 q 497 502 554 514 q 397 472 439 490 q 323 428 356 453 q 256 378 290 404 q 163 418 206 378 q 121 532 121 458 q 163 646 121 606 q 256 686 206 686 q 323 635 290 660 q 397 592 356 611 q 497 562 439 574 q 636 549 554 550 q 623 689 635 632 q 592 788 611 746 q 549 862 574 829 q 499 929 525 894 q 539 1022 499 979 q 653 1064 579 1064 q 767 1022 726 1064 q 807 929 807 979 q 756 862 781 894 q 713 788 732 829 q 683 688 694 746 q 669 549 671 631 q 809 562 751 550 q 908 592 867 574 q 983 635 950 611 q 1050 686 1015 660 q 1142 646 1100 686 q 1185 532 1185 606 q 1142 418 1185 458 q 1050 378 1100 378 q 983 428 1015 404 q 908 472 950 453 q 809 502 867 490 q 669 515 751 514 q 683 375 671 432 q 713 276 694 318 q 756 202 732 235 q 807 135 781 169 z "},"➢":{"ha":1292,"x_min":272,"x_max":963,"o":"m 272 151 l 397 551 l 272 956 l 963 551 l 272 151 m 439 551 l 883 551 l 342 869 l 439 551 z "},"◐":{"ha":1292,"x_min":125,"x_max":1165,"o":"m 644 1069 q 1034 924 903 1069 q 1165 511 1165 779 q 1033 112 1165 251 q 644 -28 900 -28 q 258 112 390 -28 q 125 511 125 251 q 256 924 125 779 q 644 1069 388 1069 m 644 13 q 1001 135 876 13 q 1125 510 1125 258 q 1004 901 1125 772 q 644 1029 883 1029 l 644 13 z "},"":{"ha":1292,"x_min":272,"x_max":963,"o":"m 963 151 l 272 551 l 963 956 l 838 551 l 963 151 m 796 551 l 893 869 l 351 551 l 796 551 z "},"":{"ha":646,"x_min":50,"x_max":550,"o":"m 411 551 q 461 452 438 508 q 503 340 485 396 q 533 236 521 285 q 550 160 546 188 l 547 160 q 441 257 500 206 q 317 360 382 308 q 184 460 253 411 q 50 550 115 510 l 50 553 q 184 642 115 593 q 317 742 253 690 q 441 844 382 793 q 547 943 500 896 l 550 942 q 531 865 544 915 q 500 758 518 815 q 459 646 482 701 q 411 551 436 590 z "},"★":{"ha":1292,"x_min":150,"x_max":1142,"o":"m 646 331 l 339 113 l 458 468 l 150 696 l 529 688 l 646 1056 l 763 688 l 1142 696 l 833 468 l 953 113 l 646 331 z "},"☼":{"ha":1292,"x_min":81,"x_max":1210,"o":"m 260 922 l 411 771 q 501 835 447 813 q 626 861 556 858 l 626 1075 l 664 1075 l 664 861 q 789 835 735 858 q 879 769 843 813 l 1032 922 l 1058 896 l 903 740 q 942 647 928 700 q 957 529 956 593 l 1210 529 l 1210 492 l 957 492 q 940 376 956 428 q 894 288 924 325 l 1058 124 l 1032 97 l 871 258 q 783 203 835 224 q 664 181 731 183 l 664 -54 l 626 -54 l 626 181 q 508 203 560 182 q 419 258 457 224 l 260 97 l 233 124 l 396 286 q 351 376 367 325 q 333 492 335 428 l 81 492 l 81 529 l 333 529 q 349 648 335 594 q 389 740 363 701 l 233 896 l 260 922 m 644 221 q 847 292 776 221 q 917 510 917 364 q 849 744 917 667 q 644 821 781 821 q 442 744 510 821 q 374 510 374 667 q 444 292 374 364 q 644 221 514 221 z "},"■":{"ha":1292,"x_min":449,"x_max":843,"o":"m 449 747 l 843 747 l 843 343 l 449 343 l 449 747 z "}}}
